<svg id="图层_1" data-name="图层 1" xmlns="http://www.w3.org/2000/svg" xmlns:xlink="http://www.w3.org/1999/xlink" viewBox="0 0 160 64"><defs><style>.cls-1{fill:none;clip-rule:evenodd;}.cls-2{clip-path:url(#clip-path);}.cls-3{fill:#020202;}.cls-3,.cls-4{fill-rule:evenodd;}.cls-4{fill:#960;}</style><clipPath id="clip-path"><path class="cls-1" d="M24.83-80.42a1,1,0,0,1,1.28-.81,1.93,1.93,0,0,1,1.43,2.43,5.79,5.79,0,0,1-.42-.81.76.76,0,0,0-.74-.57c-.25,0-.61.55-.61.88a7.84,7.84,0,0,1-.09,1.36c-.09-.56-.49-1.08-.21-1.68a1.7,1.7,0,0,0,.07-.68c0-.07-.1-.22-.16-.22a3.76,3.76,0,0,0-.55.1"/></clipPath></defs><title>icon</title><path class="cls-3" d="M128.86,24v3.34h-3.52V24Zm-12.94,6.94h-1.31v7H116c2.36.05,3.52-1.07,3.46-3.38C119.52,32.09,118.33,30.88,115.92,30.94Zm-14.41,0H100.2v7h1.39c2.36.05,3.51-1.07,3.46-3.38C105.1,32.09,103.92,30.88,101.51,30.94ZM90.62,35.13H88q-2.59,0-2.55,1.47c0,1,.85,1.47,2.51,1.47h2.7Zm44.1-6.48,2.66,4,2.61-4h3.91l-4.15,5.7,4.43,5.91h-4.11l-2.69-4.08-2.84,4.08h-4.09l4.45-5.93-4.07-5.68Zm-5.86,0V40.26h-3.52V28.65ZM94,33.36v6.9h-7q-5,0-5-3.56-.21-3.89,5.76-3.76h2.86c-.06-1.33-.9-2-2.54-2.06a2.76,2.76,0,0,0-2.67,1.53H82.06q1.16-4,6-4C92.09,28.29,94.05,30,94,33.36ZM79.89,24v2.29L70.15,38H80.21v2.29H65.82V38l9.64-11.66H66.14V24Zm34.72,0v4.65h2.09q6.51-.11,6.4,5.86.15,5.9-6.42,5.75h-5.61V24ZM100.2,24v4.65h2.09q6.51-.11,6.4,5.86.15,5.9-6.42,5.75H96.66V24Z"/><path class="cls-4" d="M34.84,20.59h.44l.35,0,.34,0,.35,0,.34.05.34.06.34.07.34.08L38,21l.33.1.33.11.33.12.32.13.32.14.31.15.31.16.3.17.3.17.3.19.28.2.2.14a1.8,1.8,0,0,0,.44.8l-.77.83-.07-.07-.3-.23-.11-.09h0L40.76,24h0l-.12-.08a2.11,2.11,0,0,0-.31-.21l-.12-.08h0l-.07,0h0L40,23.51a3.37,3.37,0,0,0-.32-.19l-.13-.07h0l-.07,0h0l-.13-.07L39,23l-.13-.06h0l-.08,0h0l-.13-.06-.35-.14-.14-.05h0l-.08,0h0L38,22.57l-.36-.11-.13,0h0l-.09,0h0l-.14,0-.36-.08-.14,0h-.09l-.14,0-.37-.05-.14,0h-.23c-.12,0-.25,0-.37,0H34.28l-.37,0h-.23l-.14,0-.37.05-.14,0h0l-.09,0h0l-.14,0-.36.08-.14,0h0l-.09,0h0l-.13,0-.36.11-.14,0h0l-.08,0h0l-.14.05-.34.14-.14.05h0l-.08,0h0l-.13.06-.33.16-.13.06h0l-.08,0h0l-.12.07-.33.19-.12.07h0l-.07.05h0l-.12.08a2.11,2.11,0,0,0-.31.21l-.12.08h0l-.07.05h0l-.11.09-.3.23,0,0-.74-.82a1.64,1.64,0,0,0,.4-.8h0l.28-.2.29-.18.3-.19.3-.17.3-.16.31-.15.32-.15.31-.13.33-.12.32-.12.33-.1.34-.1.33-.08.34-.08.34-.06.35-.06.34,0,.34,0,.35,0h.6ZM35,25.44V28.6a13.34,13.34,0,0,1,2.85.33C37.3,27,36.25,25.68,35,25.44Zm-.36,0h-.29c-1.31.17-2.44,1.6-3,3.62a12.85,12.85,0,0,1,3.3-.44Zm1.42.11A6.16,6.16,0,0,1,38.26,29a5.86,5.86,0,0,1,3.17,1.82A6.72,6.72,0,0,0,36.08,25.52ZM33,25.67a6.74,6.74,0,0,0-4.72,5.18A5.52,5.52,0,0,1,31,29.17,6.57,6.57,0,0,1,33,25.67ZM35,29v3h3.29a11.19,11.19,0,0,0-.34-2.6A12.2,12.2,0,0,0,35,29Zm-4.16.62c-1.53.54-2.57,1.39-2.71,2.35h2.44A12.61,12.61,0,0,1,30.86,29.58Zm7.51-.15a11.73,11.73,0,0,1,.29,2.5h2.87C41.38,30.88,40.15,30,38.37,29.43ZM34.66,29a12.24,12.24,0,0,0-3.41.49,12.2,12.2,0,0,0-.3,2.48h3.71Zm-4.07,3.33H28.14c.08,1,1.14,1.9,2.74,2.46A12.66,12.66,0,0,1,30.59,32.29Zm11,0H38.66a11.3,11.3,0,0,1-.32,2.61C40.19,34.36,41.45,33.4,41.55,32.29Zm-3.24,0H35v3.08A12.62,12.62,0,0,0,38,35,11.46,11.46,0,0,0,38.31,32.29Zm-3.65,0H31a11.68,11.68,0,0,0,.33,2.59,12.4,12.4,0,0,0,3.38.49Zm-6.38,1.22A6.74,6.74,0,0,0,33,38.56a6.48,6.48,0,0,1-2-3.39A5.57,5.57,0,0,1,28.28,33.51Zm13.13,0a6.09,6.09,0,0,1-3.18,1.8,6.07,6.07,0,0,1-2.15,3.4A6.74,6.74,0,0,0,41.41,33.51Zm-3.58,1.9a13.56,13.56,0,0,1-2.81.32v3.06C36.23,38.55,37.26,37.25,37.83,35.41Zm-6.44-.12c.58,2,1.69,3.35,3,3.52h.29V35.73A13.12,13.12,0,0,1,31.39,35.29ZM27.24,23.93l.76.84-.1.09-.1.1h0l-.06.06h0l-.1.1-.26.27-.09.11h0l-.06.06h0l-.09.11-.24.3-.09.11h0l0,.07-.08.12c-.07.1-.15.2-.21.3l-.08.12h0l0,.08h0l-.07.12-.19.32-.07.13h0l0,.07h0l-.07.13-.17.34-.06.13h0l0,.08h0l-.06.13-.14.35-.05.14h0l0,.08h0l0,.14a3.58,3.58,0,0,0-.11.35l0,.14h0l0,.08h0l0,.14L25,30l0,.14h0l0,.08h0l0,.14-.06.37,0,.23h0v.15l0,.37v.23h0v.66h0v.23l0,.37v.15h0l0,.22c0,.13,0,.25.05.37l0,.15h0L25,34h0l0,.14c0,.13.05.25.08.37l0,.14h0l0,.08h0l0,.14c0,.12.07.24.11.36l0,.14h0l0,.08h0l0,.13a3.62,3.62,0,0,0,.13.35l.06.14h0l0,.08h0l.06.13c.05.11.1.22.16.33l.06.13h0l0,.08h0l.07.13.18.32.08.12h0l0,.08h0l.08.12.21.31.08.12h0l.05.07h0l.09.11.23.3.09.11h0l.05.06h0l.1.11c.08.09.16.19.25.28l.1.1h0l.06.06h0l.1.1c.07.08.15.14.22.21l-.79.87a2,2,0,0,0-.65-.2l0,0-.23-.25c-.08-.09-.16-.17-.23-.26l-.22-.27-.22-.27-.2-.28-.2-.29-.18-.29-.18-.29-.17-.31c-.06-.1-.11-.2-.16-.3L24.39,37c-.05-.11-.1-.21-.14-.32l-.13-.32A3.05,3.05,0,0,1,24,36l-.11-.33c0-.11-.07-.22-.1-.33L23.69,35l-.09-.34-.07-.34L23.47,34l0-.34c0-.12,0-.23,0-.35l0-.34c0-.12,0-.23,0-.35v-1c0-.11,0-.23,0-.34l0-.35c0-.11,0-.23,0-.34l0-.35.06-.34.08-.34c0-.11.05-.22.08-.33l.09-.34c0-.11.07-.22.1-.33L24,28.2l.12-.32.13-.32c.05-.11.1-.21.14-.32l.16-.31c.05-.1.1-.21.16-.31l.17-.3.18-.3.18-.29.2-.29.21-.28.21-.27.22-.27c.08-.08.15-.17.23-.26l.22-.23A1.76,1.76,0,0,0,27.24,23.93Zm15.32,0a1.74,1.74,0,0,0,.59.17l.12.12c.08.09.16.17.23.26l.23.27.22.27.2.27.2.28.2.29.18.3.17.3.17.3.15.31.15.31.13.32c0,.11.09.21.13.32l.12.33.11.33L46,29l.09.33.08.34.06.34.06.34c0,.12,0,.23,0,.35l0,.34,0,.35v.34c0,.12,0,.23,0,.34s0,.24,0,.35v.35l0,.34,0,.35c0,.11,0,.23,0,.34l-.06.34-.06.34-.08.34L46,35.2l-.1.33c0,.11-.07.22-.1.33l-.12.33c0,.1-.09.21-.13.32l-.14.32c0,.1-.09.21-.14.31l-.16.31-.17.31-.17.3-.18.29-.2.29a2.83,2.83,0,0,1-.2.28l-.21.28-.22.27-.22.26c-.08.09-.15.18-.23.26l-.16.17a1.73,1.73,0,0,0-.64.21l-.8-.89,0,0,.11-.1h0l.06-.06h0l.1-.1.26-.27.1-.11h0l0-.06h0l.1-.11c.08-.1.16-.19.23-.29l.09-.11h0l.05-.07h0l.08-.12.22-.3.08-.12h0l.05-.07h0l.07-.13c.07-.1.13-.21.2-.32l.07-.12h0l0-.08h0l.07-.13.17-.33.06-.13h0l0-.08h0l.06-.13.15-.35,0-.13h0l0-.08h0l0-.14c0-.12.08-.24.11-.36l0-.13h0l0-.09h0l0-.14.09-.36,0-.14h0l0-.08h0l0-.15.06-.37,0-.14h0v-.08h0l0-.15c0-.12,0-.24,0-.37v-.14h0v-.09h0v-.91h0l0-.22a2.43,2.43,0,0,0,0-.38V31h0v-.09h0l0-.14c0-.12,0-.25-.06-.37l0-.14h0l0-.08h0l0-.15c0-.12,0-.24-.08-.36l0-.14h0l0-.08h0l0-.14c0-.12-.07-.24-.11-.36l0-.13h0l0-.08h0l0-.13c0-.12-.09-.23-.14-.35l-.05-.13h0L44,28h0L44,27.89c-.05-.11-.1-.22-.16-.33l-.07-.13h0l0-.08h0l-.07-.12-.18-.33-.08-.12h0l0-.07h0l-.08-.12a3.46,3.46,0,0,0-.22-.31l-.08-.12h0l0-.07h0L42.79,26a3.25,3.25,0,0,0-.23-.29l-.09-.11h0l-.06-.07h0l-.1-.1c-.08-.1-.17-.19-.25-.28L42,25h0L41.9,25h0l-.11-.1,0,0Zm-7.71-1.07H35l.34,0,.34,0,.35,0,.33.05.34.06.34.08.33.09.33.1.32.11.32.13.32.14.31.14.3.17.3.17.29.18.29.19.27.21.27.21,0,0-1.56,1.66.1.08.26.23.09.08,1.55-1.65,0,0,.24.24.23.25.23.26.21.27.21.28a2.75,2.75,0,0,1,.19.28l.19.29.17.3.16.3.15.31.14.31c0,.1.09.21.13.32l.11.32c0,.11.07.22.1.33l.09.33c0,.11.06.22.08.33l.07.34c0,.11,0,.23,0,.34l0,.34,0,.35v.91l0,.34,0,.34,0,.34c0,.12,0,.23-.05.34l-.07.34-.09.33-.09.33c0,.11-.07.22-.11.33l-.12.32a3.05,3.05,0,0,1-.13.32l-.14.31a3,3,0,0,1-.16.31l-.16.3-.18.3-.19.29-.2.28-.21.27-.21.27-.23.25-.24.25-.25.24h0l-1.51-1.69-.09.07-.27.24-.09.07,1.52,1.7-.07.05-.27.21-.28.2-.28.19-.3.18-.3.16-.3.16-.31.14-.32.14-.32.12-.33.11-.33.09-.33.09-.34.07-.33.06-.34,0-.35,0-.34,0h-1l-.34,0-.34,0-.34-.05-.34-.07L32.52,41,32.19,41l-.33-.11-.32-.11-.32-.13-.32-.14-.31-.16-.3-.16L30,40l-.29-.18-.28-.2-.28-.21L29,39.26l1.53-1.68-.1-.08-.26-.23-.09-.07-1.53,1.68-.19-.19-.24-.24-.24-.26-.22-.26-.21-.27-.2-.28c-.07-.09-.13-.19-.19-.28l-.18-.3a2.14,2.14,0,0,1-.17-.3l-.16-.3c-.05-.1-.1-.21-.14-.31l-.14-.31-.12-.32-.11-.33c0-.11-.07-.22-.1-.33l-.09-.33c0-.11-.05-.22-.07-.34l-.06-.34c0-.11,0-.22,0-.34l0-.34c0-.11,0-.23,0-.34v-.69l0-.34c0-.12,0-.23,0-.34l0-.34.06-.34.06-.34c0-.11.05-.23.08-.34l.09-.33c0-.11.07-.22.1-.33l.12-.32c0-.11.08-.21.13-.32l.14-.31.15-.31.16-.31c.06-.1.11-.2.17-.29l.19-.29.19-.29.21-.27.22-.27.22-.26.24-.25.24-.24.08-.08,1.52,1.69.09-.08.27-.23.09-.08L29,25l.26-.2.28-.21.28-.19.29-.18.3-.17.31-.16.3-.15.32-.14.32-.12.32-.11.33-.1.33-.09.34-.08L33.3,23l.35-.05.34,0,.34,0,.34,0h.18Zm6.37,17,.79.88a1.75,1.75,0,0,0-.35.66l-.23.16-.29.2-.29.18-.3.18-.3.17-.31.15-.31.15-.32.14-.32.13-.32.12-.33.11-.33.1-.34.09-.34.08-.34.07-.34.06-.34,0-.34,0-.35,0-.35,0h-1l-.34,0-.35,0-.34,0-.34-.05-.34-.06-.34-.08-.34-.08-.33-.1-.33-.1-.33-.12-.32-.13-.32-.13-.32-.14-.31-.16-.31-.16L29,42a2.9,2.9,0,0,1-.29-.19l-.29-.19-.29-.2h0a1.72,1.72,0,0,0-.39-.73l.77-.85.17.15.12.08.07.06h0l.11.08.31.22.12.08h0l.07,0h0l.13.08.32.19.12.07h0l.08,0h0l.13.07.33.17.13.06h0l.08,0h0l.13.06.35.14.14,0h0l.08,0h0l.13,0,.36.11.14,0h0l.08,0h0l.14,0c.12,0,.24.06.37.09l.14,0h0l.08,0h0L33,42a2.38,2.38,0,0,0,.37.06l.15,0h.22l.38,0,.22,0h.9l.37,0H36l.37-.05.15,0h0l.08,0h0l.14,0,.37-.08.14,0h0l.08,0h0l.14,0,.36-.1.14-.05h0l.08,0h0l.13-.05.35-.13.14-.06h0l.08,0h0l.13-.06.34-.16.13-.06h0l.07,0h0l.13-.06.33-.19.12-.07h0l.07,0h0l.12-.08.32-.21.11-.08h0l.07-.05h0l.12-.08.3-.23Zm-6.14-20.1h-.65l-.23,0-.37,0H33.6l-.14,0-.37,0-.14,0h0l-.09,0h0l-.14,0-.36.07-.14,0h0l-.09,0h0l-.13,0-.36.09-.14,0h0l-.09,0h0l-.13,0-.36.11-.13.05h0l-.08,0h0l-.14.05-.34.13-.13.05h0l-.09,0h0l-.13.05-.34.16-.13.06h0l-.08,0h0l-.12.06-.33.18-.12.06h0l-.08.05h0l-.12.07-.32.19-.12.08h0l-.07.05h0l0,0a1.08,1.08,0,0,0-.08-.19,1.73,1.73,0,0,0-3.27.79,1.71,1.71,0,0,0,.73,1.4l.19.12-.14.15-.09.11h0l-.06.07h0l-.09.11c-.08.09-.15.19-.23.29l-.08.11h0l-.06.07h0l-.09.12-.21.31-.08.11h0l0,.08h0l-.08.12-.19.32L24.1,26h0l-.05.07h0l-.07.12c-.06.11-.12.22-.17.33l-.07.13h0l0,.07h0l-.06.12-.15.34-.06.13h0l0,.08h0l-.05.13a3.62,3.62,0,0,0-.13.35l-.05.13h0l0,.08h0l0,.14c0,.12-.08.23-.11.35l0,.14h0l0,.08h0l0,.14-.09.36,0,.14h0l0,.09h0l0,.13c0,.13-.05.25-.07.37l0,.14h0v.09h0l0,.14c0,.12,0,.24,0,.37l0,.14h0V31h0v.14c0,.13,0,.25,0,.37v.23h0v.66h0v.23c0,.12,0,.24,0,.37v.14h0l0,.23c0,.12,0,.24.05.37l0,.14h0V34h0l0,.14c0,.13.05.25.07.37l0,.14h0v.08h0l0,.14c0,.12.05.24.08.36l0,.14h0l0,.08h0l0,.14c0,.12.08.24.11.35l0,.14h0l0,.08,0,.14c.05.11.09.23.13.34l.06.13h0l0,.09h0l.06.13c0,.11.1.22.15.33l.06.13h0l0,.08h0l.06.13A3.24,3.24,0,0,0,24,38l.07.13h0l0,.08h0l.07.12.19.31.08.12h0l0,.07h0l.08.12.21.3.08.12h0l.06.07.08.11c.08.1.15.2.23.29l.09.11h0l.05.07h0l.09.11.19.21a1.2,1.2,0,0,0-.24.15,1.72,1.72,0,1,0,2.54,2.21,1.53,1.53,0,0,0,.11-.27l.08,0h0l.12.07.31.2.13.07h0l.07,0h0l.13.06.32.18.13.06.08,0h0l.13.06.34.16.13.06h0l.08,0h0l.13.05.35.14.13,0h0l.08,0h0l.14,0,.35.11.14,0h0l.08,0h0l.14,0,.36.09.14,0h0l.08,0h0l.14,0,.37.07.14,0h0l.08,0h0l.14,0,.37.05.14,0h.23l.37,0H35.3l.37,0H36l.37,0,.14,0h.09l.14,0,.37-.07.14,0h0l.08,0h0l.14,0,.36-.09.14,0h0l.08,0h0l.14,0,.35-.11.14,0,.08,0h0l.14-.05.35-.13.13-.05h0l.08,0h0l.13,0,.34-.15.13-.06h0l.08,0h0l.12-.06.33-.17.13-.07h0l.07,0h0l.13-.07.31-.19.12-.07h0l.07,0h0l.12-.08.09-.06a2.18,2.18,0,0,0,.11.27,1.73,1.73,0,0,0,3.26-.79,1.75,1.75,0,0,0-.73-1.42,2,2,0,0,0-.25-.14l0,0,.1-.11h0l.06-.07h0l.09-.11.24-.29.09-.11h0l0-.07h0l.08-.11.22-.3L45.1,39h0l0-.07h0l.07-.12c.07-.11.14-.21.2-.32l.07-.12h0l0-.08h0l.07-.12c.06-.11.12-.22.17-.33l.07-.12h0l0-.08h0L46,37.5a3.54,3.54,0,0,0,.16-.34l.06-.13h0l0-.08h0l.06-.13.13-.34,0-.14h0l0-.08h0l.05-.14.12-.35,0-.14h0l0-.09h0l0-.14.09-.35,0-.14h0l0-.09h0l0-.14c0-.12,0-.24.07-.36l0-.14h0l0-.09h0l0-.14c0-.12,0-.24.05-.37v-.14h0v-.08h0l0-.14c0-.13,0-.25,0-.37l0-.23h0v-.14c0-.13,0-.25,0-.38s0-.24,0-.36v-.14h0v-.09h0v-.14c0-.12,0-.25,0-.37l0-.14h0v-.09l0-.14c0-.12,0-.25-.05-.37l0-.14v-.08h0l0-.14c0-.13-.05-.25-.07-.37l0-.14h0l0-.08h0l0-.14c0-.12-.07-.24-.1-.36l0-.14h0l0-.08h0l0-.14-.12-.35,0-.13h0l0-.09-.05-.13c0-.11-.09-.23-.14-.34l0-.13h0l0-.09h0l-.06-.12L46,26.74l-.06-.13h0l0-.08h0l-.07-.13-.17-.33L45.55,26h0l0-.08h0l-.07-.12-.2-.31-.07-.12h0l0-.07h0L45,25.14l-.22-.3-.08-.12h0l0-.07h0l-.09-.11c-.07-.1-.15-.19-.23-.29l-.09-.11h0l-.06-.06h0L44.12,24l0,0,.19-.1a1.73,1.73,0,0,0-1-3.16,1.71,1.71,0,0,0-1.54,1,1.19,1.19,0,0,0-.08.2l-.1-.06-.11-.08h0l-.08-.05-.12-.07A3.37,3.37,0,0,0,41,21.4l-.12-.07h0l-.08,0h0l-.12-.06-.33-.17L40.19,21h0l-.08,0h0L40,20.89l-.34-.15-.13-.06h0l-.08,0h0l-.14,0-.35-.13-.13,0h0l-.08,0h0l-.14,0-.35-.11-.14,0h0l-.09,0h0l-.13,0-.36-.09-.14,0h0l-.09,0h0l-.14,0-.36-.07-.14,0h-.09l-.14,0-.37,0-.14,0h-.23l-.37,0h-.23ZM34.82,13a19,19,0,1,1-19,19A19,19,0,0,1,34.82,13Z"/></svg>