<svg id="图层_1" data-name="图层 1" xmlns="http://www.w3.org/2000/svg" xmlns:xlink="http://www.w3.org/1999/xlink" viewBox="0 0 160 64"><defs><style>.cls-1{fill:none;clip-rule:evenodd;}.cls-2{clip-path:url(#clip-path);}.cls-3{fill:#2b53c0;}.cls-3,.cls-4{fill-rule:evenodd;}.cls-4{fill:#020202;}</style><clipPath id="clip-path"><path class="cls-1" d="M-563.21,18.49a1,1,0,0,1,1.28-.8,1.93,1.93,0,0,1,1.43,2.42,5.92,5.92,0,0,1-.43-.8.78.78,0,0,0-.73-.58c-.26,0-.61.56-.62.88a7,7,0,0,1-.09,1.36c-.08-.56-.48-1.07-.2-1.68a1.7,1.7,0,0,0,.07-.68c0-.07-.11-.21-.16-.21a2.63,2.63,0,0,0-.55.09"/></clipPath></defs><title>icon</title><path class="cls-3" d="M33.46,20.87l3.93.26a2.69,2.69,0,0,0-.06.7A2.81,2.81,0,0,0,37.62,23l.09.17-.14-.24L34.91,24.4l-1.78-2.33a1.42,1.42,0,0,0,.36-1Zm-.56,1.42,1.74,2.26-3.57,2a2.73,2.73,0,0,0-.54-.34l-.2-.08,1.15-3.71a1.38,1.38,0,0,0,.64.11A1.41,1.41,0,0,0,32.9,22.29ZM43,22l5.87,2.5a1.81,1.81,0,0,0-.17,1.68l.06.14L46,28l-3.23-5.14A2.61,2.61,0,0,0,43,22Zm-5.24,1.13a2.82,2.82,0,0,0,2.55,1.38h-.15v.15h.31v-.16h-.15a2.84,2.84,0,0,0,2.28-1.35l3.13,5-3.2,1.91a2.81,2.81,0,0,0-3.73-.64l-3.66-4.78ZM48.9,26.6a1.78,1.78,0,0,0,1.51.71h.14l-.71,4.88h-.13a3,3,0,0,0-.79.16l-.18.07-2.61-4.15ZM34.83,24.8l3.68,4.81a2.75,2.75,0,0,0-.65.75l-.1.17,0-.16-.15,0-.07.3.12,0A2.87,2.87,0,0,0,37.45,32a1.76,1.76,0,0,0,.06.46l.05.22-5.29,2-1.66-3.3A2.83,2.83,0,0,0,31.46,27l-.14-.15ZM28.2,31.4h0a2.72,2.72,0,0,0,1.24.23,2.55,2.55,0,0,0,.68-.12l.22-.07,0,0L32,34.75l-4.51,1.72a1.9,1.9,0,0,0-.71-.75l-.16-.08Zm17.67-3,2.58,4.12A2.83,2.83,0,0,0,47,35.14a2.78,2.78,0,0,0,.46,1.42l.12.17-4.11,1.63-1.93-4A2.89,2.89,0,0,0,42.85,33l.08-.2-.07.18.15,0,.11-.29L43,32.7l0,.09a3,3,0,0,0,.17-1.09,2.78,2.78,0,0,0-.33-1.19l-.1-.18Zm-8.2,4.5a2.83,2.83,0,0,0,1.24,1.38l.19.1-.07.11.26.17.08-.14-.14-.09a2.7,2.7,0,0,0,1.17.2,2.84,2.84,0,0,0,.66-.1l.2-.07,1.93,4-5.52,2.19a1.76,1.76,0,0,0,0-.23,2.84,2.84,0,0,0-.77-1.82l-.14-.14.13.09.08-.14-.26-.16-.07.11a2.88,2.88,0,0,0-1.92-.64,3.09,3.09,0,0,0-.62.1l-.19.06-1.49-3-.3.12,1.49,3a2.84,2.84,0,0,0-1.41,1.54l-.06.18-4.59-1.81a1.91,1.91,0,0,0,.11-.72,1.35,1.35,0,0,0,0-.29l0-.15L32.12,35l.3-.12ZM47.8,37a2.26,2.26,0,0,0,.29.25l.15.12L46,41.74l-.1-.06a1.26,1.26,0,0,0-.73-.16l-.14,0-1.4-2.9Zm-4.47,1.78,1.39,2.88a1.21,1.21,0,0,0-.53.5,1.13,1.13,0,0,0-.14.36l0,.12-6.64-.81a3.19,3.19,0,0,0,.21-.59l0-.21Zm-2.9-19.83h-.17a2.87,2.87,0,0,0-2.53,1.8l-.06.17-4.15-.27a1.45,1.45,0,0,0-2.77.65,1.41,1.41,0,0,0,.48,1l.11.08-1.2,3.83a2.82,2.82,0,0,0-.83-.09,2.87,2.87,0,0,0-1.46,5.25l.16.1L26.38,35.8a1.82,1.82,0,0,1,.3.11,1.82,1.82,0,0,0-.3-.11,1.87,1.87,0,0,0-.53,0A1.82,1.82,0,1,0,26,39.38a1.77,1.77,0,0,0,1.4-.77l.08-.12,4.7,1.86a2.86,2.86,0,0,0,5.12,2.23l.1-.14,6.9.84a1.26,1.26,0,1,0,2.29-.87l-.08-.11,2.31-4.51a2.82,2.82,0,0,0,1.47.34,2.86,2.86,0,0,0,.37-5.68l-.17,0,.73-5a1.82,1.82,0,0,0-.64-3.55,1.86,1.86,0,0,0-1.1.44l-.12.12-6.13-2.61s0-.08,0-.12a2.87,2.87,0,0,0-2.66-2.73ZM38.86,13a19,19,0,1,1-19,19A19,19,0,0,1,38.86,13Z"/><path class="cls-4" d="M132.94,25.66h-3.67v4.45h3.86c1.68,0,2.53-.76,2.53-2.28S134.76,25.64,132.94,25.66Zm-20.91,0h-1.67v12.2h1.43q5.8.19,5.59-6.28.15-6-5.61-5.92Zm21.48,7.28h-4.24v5h4.22c1.95,0,2.91-.75,2.86-2.4S135.38,32.94,133.51,32.91Zm-21.64-9.68q9.5-.12,9.32,8.29.39,9.11-9,8.73h-5.53v-17Zm-22.41,0,3.23,12.15,3.24-12.15h5.72v17H98V26.82L94.33,40.27H91L87.37,26.82V40.27h-3.6v-17Zm44.55,0q5.38,0,5.44,4.18a3.68,3.68,0,0,1-2.74,3.88q3.31.95,3.42,4,.23,5.17-6.29,5h-8.28v-17ZM71.92,23q6.18.09,7.38,5.59H75.67a3.59,3.59,0,0,0-3.52-2.93c-2.9.17-4.39,2.24-4.49,6.22.18,3.48,2,5.32,5.29,5.52a8.25,8.25,0,0,0,5.84-2.87v3.55a8.66,8.66,0,0,1-6.62,2.48q-7.86-.44-8.31-8.87Q64.3,23.46,71.92,23Z"/></svg>