<svg id="图层_1" data-name="图层 1" xmlns="http://www.w3.org/2000/svg" viewBox="0 0 160 64"><defs><style>.cls-1{fill:#231916;}.cls-1,.cls-10,.cls-2,.cls-3,.cls-4,.cls-5,.cls-6,.cls-7,.cls-8,.cls-9{fill-rule:evenodd;}.cls-2{fill:#e8c49f;}.cls-3{fill:#585759;}.cls-4{fill:#5f96aa;}.cls-5{fill:#fefefe;}.cls-6{fill:#1f3d4d;}.cls-7{fill:#58595a;}.cls-8{fill:#d1cecc;}.cls-9{fill:#fff;}.cls-10{fill:#c01a25;}</style></defs><title>icon</title><path class="cls-1" d="M144,34.13a7.33,7.33,0,0,0-2.37-1.1,8.76,8.76,0,0,1-2.15-.85,1.14,1.14,0,0,1,.12-2,2.39,2.39,0,0,1,1.72-.12,3.47,3.47,0,0,1,2.22,2,.64.64,0,0,0,.89.41c0-.44,0-.88,0-1.31s-.07-.85-.08-1.28c0-.8,0-.8-.83-.72l-.18.48c-.68-.15-1.32-.32-2-.42a5.83,5.83,0,0,0-3.74.5A2.81,2.81,0,0,0,136,33a3,3,0,0,0,2.11,2.28c.93.36,1.9.63,2.84,1a1.53,1.53,0,0,1,1,1.26,1.39,1.39,0,0,1-.9,1.32,3.19,3.19,0,0,1-3.07-.69,5.35,5.35,0,0,1-1.63-2.29h-.67v3.68c1,0,.78.14,1.13-.59a1.46,1.46,0,0,1,.2.05,7,7,0,0,0,4.76.65,3.86,3.86,0,0,0,2.78-1.77c.14-.27.24-.56.36-.84V35.65A3.47,3.47,0,0,0,144,34.13Z"/><path class="cls-1" d="M112,38c-.38-.6-.81-1.16-1.21-1.75-.77-1.12-1.55-2.24-2.31-3.37a.39.39,0,0,1,0-.38,12.62,12.62,0,0,1,1.74-1.29c.81-.46,1.68-.8,2.53-1.2v-.54h-5.17v.63l.8.21c.53.13.64.44.28.85s-.62.63-.93.94l-2.25,2.16a2.4,2.4,0,0,1-.27.16v-.55q0-4.79,0-9.59c0-.38-.11-.51-.49-.49-1.16.08-2.33.12-3.49.19-.38,0-.76.06-1.14.09v.65l.43.12a1.42,1.42,0,0,1,1.38,1.61V37.51c0,.77-.24,1.05-1,1.17s-.61.1-.53.76h6.26c.1-.44.09-.71-.48-.82-.8-.15-1-.44-1-1.25,0-.44,0-.87,0-1.3s0-1,.66-1.19A1.1,1.1,0,0,1,106,35q1.35,2.07,2.67,4.15a.54.54,0,0,0,.51.29h4.41V38.7a.78.78,0,0,1-.22,0A1.84,1.84,0,0,1,112,38Z"/><path class="cls-1" d="M133,37.06c0-1.65,0-3.3,0-5a2.77,2.77,0,0,0-1.61-2.64,4,4,0,0,0-3.55.06A13.61,13.61,0,0,0,126,30.82c0-.36,0-.7,0-1s-.08-.51-.46-.48c-.62.05-1.23.07-1.85.09-.81,0-1.61.05-2.42.1-.11,0-.25.17-.3.3s0,.28,0,.45a1.86,1.86,0,0,1,.26,0c1.24.27,1.44.82,1.46,1.72,0,1.78,0,3.56,0,5.34a2.11,2.11,0,0,1-.15.83,1.07,1.07,0,0,1-1,.52c-.28,0-.4.1-.37.38,0,.11,0,.23,0,.37h6.15v-.71c-1-.18-1.32-.37-1.3-1.47,0-1.5,0-3,0-4.51a1.54,1.54,0,0,1,.6-1.38,2.45,2.45,0,0,1,2-.56c.64.11,1.12.95,1.12,1.88,0,1.65,0,3.3,0,5,0,.91-.34,1-1,1-.25,0-.35.1-.33.34s0,.28,0,.41h6v-.71C133.37,38.52,133,38.42,133,37.06Z"/><path class="cls-1" d="M98.12,37.7a2.07,2.07,0,0,1,0-.43c0-1.72,0-3.45,0-5.17a2.74,2.74,0,0,0-1.65-2.66,4.16,4.16,0,0,0-3.93.31,15.08,15.08,0,0,0-1.44,1.11c0-.4,0-.75,0-1.09s-.1-.49-.46-.47c-1.38.07-2.76.14-4.14.17-.34,0-.49.11-.44.45a2.8,2.8,0,0,1,0,.29c1.46.29,1.68.71,1.72,1.7.07,1.82,0,3.65,0,5.47,0,.83-.33,1.21-1,1.3s-.62.1-.48.75h6.1v-.71c-.89-.11-1.29-.43-1.29-1V32.21a.57.57,0,0,1,.11-.36,3.09,3.09,0,0,1,1.57-1.05,1.49,1.49,0,0,1,1.86.89,2.67,2.67,0,0,1,.19.87c0,1.74,0,3.47,0,5.21a.83.83,0,0,1-.76.91c-.6.08-.62.11-.47.76h6v-.73C98.56,38.6,98.3,38.41,98.12,37.7Z"/><path class="cls-1" d="M65.44,25.81l.64.11c.21,0,.41.11.62.18a1,1,0,0,1,.81,1.13c0,2.73,0,5.47,0,8.2a4.86,4.86,0,0,1-.36,2,2.28,2.28,0,0,1-2.65,1.4,2.92,2.92,0,0,1-.75-.45c.42-.41.75-.73,1.07-1.07a1.82,1.82,0,0,0,0-2.57,2.08,2.08,0,0,0-2.67,0,2.49,2.49,0,0,0-.56,2.69,3.16,3.16,0,0,0,2.23,2.15,6.26,6.26,0,0,0,3.27.15,5.15,5.15,0,0,0,2.85-1.5,4.7,4.7,0,0,0,1.22-3.32q0-3.95,0-7.9A.85.85,0,0,1,72,26c.36-.06.71-.14,1.07-.21v-.71H65.44Z"/><path class="cls-1" d="M84.48,36.53h0l.09.1c-.34.3-.71.56-1,.89A3.34,3.34,0,0,1,79,37.37a5.59,5.59,0,0,1-1-3.31h6.87c0-.38,0-.71,0-1a3.59,3.59,0,0,0-2.09-3.35,6.57,6.57,0,0,0-4.91-.21,4.92,4.92,0,0,0-2.4,1.71,5.59,5.59,0,0,0-.93,4.6,4.56,4.56,0,0,0,2.49,3.33,6.89,6.89,0,0,0,3.59.64,5.43,5.43,0,0,0,4-2C85.24,37,85.25,37,84.48,36.53Zm-6-5.57a1.48,1.48,0,0,1,1.51-1.05,1,1,0,0,1,1,.66,4.7,4.7,0,0,1,.4,2.61H78C78.12,32.42,78.21,31.67,78.43,31Z"/><path class="cls-1" d="M119.64,38.61c-.84-.18-1-.52-1-1.37,0-2.49,0-5,0-7.46,0-.36-.08-.51-.46-.48-.64.05-1.29.07-1.94.09s-1.61.05-2.41.1c-.11,0-.25.17-.31.3a1.27,1.27,0,0,0,0,.44l.6.12a1.48,1.48,0,0,1,1.22,1.39c0,1.94,0,3.88,0,5.81a1.05,1.05,0,0,1-1,1.13c-.66.07-.67.08-.53.75h6.33C120.26,39,120.16,38.72,119.64,38.61Z"/><path class="cls-1" d="M116.65,27.39a1.89,1.89,0,0,0,2-1.81,2,2,0,0,0-1.93-1.85,2,2,0,0,0-2.06,1.82A1.85,1.85,0,0,0,116.65,27.39Z"/><path class="cls-2" d="M46.62,9.57c.2,0,.32,0,.39,0a2.18,2.18,0,0,1,2.31.18,2.81,2.81,0,0,1,1.34,1.4A4.5,4.5,0,0,1,51,12.31a34.08,34.08,0,0,1,.26,6.06,21.26,21.26,0,0,1-.46,2.84,14.43,14.43,0,0,1-.59,2.35,20.42,20.42,0,0,1-1.31,2.9A19,19,0,0,1,47.14,29a4.83,4.83,0,0,1-1.19,1,19,19,0,0,1-1.91,1c-.41.18-.86.26-1.28.41a6.48,6.48,0,0,1-2.9.15,7.85,7.85,0,0,1-2.13-.83,7.91,7.91,0,0,1-2.65-2c-.57-.62-1.07-1.3-1.6-1.95a2.52,2.52,0,0,0-.64-.62,12,12,0,0,0,4.38,5.11,1.89,1.89,0,0,1-.47.06,2.32,2.32,0,0,0-1.89.66c0,.05-.14.05-.21.05a16.93,16.93,0,0,1-2-.2,4.5,4.5,0,0,1-2.91-1.58A12.66,12.66,0,0,1,28.63,28c-.28-.59-.51-1.2-.74-1.8a3,3,0,0,1,0-.43c-.07-.24-.14-.48-.23-.71a1.16,1.16,0,0,1,.32-1.11c.25-.27.45-.58.67-.86-.33-.48-.65-.21-.86-.07a2.07,2.07,0,0,1-3-.3,6.55,6.55,0,0,1-1.18-2.15,3.51,3.51,0,0,1-.12-1.78,2.59,2.59,0,0,1,1.37-2,2.53,2.53,0,0,1,2-.24,1.82,1.82,0,0,1,1,.95,7.64,7.64,0,0,1,.38,1.2.36.36,0,0,0,.25.23A1.71,1.71,0,0,0,30,18.61c.13-.13.1-.47.06-.69-.13-.75-.38-1.49-.44-2.24a11.7,11.7,0,0,1,.08-2.29c.09-.66.35-1.29.44-2A4.28,4.28,0,0,0,30,9,1.28,1.28,0,0,1,30.3,7.8a9.48,9.48,0,0,1,2.46-2.39c.74-.5,1.45-1.07,2.23-1.49A10.38,10.38,0,0,1,37.24,3a9.91,9.91,0,0,1,3.21-.12,11.25,11.25,0,0,1,2.64.67,17.34,17.34,0,0,1,2.1.84,6.75,6.75,0,0,1,2.48,2c.4.52.81,1,1.21,1.56a1.11,1.11,0,0,1,.12.27c-.13,0-.26.14-.37.12a1.61,1.61,0,0,0-1.52.46,5.16,5.16,0,0,0-.49.77m-4.22,12-.12.11c0,.21,0,.43,0,.64a1,1,0,0,0,1,1,14,14,0,0,0,1.57-.18,7.85,7.85,0,0,0,1.35-.34,13.33,13.33,0,0,0,1.47-.72,2.65,2.65,0,0,0,.95-.66A3.39,3.39,0,0,0,49,20.17c.11-.49-.3-.7-.58-1-.73-.79-1.43-1.6-2.09-2.43A7.38,7.38,0,0,1,44.7,14c0-.15-.21-.27-.39-.49a2,2,0,0,0,0,.32,11.12,11.12,0,0,0,.54,1.92,15.75,15.75,0,0,0,1.42,2.22c.5.68,1.08,1.3,1.6,2a1.27,1.27,0,0,1-.3,1.48,7.86,7.86,0,0,1-1.35.7,18.4,18.4,0,0,1-2.08.61,1.1,1.1,0,0,1-1.43-.82c0-.13-.18-.22-.28-.33M38.56,25l.56.71c.29.38.56.76.86,1.13C40.86,27.93,42.1,28,43.32,28a7.15,7.15,0,0,0,1.13-.16,2,2,0,0,0,1.45-.76,1.49,1.49,0,0,0-.44-.1,7.41,7.41,0,0,1-.8.07c-.94-.07-1.88-.17-2.81-.25a3.51,3.51,0,0,1-2.76-1.64c-.2-.31-.32-.15-.53-.11m1-1.28c1.49,1.65,3.41,1.8,5.42,1.71V24.28a21.36,21.36,0,0,1-5.42-.52M39.35,13c.09.27.16.48.24.69.2.53.42,1.06.62,1.59.09.24.29.6.2.72a1.09,1.09,0,0,1-.76.33,13.05,13.05,0,0,1-1.37-.23c-.16,0-.46.05-.48.14s-.16.54.19.66a6.57,6.57,0,0,0,1.29.38,4.66,4.66,0,0,0,1-.15,1,1,0,0,0,.8-1.54c-.08-.14-.22-.24-.31-.38L39.35,13m-5.12-.65c.83-1.68,2-2.83,4-2.47A.6.6,0,0,0,38,9.11a1.73,1.73,0,0,0-2,.05,3.65,3.65,0,0,0-1.74,1.77c-.18.41-.48.91,0,1.44M49.41,23l0-.11A2,2,0,0,0,49,23c-.34.16-.67.34-1,.49-.61.26-1.22.49-1.83.74-.12,0-.32.15-.32.23a6.77,6.77,0,0,0,.08,1,.39.39,0,0,0,.18,0,5,5,0,0,1,.66-.19,2.77,2.77,0,0,0,1.69-1c.34-.38.63-.82.94-1.23m-.06-9.85a2.67,2.67,0,0,0,.32,1.68,1.58,1.58,0,0,1,0,.65c0,.07-.27.11-.41.12l-1.2.1c-.29,0-.5.34-.33.52a1.49,1.49,0,0,0,.72.41A2.28,2.28,0,0,0,50,16.36c.53-.25.74-.62.53-1-.37-.74-.76-1.46-1.13-2.19M24.83,18.49a2.74,2.74,0,0,1,.55-.09c.06,0,.16.14.16.21a1.7,1.7,0,0,1-.07.68c-.28.61.12,1.12.21,1.68a7.84,7.84,0,0,0,.09-1.36c0-.32.36-.89.61-.88a.78.78,0,0,1,.74.58,5.74,5.74,0,0,0,.42.8,1.92,1.92,0,0,0-1.43-2.42,1,1,0,0,0-1.28.8"/><path class="cls-3" d="M29.11,17.9a3,3,0,0,0-1.8-2.31c-1.72-.33-1.72-.33-2.8.27a5.52,5.52,0,0,1-.2-2.93,3.73,3.73,0,0,0,.12-.58,2.94,2.94,0,0,1,1.18-2,5.83,5.83,0,0,1,1.85-1.09A7.53,7.53,0,0,1,28.85,9a.44.44,0,0,1,.56.42,14.16,14.16,0,0,1-.21,2.9,14.37,14.37,0,0,0-.28,3.15,6.44,6.44,0,0,0,.39,1.49,1.9,1.9,0,0,1,.09.62c0,.13-.19.23-.29.35"/><path class="cls-4" d="M43.58,43.69c-.8-.31-1.6-.62-2.4-.95s-1.34-.55-2-.85A9,9,0,0,1,38,41.23a.64.64,0,0,1-.21-1,5.66,5.66,0,0,1,1.66-1.75,11.83,11.83,0,0,1,1-.71.47.47,0,0,1,.43.12,11.09,11.09,0,0,1,1.34,2.28c.28.68.68,1.32,1,2,.2.44.31.92.47,1.38Z"/><path class="cls-5" d="M44.69,43.26c-.49-.16-.49-.66-.67-1-.65-1.33-1.26-2.69-1.9-4-.14-.28-.37-.52-.53-.8s-.19-.36-.14-.43a1.18,1.18,0,0,1,.53-.38c.35-.14.73-.18,1.08-.33a.6.6,0,0,1,.63,0c.31.21.62.41.94.6a.36.36,0,0,0,.2,0c.43-.06.52.15.5.53s0,1,0,1.56c-.07,1.08-.15,2.16-.27,3.23a4.64,4.64,0,0,1-.36,1m0-3.16c-.25-.14-.39-.29-.48-.27s-.26.19-.39.3c.12.12.22.32.36.34s.26-.17.51-.37m-.56-1.93,0-.14a3.63,3.63,0,0,0-.51-.28s-.19.15-.18.22a1.82,1.82,0,0,0,.17.44l.48-.24"/><path class="cls-6" d="M38.85,43c-.67-.35-1.36-.67-2-1.05a1,1,0,0,1-.38-.67c-.07-.57.38-.93.7-1.39l-.37,0c-.38,0-.79.06-1-.37s-.31-.72-.47-1.09a10.74,10.74,0,0,1-.79-2.68,1.24,1.24,0,0,0-.35-.79c-.66-.41-1.4-.7-2.08-1.08a15.46,15.46,0,0,1-1.72-1.08c-.24-.17-.36-.49-.57-.72-.37-.42-.74-.83-1.14-1.22a.57.57,0,0,0-.46-.16,9.45,9.45,0,0,0-1.25.58c-.54.3-1.06.63-1.59,1s-1.27.73-1.88,1.14-1.35,1-2,1.48a.92.92,0,0,0-.35,1,7.69,7.69,0,0,1,.77,2c.07.29.21.57.3.86.16.53.32,1.06.47,1.6s.23.92.33,1.39c.16.67.33,1.34.44,2,.15.89.24,1.8.35,2.7q.1.91.18,1.83c.07.87.1,1.74.19,2.61a.59.59,0,0,0,.32.42c.48.22,1,.34,1.49.6a17.68,17.68,0,0,0,4,1.73,5.67,5.67,0,0,0,2,.28,3.07,3.07,0,0,0,0-.43c-.14-.84-.3-1.68-.42-2.53a10.11,10.11,0,0,0-.12-1.36,5.63,5.63,0,0,1-.15-2.48.73.73,0,0,0-.62-.91c-.21,0-.44,0-.66,0-.6-.11-1.27.42-1.81-.21a1.91,1.91,0,0,1,.37-.38,4.09,4.09,0,0,1,.56-.18c.33-.13.46-.29.16-.62a.67.67,0,0,1,.08-1l1.29.82c.11-.25.28-.44.27-.62a32.81,32.81,0,0,0-.19-3.29A3.05,3.05,0,0,1,31,39.12c0-.1.29-.15.44-.15s.17.21.17.33c0,.27-.07.53-.07.8,0,1.47,0,2.93,0,4.39,0,.38.19.58.55.52s.52-.2.78-.24a9.26,9.26,0,0,0,1.41-.11,9.17,9.17,0,0,1,2.55-.25l.35,0c.69-.07,1.38-.17,2.07-.21s1.23,0,1.85,0a7.7,7.7,0,0,0-1-.47C39.67,43.5,39.27,43.25,38.85,43Z"/><path class="cls-6" d="M52.24,33.31a2.91,2.91,0,0,0-1.06-1.17c-.78-.66-1.5-1.39-2.23-2.11-.53-.53-.57-.55-1.14-.11-.25.2-.48.43-.73.65,1,.13,1.36.82,1.7,1.51a4.27,4.27,0,0,1,.27,2.13,4.82,4.82,0,0,1-.23,2.06.73.73,0,0,0,.16.82,6.84,6.84,0,0,1,.53.73l-3.66,6.06c.08,0,.13.1.18.1a19.23,19.23,0,0,0,2.15-.11,1.1,1.1,0,0,0,1-.74c.14-.46.34-.9.52-1.36.4-1,.86-2,1.2-3s.59-2.13.88-3.2c0-.14,0-.29.06-.42.15-.44.33-.87.46-1.32A1,1,0,0,0,52.24,33.31Z"/><path class="cls-6" d="M46.64,47.11a2.8,2.8,0,0,0-.36-1.57h-.72c-.67,0-1,.32-.93,1s.21,1.26.24,1.89c.07,1.26.09,2.52.13,3.89L46.9,52c.07,0,.15-.15.15-.23,0-.46-.13-.92-.17-1.39C46.79,49.26,46.68,48.19,46.64,47.11Z"/><path class="cls-7" d="M26.25,8.51c1.58-2.54,4-3.73,6.69-4.62L33,4l.28.33a3.68,3.68,0,0,1-.44.34A6.8,6.8,0,0,0,31,6c-.38.49-.7,1-1,1.54a.84.84,0,0,1-.92.49,2.84,2.84,0,0,0-1.71.4,1.46,1.46,0,0,1-1.09.08"/><path class="cls-4" d="M45.27,43.19a25.8,25.8,0,0,1,.33-2.73,18.13,18.13,0,0,0,.27-3c0-.18.33-.43.54-.48a2,2,0,0,1,2,.79.62.62,0,0,1,.08.53,11.74,11.74,0,0,1-.66,1.27c-.38.64-.78,1.27-1.17,1.91s-.7,1.13-1.07,1.69c0,.06-.2,0-.29,0"/><path class="cls-5" d="M44.55,56.37c0-.87,0-1.74,0-2.61-.11-1.71-.29-3.41-.42-5.12-.06-.79,0-1.58-.11-2.37,0-.25-.25-.65-.45-.69a8.69,8.69,0,0,0-2.15-.28,23,23,0,0,0-4.39.14c-.79.16-1.61.18-2.42.28l-2.88.37c0,.32,0,.63.05.94.14,1.08.28,2.17.44,3.24s.34,2.12.52,3.17c.11.67.2,1.34.36,2,.21.85.48,1.69.72,2.53s.37,1.4.59,2.1a.67.67,0,0,0,.36.38,9,9,0,0,0,1.61.46c1,.14,2,.2,2.94.27a13.64,13.64,0,0,0,1.43,0A7.83,7.83,0,0,0,43,61c.51-.17,1.07-.23,1.59-.37a.36.36,0,0,0,.24-.27c0-.45,0-.91-.08-1.37C44.71,58.12,44.59,57.25,44.55,56.37Z"/><path class="cls-5" d="M57.26,47.38c-.15-.86-.5-1.68-.71-2.53a2.09,2.09,0,0,0-.89-1.33,1.38,1.38,0,0,0-1.54-.15,13.55,13.55,0,0,1-2,.86,4.58,4.58,0,0,0-1.83.88.78.78,0,0,0-.22.59c.1.61.31,1.2.4,1.8.13.87.2,1.75.27,2.63a.59.59,0,0,0,.77.6,7.43,7.43,0,0,1,3.35,0l-2.24.62c.09.12.1.16.12.16a.47.47,0,0,0,.2.06c.71,0,1.42,0,2.13,0a2.09,2.09,0,0,0,1.77-.91A3.69,3.69,0,0,0,57.26,47.38Zm-5.66-1.2a2.57,2.57,0,0,1,1.8-.88l.06.14-1.77.91Zm2.75.74c-.7,0-1.4.37-2.1,0Zm-2,1.64c.86-.51,1.66,0,2.46,0Z"/><path class="cls-5" d="M49.85,48.09a6.05,6.05,0,0,0-.61-2.33c-.09-.17-.23-.43-.38-.45a5.17,5.17,0,0,0-1.11,0s-.08.09-.08.14a5.06,5.06,0,0,0,0,.78c.13.74.29,1.46.42,2.2s.16,1.32.28,2,.16.74,1,.58a.27.27,0,0,1,.09,0c.37-.08.62-.24.59-.68,0-.24,0-.49,0-.73l.08,0C50,49.09,49.9,48.59,49.85,48.09Z"/><path class="cls-8" d="M45,56.62V54c0-.51.11-.62.63-.63h.22c.64-.11.74,0,.82.69s.35,1.47.47,2.21a9.5,9.5,0,0,1,0,1.51c0,.07-.12.17-.2.19a11,11,0,0,1-1.37.35c-.32,0-.5-.18-.5-.51s0-.78,0-1.17H45"/><path class="cls-4" d="M34.31,33.83a10,10,0,0,1-1.2-.3c-.45-.18-.87-.47-1.32-.68s-.41-.46-.34-.9c.21.06.4.14.59.18s.5.09.75.13c.48.06,1,.09,1.44.17s.51.28.36.7l-.14.35-.14.35"/><path class="cls-9" d="M40.1,32.29a6.17,6.17,0,0,0,1.32.12c.68-.07,1.35-.27,2-.38a5.51,5.51,0,0,1,.91,0,3.73,3.73,0,0,1-1.6,1.28c-1.28.13-2.44-.43-2.65-1"/><path class="cls-10" d="M26.56,25.24a.55.55,0,0,0-.51-.52A3.61,3.61,0,0,1,24,23.44a4.51,4.51,0,0,1-1.09-2.14c-.11-.65-.33-1.28-.39-1.93a10.88,10.88,0,0,1,.14-1.48,2.42,2.42,0,0,1,.51-1.31A1.12,1.12,0,0,0,23,15.23c-.63.66-1.31,1.28-1.88,2a31.34,31.34,0,0,0-1.81,2.58,17.53,17.53,0,0,0-1.07,1.95,16.25,16.25,0,0,0-.71,1.79c-.22.62-.43,1.24-.6,1.87s-.24,1.13-.34,1.7a11.48,11.48,0,0,0-.26,1.84,14.53,14.53,0,0,0,0,3.23c.16.8.19,1.63.28,2.44a6.93,6.93,0,0,0,.12,1c.14.52.32,1,.48,1.56s.32,1.21.56,1.79a21,21,0,0,0,1,2.08,22.42,22.42,0,0,0,1.37,2.32c.62.85,1.34,1.63,2,2.43a2.31,2.31,0,0,0,.45.29l.12-.1a5.61,5.61,0,0,1-.21-1,26.83,26.83,0,0,0-.63-3.45,6.1,6.1,0,0,0-.31-.91c-.24-.57-.49-1.14-.72-1.72s-.48-1.27-.69-1.91c-.15-.43-.24-.87-.36-1.31,0-.11,0-.22-.08-.33A1.07,1.07,0,0,1,20,34.15c.85-.56,1.71-1.1,2.58-1.63l2.32-1.36c.81-.48,1.61-1,2.43-1.46a1,1,0,0,0,.38-1.61A6.21,6.21,0,0,1,26.56,25.24Z"/><path class="cls-10" d="M57.4,26.81c-.07-.3-.08-.62-.16-.92-.13-.46-.29-.91-.44-1.36A24.73,24.73,0,0,0,56,22.11a21.29,21.29,0,0,0-2-3.56c-.51-.72-1.09-1.39-1.72-2.19A3.6,3.6,0,0,0,52,17c-.07.87-.13,1.74-.19,2.61a.88.88,0,0,1,0,.17c-.17.76-.32,1.52-.5,2.28s-.37,1.38-.5,2.08a13.33,13.33,0,0,1-1.49,3.47,1.1,1.1,0,0,0,0,.89,3.83,3.83,0,0,0,.83.93c.85.75,1.74,1.45,2.59,2.21a1.67,1.67,0,0,1,.66,1.59c-.06.38-.06.77-.14,1.14s-.26.74-.38,1.12-.23.92-.37,1.38-.29.7-.41,1.06c-.25.77-.47,1.55-.71,2.32-.1.3-.23.58-.33.87-.25.71-.5,1.42-.74,2.14a.26.26,0,0,0,0,.23.21.21,0,0,0,.2.06c.36-.11.71-.23,1-.37a7.74,7.74,0,0,1,2.21-.72c.4,0,.87-.08,1.09-.51.48-.91,1-1.82,1.39-2.75a15.36,15.36,0,0,0,.62-1.92c.24-.86.5-1.72.68-2.6a12,12,0,0,0,.26-2.16A21.12,21.12,0,0,0,57.4,26.81Z"/><path class="cls-10" d="M40.79,35.11a1.39,1.39,0,0,1-.38-.12c.23-.35.89-.18.9-.79a15.88,15.88,0,0,1-1.44-.68,9.53,9.53,0,0,0-3.31-1.27,1.12,1.12,0,0,0-1.4,1.14c0,.78,0,1.56,0,2.34a5.36,5.36,0,0,0,.29,1.18c.14.44.35.87.48,1.31a.77.77,0,0,0,1,.6,9.65,9.65,0,0,0,1.17-.32,5,5,0,0,0,1.18-.58c.6-.43,1.14-1,1.75-1.39a.87.87,0,0,0,.34-1C41.36,35.24,41.1,35.12,40.79,35.11Z"/><path class="cls-10" d="M46.62,31.86a12,12,0,0,0-2.72,1.53.46.46,0,0,0-.06.42c.13.3.23.65.71.62-.92.25-.37,1-.59,1.5.48.09.91.15,1.31.26a6.41,6.41,0,0,0,2.38.22.76.76,0,0,0,.52-.42,3.44,3.44,0,0,0,.1-1.06,9.52,9.52,0,0,0-.36-2.43A1.07,1.07,0,0,0,46.62,31.86Z"/><path class="cls-10" d="M42.58,33.82c-.7,0-1,.42-.78,1a1.47,1.47,0,0,1,.12.49c0,.27.13.37.35.37a1.9,1.9,0,0,0,.76-.11c.15-.07.24-.31.33-.49A1,1,0,0,0,42.58,33.82Z"/><path class="cls-1" d="M24.83,18.49a1,1,0,0,1,1.28-.8,1.92,1.92,0,0,1,1.43,2.42,5.74,5.74,0,0,1-.42-.8.78.78,0,0,0-.74-.58c-.25,0-.61.56-.61.88A7.84,7.84,0,0,1,25.68,21c-.09-.56-.49-1.07-.21-1.68a1.7,1.7,0,0,0,.07-.68c0-.07-.1-.21-.16-.21a2.74,2.74,0,0,0-.55.09"/><path class="cls-1" d="M43.24,23.31a14,14,0,0,0,1.57-.18,7.85,7.85,0,0,0,1.35-.34,13.33,13.33,0,0,0,1.47-.72,2.65,2.65,0,0,0,.95-.66A3.39,3.39,0,0,0,49,20.17c.11-.49-.3-.7-.58-1-.73-.79-1.43-1.6-2.09-2.43A7.38,7.38,0,0,1,44.7,14c0-.15-.21-.27-.39-.49a2,2,0,0,0,0,.32,10.3,10.3,0,0,0,.54,1.92,15.75,15.75,0,0,0,1.42,2.22c.5.68,1.08,1.3,1.6,2a1.27,1.27,0,0,1-.3,1.48,7.86,7.86,0,0,1-1.35.7,18.4,18.4,0,0,1-2.08.61,1.1,1.1,0,0,1-1.43-.82,1.23,1.23,0,0,0-.28-.33l-.12.11c0,.21,0,.43,0,.65A1,1,0,0,0,43.24,23.31Z"/><path class="cls-1" d="M39.65,16.35a13.05,13.05,0,0,1-1.37-.23c-.16,0-.46.05-.48.14s-.16.54.19.66a6.57,6.57,0,0,0,1.29.38,4.66,4.66,0,0,0,1-.15,1,1,0,0,0,.8-1.54c-.08-.14-.22-.24-.31-.38L39.35,13c.09.27.16.48.24.69.2.53.42,1.06.62,1.59.09.24.29.6.2.72A1.09,1.09,0,0,1,39.65,16.35Z"/><path class="cls-1" d="M48.49,16.61A2.28,2.28,0,0,0,50,16.36c.53-.25.74-.62.53-1-.37-.74-.76-1.46-1.13-2.19a2.67,2.67,0,0,0,.32,1.68,1.58,1.58,0,0,1,0,.65c0,.07-.27.11-.41.12-.4.05-.8.06-1.2.1s-.5.34-.33.52A1.49,1.49,0,0,0,48.49,16.61Z"/><path class="cls-1" d="M38.22,9.9A.6.6,0,0,0,38,9.11a1.73,1.73,0,0,0-2,.05,3.65,3.65,0,0,0-1.74,1.77c-.18.41-.48.91,0,1.44C35.06,10.69,36.19,9.54,38.22,9.9Z"/><path class="cls-1" d="M44.66,27c-.94-.07-1.88-.17-2.81-.25a3.49,3.49,0,0,1-2.76-1.64c-.2-.31-.32-.15-.53-.11l.56.71c.29.38.56.76.86,1.13C40.86,27.93,42.1,28,43.32,28a7.15,7.15,0,0,0,1.13-.16,2,2,0,0,0,1.45-.76,1.49,1.49,0,0,0-.44-.1A7.41,7.41,0,0,1,44.66,27Z"/><path class="cls-1" d="M45,25.47V24.28a21.36,21.36,0,0,1-5.42-.52C41.09,25.41,43,25.56,45,25.47Z"/><path class="cls-1" d="M49,23c-.34.16-.67.34-1,.49-.61.26-1.22.49-1.83.74-.12,0-.32.15-.32.23a6.77,6.77,0,0,0,.08,1,.39.39,0,0,0,.18,0,5,5,0,0,1,.66-.19,2.77,2.77,0,0,0,1.69-1c.34-.38.63-.82.94-1.23l0-.11A2,2,0,0,0,49,23Z"/><path class="cls-1" d="M57,40.23c.24-.52.43-1.07.63-1.61s.3-.85.42-1.28.18-.92.28-1.37a16.77,16.77,0,0,0,.4-1.81c.11-1.12.16-2.26.18-3.39a19.49,19.49,0,0,0-.08-2c0-.48-.13-1-.21-1.43s-.2-1-.31-1.53-.2-1-.36-1.53-.44-1.19-.68-1.78-.58-1.45-1-2.14A21.81,21.81,0,0,0,55,18.08c-.62-.86-1.3-1.67-2-2.48a11.36,11.36,0,0,1-.85-.85,2.64,2.64,0,0,1-.3-1c-.13-.87-.16-1.75-.34-2.61A13.65,13.65,0,0,0,50.79,9a7,7,0,0,0-.9-1.76,23,23,0,0,0-2.37-2.56,17.79,17.79,0,0,0-2.33-1.73,5.73,5.73,0,0,0-1.41-.61A10.1,10.1,0,0,0,42.43,2a16.3,16.3,0,0,0-2.37-.4,13.39,13.39,0,0,0-2.75.11A16,16,0,0,0,35,2.12c-.87.28-1.7.71-2.58.94A14,14,0,0,0,30,4.28a14.35,14.35,0,0,0-2.4,1.5,8,8,0,0,0-1.48,1.49,7.35,7.35,0,0,0-.66,1.35c-.08.15-.14.38-.28.44a3,3,0,0,0-1.49,1.76,5,5,0,0,0-.47,2.1A1.3,1.3,0,0,1,22.63,14c-.17.13-.35.28-.51.43A20.76,20.76,0,0,0,18.45,19c-.56,1-1.08,2-1.54,3a19.84,19.84,0,0,0-.8,2.28c-.25.83-.48,1.67-.68,2.51-.08.37-.06.77-.11,1.15a13.55,13.55,0,0,0-.23,1.42,31.62,31.62,0,0,0,.25,5.5l0,.16c.25,1,.49,1.93.76,2.89a13.28,13.28,0,0,0,.61,1.74c.27.62.61,1.21.93,1.8s.78,1.46,1.23,2.15a17,17,0,0,0,1.37,1.79c.69.79,1.42,1.54,2.15,2.3a1.37,1.37,0,0,1,.48,1c0,.78,0,1.56,0,2.34a1.66,1.66,0,0,0,.64,1.43,7,7,0,0,0,1.28.56l1.93.86c.7.32,1.39.69,2.12.94a8.94,8.94,0,0,0,2.78.39.61.61,0,0,1,.43.3,7.29,7.29,0,0,1,.29,1c.25.85.52,1.7.78,2.55a10.47,10.47,0,0,0,.53,1.58c.19.38.09.92.8,1.07a13.44,13.44,0,0,0,3,.47,4.27,4.27,0,0,1,.85.17H41a3.38,3.38,0,0,1,.68-.17A12.14,12.14,0,0,0,44.46,62a1.6,1.6,0,0,0,1.38-1.58,5.35,5.35,0,0,1-.05-.55c0-.17.08-.42.2-.48a3.56,3.56,0,0,1,.91-.28,1.52,1.52,0,0,0,1.23-1.84c-.15-.66-.35-1.31-.45-2a12.67,12.67,0,0,1-.09-1.85.52.52,0,0,1,.22-.35c.41-.23.83-.44.85-1a.33.33,0,0,1,.16-.24,3.26,3.26,0,0,1,.85-.28,11.69,11.69,0,0,1,1.67-.09,1.36,1.36,0,0,1,.54.24c.29.17.56.47.87.51a15.35,15.35,0,0,0,2.71.08,2.37,2.37,0,0,0,2.13-1.2,6.18,6.18,0,0,0,.78-2.79A7.36,7.36,0,0,0,58,46a17.81,17.81,0,0,0-.67-1.8,2.45,2.45,0,0,0-1.08-1.5c-.25-.13-.29-.32-.1-.63A16,16,0,0,0,57,40.23ZM32.94,3.89,33,4l.28.33a3.68,3.68,0,0,1-.44.34A6.8,6.8,0,0,0,31,6c-.38.49-.7,1-1,1.54a.84.84,0,0,1-.92.49,2.84,2.84,0,0,0-1.71.4,1.46,1.46,0,0,1-1.09.08C27.83,6,30.26,4.78,32.94,3.89Zm-8.63,9a3.73,3.73,0,0,0,.12-.58,2.94,2.94,0,0,1,1.18-2,5.83,5.83,0,0,1,1.85-1.09A7.53,7.53,0,0,1,28.85,9a.44.44,0,0,1,.56.42,14.16,14.16,0,0,1-.21,2.9,14.37,14.37,0,0,0-.28,3.15,6.44,6.44,0,0,0,.39,1.49,1.9,1.9,0,0,1,.09.62c0,.13-.19.23-.29.35a3,3,0,0,0-1.8-2.31c-1.72-.33-1.72-.33-2.8.27A5.52,5.52,0,0,1,24.31,12.93Zm-.86,5.83a2.59,2.59,0,0,1,1.37-2,2.53,2.53,0,0,1,2-.24,1.82,1.82,0,0,1,1,.95,7.64,7.64,0,0,1,.38,1.2.36.36,0,0,0,.25.23A1.71,1.71,0,0,0,30,18.61c.13-.13.1-.47.06-.69-.13-.75-.38-1.49-.44-2.24a11.7,11.7,0,0,1,.08-2.29c.09-.66.35-1.29.44-2A4.28,4.28,0,0,0,30,9,1.28,1.28,0,0,1,30.3,7.8a9.68,9.68,0,0,1,2.46-2.4c.74-.49,1.45-1.06,2.23-1.48A10.38,10.38,0,0,1,37.24,3a9.91,9.91,0,0,1,3.21-.12,11.25,11.25,0,0,1,2.64.67,17.34,17.34,0,0,1,2.1.84,6.75,6.75,0,0,1,2.48,2c.4.52.81,1,1.21,1.56a1.11,1.11,0,0,1,.12.27c-.13,0-.26.14-.37.12a1.61,1.61,0,0,0-1.52.46,5.16,5.16,0,0,0-.49.77c.2,0,.32,0,.39,0a2.18,2.18,0,0,1,2.31.18,2.81,2.81,0,0,1,1.34,1.4A4.5,4.5,0,0,1,51,12.31a34.08,34.08,0,0,1,.26,6.06,21.26,21.26,0,0,1-.46,2.84,14.43,14.43,0,0,1-.59,2.35,20.42,20.42,0,0,1-1.31,2.9A19,19,0,0,1,47.14,29a4.83,4.83,0,0,1-1.19,1,18.16,18.16,0,0,1-1.92,1c-.4.18-.85.26-1.27.41a6.48,6.48,0,0,1-2.9.15,7.85,7.85,0,0,1-2.13-.83,8,8,0,0,1-2.65-2c-.57-.62-1.07-1.3-1.6-1.95a2.52,2.52,0,0,0-.64-.62,12,12,0,0,0,4.38,5.11,1.89,1.89,0,0,1-.47.06,2.32,2.32,0,0,0-1.89.66c0,.05-.14.05-.21.05a16.93,16.93,0,0,1-2-.2,4.5,4.5,0,0,1-2.91-1.58A12.66,12.66,0,0,1,28.63,28c-.28-.59-.51-1.2-.74-1.8a3,3,0,0,1,0-.43c-.07-.24-.14-.48-.23-.71a1.18,1.18,0,0,1,.32-1.12c.25-.26.45-.57.67-.85-.33-.48-.65-.21-.86-.07a2.07,2.07,0,0,1-3-.3,6.55,6.55,0,0,1-1.18-2.15A3.41,3.41,0,0,1,23.45,18.76ZM42.75,33.3c-1.28.13-2.44-.43-2.65-1a6.17,6.17,0,0,0,1.32.12c.68-.07,1.35-.27,2-.38a5.51,5.51,0,0,1,.91,0A3.73,3.73,0,0,1,42.75,33.3Zm.61,1.83c-.09.18-.18.42-.33.49a1.9,1.9,0,0,1-.76.11c-.22,0-.36-.1-.35-.37a1.47,1.47,0,0,0-.12-.49c-.23-.63.08-1,.78-1A1,1,0,0,1,43.36,35.13Zm-2-.93c0,.61-.67.44-.9.79a1.39,1.39,0,0,0,.38.12c.31,0,.57.13.61.44a.87.87,0,0,1-.34,1c-.61.42-1.15,1-1.75,1.39a5,5,0,0,1-1.18.58,9.65,9.65,0,0,1-1.17.32.77.77,0,0,1-1-.6c-.13-.44-.34-.87-.48-1.31a5.36,5.36,0,0,1-.29-1.18c0-.78,0-1.56,0-2.34a1.11,1.11,0,0,1,1.4-1.14,9.33,9.33,0,0,1,3.31,1.27A15.88,15.88,0,0,0,41.31,34.2ZM37.8,40.26a5.66,5.66,0,0,1,1.66-1.75,11.83,11.83,0,0,1,1-.71.47.47,0,0,1,.43.12,11.29,11.29,0,0,1,1.34,2.27c.28.69.68,1.33,1,2,.2.44.31.92.47,1.38l-.09.11c-.8-.32-1.6-.62-2.4-.95s-1.34-.55-2-.85A9,9,0,0,1,38,41.23.64.64,0,0,1,37.8,40.26Zm4.32-2c-.14-.28-.37-.52-.53-.8s-.19-.36-.14-.43a1.18,1.18,0,0,1,.53-.38c.35-.14.73-.18,1.08-.33a.6.6,0,0,1,.63,0c.31.21.62.41.94.6a.36.36,0,0,0,.2,0c.43-.06.52.15.5.53s0,1,0,1.56c-.07,1.08-.15,2.16-.27,3.23a4.64,4.64,0,0,1-.36,1c-.49-.16-.49-.66-.67-1C43.37,40.92,42.76,39.56,42.12,38.22Zm3.48,2.24a18.13,18.13,0,0,0,.27-3c0-.18.33-.43.54-.48a2,2,0,0,1,2,.79.62.62,0,0,1,.08.53,11.74,11.74,0,0,1-.66,1.27c-.38.64-.78,1.27-1.17,1.91s-.7,1.13-1.07,1.69c0,.06-.2,0-.29,0A25.8,25.8,0,0,1,45.6,40.46ZM48.17,36a.76.76,0,0,1-.52.42,6.41,6.41,0,0,1-2.38-.22c-.41-.11-.83-.17-1.31-.26.22-.55-.33-1.25.59-1.5-.48,0-.58-.32-.71-.62a.46.46,0,0,1,.06-.42,12,12,0,0,1,2.72-1.53,1.07,1.07,0,0,1,1.29.64,9.52,9.52,0,0,1,.36,2.43A3.44,3.44,0,0,1,48.17,36ZM34.59,33.13l-.14.35-.14.35a10,10,0,0,1-1.2-.3c-.45-.18-.87-.47-1.32-.68s-.41-.46-.34-.9c.21.06.4.14.59.18s.5.09.75.13c.48.06,1,.09,1.44.17S34.74,32.71,34.59,33.13Zm-12,13a2.31,2.31,0,0,1-.45-.29c-.68-.8-1.4-1.58-2-2.44a21.28,21.28,0,0,1-1.37-2.31,21,21,0,0,1-1-2.08c-.24-.58-.37-1.19-.56-1.8s-.34-1-.48-1.55a6.93,6.93,0,0,1-.12-1c-.09-.81-.12-1.64-.28-2.44a14.53,14.53,0,0,1,0-3.23,11.48,11.48,0,0,1,.26-1.84c.1-.57.19-1.14.34-1.7s.38-1.25.6-1.87a16.25,16.25,0,0,1,.71-1.79,18.61,18.61,0,0,1,1.07-2c.57-.88,1.16-1.75,1.81-2.57s1.25-1.33,1.88-2a1.11,1.11,0,0,1,.16,1.34,2.48,2.48,0,0,0-.51,1.32,10.88,10.88,0,0,0-.14,1.48c.06.65.28,1.28.39,1.93A4.51,4.51,0,0,0,24,23.44a3.61,3.61,0,0,0,2.08,1.28.55.55,0,0,1,.51.52,6.21,6.21,0,0,0,1.16,2.85,1,1,0,0,1-.38,1.61c-.82.47-1.62,1-2.43,1.46l-2.32,1.36c-.87.53-1.73,1.07-2.58,1.63a1.07,1.07,0,0,0-.32,1.25c0,.11,0,.22.08.33.12.44.21.88.36,1.31.21.64.45,1.28.69,1.91s.48,1.15.72,1.72a6.1,6.1,0,0,1,.31.91A26.83,26.83,0,0,1,22.48,45a5.61,5.61,0,0,0,.21,1Zm9.36,7.77a5.67,5.67,0,0,1-2-.28,17.68,17.68,0,0,1-4-1.73c-.47-.26-1-.38-1.49-.6a.59.59,0,0,1-.32-.42C24,50,24,49.1,23.94,48.23q-.07-.91-.18-1.83c-.11-.9-.2-1.81-.35-2.7-.11-.68-.28-1.35-.44-2-.1-.47-.21-.93-.34-1.39s-.3-1.07-.46-1.6c-.09-.29-.23-.57-.3-.86a7.69,7.69,0,0,0-.77-2,.92.92,0,0,1,.35-1c.69-.49,1.34-1,2-1.48s1.25-.76,1.88-1.14,1.05-.65,1.59-1a9.45,9.45,0,0,1,1.25-.58.57.57,0,0,1,.46.16c.4.39.77.8,1.14,1.22.21.23.33.55.57.72a15.46,15.46,0,0,0,1.72,1.08c.68.38,1.42.67,2.08,1.08a1.24,1.24,0,0,1,.35.79,10.74,10.74,0,0,0,.79,2.68c.15.37.3.74.47,1.09s.63.37,1,.37l.37,0c-.32.46-.77.82-.7,1.39a1,1,0,0,0,.38.67c.64.38,1.33.7,2,1.05.42.22.82.47,1.25.68a7.7,7.7,0,0,1,1,.47c-.62,0-1.24,0-1.85,0s-1.38.14-2.08.21l-.34,0a9.13,9.13,0,0,0-2.55.25,9.26,9.26,0,0,1-1.41.11c-.26,0-.51.21-.78.24s-.55-.14-.55-.52c0-1.46,0-2.92,0-4.39,0-.27.07-.53.07-.8,0-.12-.11-.33-.17-.33S31,39,31,39.12a3.05,3.05,0,0,0-.28,1.54A32.81,32.81,0,0,1,30.88,44c0,.18-.16.37-.27.62l-1.29-.82a.67.67,0,0,0-.08,1c.3.33.17.49-.17.62a4.43,4.43,0,0,0-.55.18,1.91,1.91,0,0,0-.37.38c.54.63,1.21.1,1.81.21.22,0,.45,0,.66,0a.73.73,0,0,1,.62.91,5.63,5.63,0,0,0,.15,2.48,10.11,10.11,0,0,1,.12,1.36c.12.85.28,1.69.42,2.53A3.07,3.07,0,0,1,31.93,53.87Zm12.7,6.77c-.52.14-1.08.2-1.59.37a7.83,7.83,0,0,1-2.31.16,13.64,13.64,0,0,1-1.43,0c-1-.07-2-.13-2.94-.27a9,9,0,0,1-1.61-.46.67.67,0,0,1-.36-.38c-.22-.7-.39-1.4-.59-2.1s-.51-1.68-.72-2.53c-.16-.65-.25-1.32-.36-2-.18-1-.37-2.11-.52-3.17s-.3-2.16-.44-3.24c0-.31,0-.62-.05-.94l2.88-.37c.81-.1,1.63-.12,2.42-.28a23,23,0,0,1,4.39-.14,8.69,8.69,0,0,1,2.15.28c.2,0,.42.44.45.69.08.79,0,1.58.11,2.37.13,1.71.31,3.41.42,5.12,0,.87,0,1.74,0,2.61s.16,1.75.24,2.63c0,.46.08.92.08,1.37A.36.36,0,0,1,44.63,60.64Zm0-14.14c0-.64.26-.92.93-1h.72a2.8,2.8,0,0,1,.36,1.57c0,1.07.15,2.15.24,3.22,0,.47.12.93.17,1.39,0,.08-.08.22-.15.23l-1.9.33c0-1.37-.06-2.63-.13-3.89C44.84,47.76,44.68,47.13,44.63,46.5Zm2.5,11.26c0,.07-.12.17-.2.19a11,11,0,0,1-1.37.35c-.32,0-.5-.18-.5-.51s0-.78,0-1.17H45V54c0-.51.11-.62.63-.63h.22c.64-.11.74,0,.82.69s.35,1.47.47,2.21A9.5,9.5,0,0,1,47.13,57.76ZM46,44c-.05,0-.1,0-.18-.1l3.66-6.06a6.84,6.84,0,0,0-.53-.73.73.73,0,0,1-.16-.82,4.82,4.82,0,0,0,.23-2.06,4.27,4.27,0,0,0-.27-2.13c-.34-.69-.7-1.38-1.7-1.51.25-.22.48-.45.73-.65.57-.44.61-.42,1.14.11.73.72,1.45,1.45,2.23,2.11a2.91,2.91,0,0,1,1.06,1.17,1,1,0,0,1,.11.52c-.13.45-.31.88-.46,1.32,0,.13,0,.28-.06.42-.29,1.07-.53,2.15-.88,3.2s-.8,2-1.2,3c-.18.46-.38.9-.52,1.36a1.1,1.1,0,0,1-1,.74A19.23,19.23,0,0,1,46,44Zm4,6.36c0,.43-.22.6-.59.68a.27.27,0,0,0-.09,0c-.8.16-.82.16-1-.58s-.17-1.32-.28-2-.29-1.46-.42-2.2a5.06,5.06,0,0,1,0-.78s0-.14.08-.14a5.17,5.17,0,0,1,1.11,0c.15,0,.29.28.38.45a6.05,6.05,0,0,1,.61,2.33c0,.5.16,1,.24,1.5l-.08,0C50,49.85,50,50.1,50,50.34Zm6.53-5.49c.21.85.56,1.67.71,2.53a3.69,3.69,0,0,1-.46,3.25,2.09,2.09,0,0,1-1.77.91c-.71,0-1.42,0-2.13,0a.47.47,0,0,1-.2-.06s0,0-.12-.16l2.24-.62a7.43,7.43,0,0,0-3.35,0,.59.59,0,0,1-.77-.6c-.07-.88-.14-1.76-.27-2.63-.09-.6-.3-1.19-.4-1.8a.78.78,0,0,1,.22-.59,4.6,4.6,0,0,1,1.82-.88,13.24,13.24,0,0,0,2-.86,1.38,1.38,0,0,1,1.54.15A2.09,2.09,0,0,1,56.55,44.85Zm-1.68-3c-.22.43-.69.47-1.09.51a7.44,7.44,0,0,0-2.21.72c-.34.14-.69.26-1,.37a.22.22,0,0,1-.21-.06.26.26,0,0,1,0-.23c.24-.72.49-1.43.74-2.15.1-.29.23-.56.33-.86.24-.77.46-1.55.71-2.32.12-.36.29-.7.41-1.06s.24-.92.37-1.38.29-.74.38-1.12.08-.76.14-1.14a1.67,1.67,0,0,0-.66-1.59c-.85-.76-1.74-1.47-2.59-2.21a3.83,3.83,0,0,1-.83-.93,1.1,1.1,0,0,1,0-.89,13.33,13.33,0,0,0,1.49-3.47c.13-.7.34-1.39.5-2.08s.33-1.52.5-2.28a1,1,0,0,0,0-.17c.06-.87.12-1.74.19-2.61a3.6,3.6,0,0,1,.17-.59c.63.8,1.21,1.47,1.72,2.19a21.29,21.29,0,0,1,2,3.56,24.73,24.73,0,0,1,.85,2.42c.15.45.31.9.44,1.36.08.3.09.62.16.92a21.12,21.12,0,0,1,.42,5.66,12.14,12.14,0,0,1-.26,2.16c-.18.88-.44,1.74-.68,2.6a15.36,15.36,0,0,1-.62,1.92C55.84,40.08,55.35,41,54.87,41.9Z"/><path class="cls-1" d="M53.4,45.3a2.57,2.57,0,0,0-1.8.88l.09.17,1.77-.91Z"/><path class="cls-1" d="M52.4,48.56h2.46C54.06,48.53,53.26,48.05,52.4,48.56Z"/><path class="cls-1" d="M54.35,46.92h-2.1C53,47.29,53.65,46.91,54.35,46.92Z"/><path class="cls-1" d="M44.72,40.1c-.25.2-.4.39-.51.37s-.24-.22-.36-.34c.13-.11.24-.26.39-.3s.23.13.48.27"/><path class="cls-1" d="M44.16,38.17l-.48.24a1.82,1.82,0,0,1-.17-.44c0-.07.15-.24.18-.22a3.63,3.63,0,0,1,.51.28l0,.14"/></svg>