<svg id="图层_1" data-name="图层 1" xmlns="http://www.w3.org/2000/svg" xmlns:xlink="http://www.w3.org/1999/xlink" viewBox="0 0 160 64"><defs><style>.cls-1{fill:none;clip-rule:evenodd;}.cls-2{clip-path:url(#clip-path);}.cls-3{fill:#231916;}.cls-3,.cls-4{fill-rule:evenodd;}.cls-4{fill:#c00;}</style><clipPath id="clip-path"><path class="cls-1" d="M-366.47,18.49a1,1,0,0,1,1.28-.8,1.93,1.93,0,0,1,1.43,2.42,5.92,5.92,0,0,1-.43-.8.78.78,0,0,0-.74-.58c-.25,0-.6.56-.61.88a7,7,0,0,1-.09,1.36c-.08-.56-.48-1.07-.2-1.68a1.7,1.7,0,0,0,.07-.68c0-.07-.11-.21-.16-.21a2.53,2.53,0,0,0-.55.09"/></clipPath></defs><title>icon</title><path class="cls-3" d="M83.17,51.93v2.15h-3V51.93Zm-44.4,2.72h-1V57h1.42c.91,0,1.36-.42,1.36-1.25S40,54.65,38.77,54.65Zm29.39,2.49c-.79,0-1.22.6-1.3,1.7s.47,1.77,1.3,1.81,1.21-.58,1.25-1.75S69,57.18,68.16,57.14Zm46.45-.28c-.87,0-1.33.68-1.36,1.92s.47,2,1.3,2,1.3-.68,1.3-2S115.4,56.86,114.61,56.86ZM99.48,59.29a3.66,3.66,0,0,1-1.07.29c-.87.11-1.29.41-1.25.9s.36.64,1,.68C99.07,61.16,99.52,60.54,99.48,59.29Zm-40.1,0a3.66,3.66,0,0,1-1.07.29c-.87.11-1.29.41-1.25.9s.36.64,1,.68C59,61.16,59.42,60.54,59.38,59.29Zm65.82-4.47a.59.59,0,0,1,.22,0h.17v3l-.28-.06a1.43,1.43,0,0,0-.34-.06c-1.25,0-1.85.72-1.81,2.27v2.6H120.1V55h2.77v1.53A2.39,2.39,0,0,1,125.2,54.82Zm-42,.22v7.59h-3V55Zm-4.47-.22a.59.59,0,0,1,.22,0h.17v3l-.28-.06a1.43,1.43,0,0,0-.34-.06c-1.25,0-1.85.72-1.81,2.27v2.6H73.6V55h2.78v1.53A2.37,2.37,0,0,1,78.7,54.82Zm-31-2.61V56A2.62,2.62,0,0,1,50,54.82c2,0,3,1.09,3,3.28v4.53h-3v-4q0-1.41-1.08-1.41c-.79,0-1.17.49-1.13,1.58v3.85H44.66V52.21Zm-8.33,0q4.36.06,4.48,3.51-.06,3.63-4.37,3.69H37.8v3.22H34.41V52.21Zm68.25.46V55h1.42V56.8h-1.42v2.72c-.08.72.23,1,.91,1h.51v2.15c-2.08.08-3.31,0-3.69-.28-.53-.23-.77-1-.73-2.38V56.8h-1.08V55h1.08V52.67ZM67,52.21v3.57a2.53,2.53,0,0,1,2.16-1c2.07.19,3.19,1.51,3.34,4q-.06,3.91-3.46,4a2.31,2.31,0,0,1-2.32-1.19h-.06v1.07H63.91V52.21Zm21.92,2.61q3.73.1,4.14,3.11H90a1.1,1.1,0,0,0-.28-.79,1.08,1.08,0,0,0-.8-.28c-.87,0-1.32.68-1.36,2s.46,1.88,1.36,1.92c.68,0,1.06-.38,1.14-1.13h3q-.33,3-4.19,3.06-4.24-.12-4.36-3.85C84.64,56.29,86.1,54.93,88.89,54.82Zm25.66,0q4.14.16,4.36,4-.12,3.86-4.36,4c-2.8-.08-4.23-1.36-4.31-3.85C110.36,56.29,111.79,54.93,114.55,54.82ZM102.49,58V61.5a.93.93,0,0,0,.39,1v.17H99.77l-.12-.79a3.89,3.89,0,0,1-2.88.91c-1.74-.08-2.65-.81-2.72-2.21s1.2-2.25,3.62-2.55c1.21-.11,1.81-.36,1.81-.74s-.34-.62-1-.62-1,.25-1,.74H94.56q-.06-2.55,4.13-2.55Q102.88,54.64,102.49,58Zm-40.1,0V61.5a.93.93,0,0,0,.39,1v.17H59.67l-.12-.79a3.89,3.89,0,0,1-2.88.91c-1.74-.08-2.65-.81-2.72-2.21s1.2-2.25,3.62-2.55c1.21-.11,1.81-.36,1.81-.74s-.34-.62-1-.62-1,.25-1,.74H54.46q-.06-2.55,4.13-2.55Q62.78,54.64,62.39,58Z"/><path class="cls-4" d="M79.66,1.25A23.15,23.15,0,1,0,102.8,24.39,23.14,23.14,0,0,0,79.66,1.25ZM93.12,24.46c0,3-1.61,4.51-4.85,4.51H79V24.05h6.62v-5.6H76.26v19H69V12.48H88.07a5.61,5.61,0,0,1,3.87,1.12,4.92,4.92,0,0,1,1.18,3.7Z"/></svg>