<svg id="图层_1" data-name="图层 1" xmlns="http://www.w3.org/2000/svg" xmlns:xlink="http://www.w3.org/1999/xlink" viewBox="0 0 160 64"><defs><style>.cls-1{fill:none;clip-rule:evenodd;}.cls-2{clip-path:url(#clip-path);}.cls-3{fill:#020202;}.cls-3,.cls-4{fill-rule:evenodd;}.cls-4{fill:#3278ff;}</style><clipPath id="clip-path"><path class="cls-1" d="M-764.3-80.42a1,1,0,0,1,1.28-.81,1.94,1.94,0,0,1,1.43,2.43,5.79,5.79,0,0,1-.42-.81.76.76,0,0,0-.74-.57c-.25,0-.61.55-.61.88a7.84,7.84,0,0,1-.09,1.36c-.09-.56-.49-1.08-.21-1.68a1.7,1.7,0,0,0,.07-.68c0-.07-.1-.22-.16-.22a3.76,3.76,0,0,0-.55.1"/></clipPath></defs><title>icon</title><path class="cls-3" d="M148.9,32.84H146l-.64,4.47h3.08Zm-28.68,0h-2.9l-.64,4.47h3.08Zm-28,0h-2.9l-.63,4.47h3.08Zm61.46-5.62L152.7,39H140.92l1-7.78H149l.21-2.16H141.8v-1.8Zm-28.67,0L124,39H112.24l1-7.78h7.08l.22-2.16h-7.46v-1.8Zm-28,0L96,39H84.25l1-7.78h7.08L92.59,29H85.14v-1.8Zm34.94,0-.09,1.05.75-1.05h6.65L138.6,39h-4.49l.67-10h-3l-.88,10h-4.43l1-11.78Zm-53.45,0-.07.82.7-.82h3.69V29H78.36L77.5,39H72.92l1-11.75ZM71.37,24v1.8H62.11L61,37.18h4.75l.61-6H62.6v-1.8H71L70.19,39H56.31L57.7,24Zm39.49,0v1.66h-4.33l-.17,1.51h4.22V29h-4.37l-.9,10.24H100.6L101.51,29h-3V27.2h3.12l.28-3.17Z"/><path class="cls-4" d="M18.17,27.89,18,30.74H14.89l.25-2.85Zm9.49,4.68-.31,3H25.29l.43-3Zm3.21-3.76h-8V30h5l-.15,1.44H23l-.69,5.2H30.2ZM21.3,26.69H12.19L11.3,36.84h3.06l.42-4.9H21ZM34.5,28.8H31.87l2.54,5.53-1.72,3.2H35.3L40,28.8H37.4l-1.54,3ZM25.31,15.45A16.55,16.55,0,1,1,8.76,32,16.57,16.57,0,0,1,25.31,15.45Zm0-.69A17.24,17.24,0,1,0,42.54,32,17.26,17.26,0,0,0,25.31,14.76Zm0-1.76a19,19,0,1,1-19,19A19,19,0,0,1,25.31,13Z"/></svg>