<svg id="图层_1" data-name="图层 1" xmlns="http://www.w3.org/2000/svg" xmlns:xlink="http://www.w3.org/1999/xlink" viewBox="0 0 160 64"><defs><style>.cls-1{fill:none;clip-rule:evenodd;}.cls-2{clip-path:url(#clip-path);}.cls-3,.cls-4{fill-rule:evenodd;}.cls-3{opacity:0.85;}.cls-4{fill:#c71d23;}</style><clipPath id="clip-path"><path class="cls-1" d="M-764.3-172.82a1,1,0,0,1,1.28-.8,1.94,1.94,0,0,1,1.43,2.43A5.79,5.79,0,0,1-762-172a.78.78,0,0,0-.74-.58c-.25,0-.61.56-.61.88a7.71,7.71,0,0,1-.09,1.36c-.09-.56-.49-1.07-.21-1.68a1.63,1.63,0,0,0,.07-.67c0-.08-.1-.22-.16-.22s-.36.06-.55.09"/></clipPath></defs><title>icon</title><path class="cls-3" d="M80.71,27.53H79.39v3.94h1.32a3.73,3.73,0,0,0,2.1-.46,1.71,1.71,0,0,0,.63-1.51A1.72,1.72,0,0,0,82.81,28,3.82,3.82,0,0,0,80.71,27.53Zm17.61,1.18-1.45,5h2.89ZM63.66,27.55c-2.07,0-3.09,1.48-3.09,4.43s1,4.47,3.09,4.47S66.75,35,66.75,32,65.73,27.55,63.66,27.55Zm85.85-3.2V27.7h-6.18v2.62h5.55v3.32h-5.55V36.3h6.41v3.36H139.19V24.35Zm-20.44,0V36.07h6.18v3.59H124.86V24.35Zm-28.58,0,5.71,15.31h-4.66L100.75,37H96l-.75,2.67H90.7l5.65-15.31Zm-18.89,0A6.67,6.67,0,0,1,86,25.69a4.62,4.62,0,0,1,1.57,3.71,4,4,0,0,1-.82,2.6,4.62,4.62,0,0,1-2.27,1.54l3.68,6.12H83.8l-2.86-5.13L79.39,34v5.58l-4.1,0V24.35ZM116.72,24a8.39,8.39,0,0,1,3.71.79v3.42a12.14,12.14,0,0,0-1.87-.46,8.13,8.13,0,0,0-1.55-.14,3.67,3.67,0,0,0-2.82,1.15,4.46,4.46,0,0,0-1,3.09,5.22,5.22,0,0,0,1,3.42A3.55,3.55,0,0,0,117,36.48a10.53,10.53,0,0,0,1.74-.16,21.85,21.85,0,0,0,2.14-.59v3.38a10.31,10.31,0,0,1-4.44.89,7.3,7.3,0,0,1-5.61-2.14,8.56,8.56,0,0,1-2-6,8.82,8.82,0,0,1,1-4.17,6.64,6.64,0,0,1,2.73-2.7A9,9,0,0,1,116.72,24ZM63.66,24a7.93,7.93,0,0,1,4,.95,6.37,6.37,0,0,1,2.53,2.73,9.58,9.58,0,0,1,.89,4.3,8.34,8.34,0,0,1-1.94,5.92A7,7,0,0,1,63.66,40a7,7,0,0,1-5.46-2.1A8.46,8.46,0,0,1,56.26,32a9.58,9.58,0,0,1,.89-4.3A6.2,6.2,0,0,1,59.68,25,8.05,8.05,0,0,1,63.66,24Z"/><path class="cls-4" d="M31.55,33.15l-.32,3.14H29.07l.44-3.14Zm3.37-3.95H26.56v1.26H31.8L31.65,32h-5L26,37.44h8.27Zm4.56,0H36.65l1.44,3.18-2.18,5.09h2.77l2-4.6,1.09,4.6h2.67l-1.16-5.11,1.87-3.16H42.41l-1.67,2.86ZM24.91,26.94H15.29l-.94,10.69h3.31L18.15,32h6.3V30.73H18.26l.22-2.43h6.44ZM29.26,13a19,19,0,1,1-19,19A19,19,0,0,1,29.26,13Z"/></svg>