<svg id="图层_1" data-name="图层 1" xmlns="http://www.w3.org/2000/svg" xmlns:xlink="http://www.w3.org/1999/xlink" viewBox="0 0 160 64"><defs><style>.cls-1{fill:none;clip-rule:evenodd;}.cls-2{clip-path:url(#clip-path);}.cls-3{fill:#1143a3;}.cls-3,.cls-4{fill-rule:evenodd;}.cls-4{fill:#3278ff;}</style><clipPath id="clip-path"><path class="cls-1" d="M-171.91-172.82a1,1,0,0,1,1.28-.8,1.93,1.93,0,0,1,1.43,2.43,5.79,5.79,0,0,1-.42-.81.78.78,0,0,0-.74-.58c-.25,0-.61.56-.61.88a7.71,7.71,0,0,1-.09,1.36c-.09-.56-.49-1.07-.21-1.68a1.48,1.48,0,0,0,.07-.67c0-.08-.1-.22-.16-.22s-.36.06-.55.09"/></clipPath></defs><title>icon</title><path class="cls-3" d="M64.57,22.16a.72.72,0,1,1-.71.72A.72.72,0,0,1,64.57,22.16Zm2.08,0a.72.72,0,1,1-.71.72A.72.72,0,0,1,66.65,22.16Zm2.1,0a.72.72,0,1,1-.72.72A.71.71,0,0,1,68.75,22.16ZM57,21.31c.11,0,.19.11.19.25v3c0,.14-.08.26-.19.26h-.4c-.1,0-.19-.12-.19-.26v-3a.23.23,0,0,1,.19-.25Zm-2.82,0a.23.23,0,0,1,.2.25v3a.24.24,0,0,1-.2.26h-.4c-.1,0-.19-.12-.19-.26v-3a.23.23,0,0,1,.19-.25Zm1.4,0a.23.23,0,0,1,.2.25v3a.24.24,0,0,1-.2.26h-.39a.24.24,0,0,1-.2-.26v-3a.23.23,0,0,1,.2-.25Zm5.73,0a.23.23,0,0,1,.19.25v3c0,.14-.09.26-.19.26h-.4a.24.24,0,0,1-.2-.26v-3a.23.23,0,0,1,.2-.25Zm-1.46,0a.23.23,0,0,1,.2.25v3a.24.24,0,0,1-.2.26h-.39a.24.24,0,0,1-.2-.26v-3a.23.23,0,0,1,.2-.25Zm-1.4,0a.23.23,0,0,1,.2.25v3a.24.24,0,0,1-.2.26H58c-.1,0-.19-.12-.19-.26v-3a.23.23,0,0,1,.19-.25ZM70.34,20.1H52.88a.25.25,0,0,0-.25.25V26a.26.26,0,0,0,.25.26H70.34A.26.26,0,0,0,70.6,26V20.35A.26.26,0,0,0,70.34,20.1Zm-1.76,6.61H54.64V27.9H68.58Zm.17,3.67a.72.72,0,1,1-.72.71A.71.71,0,0,1,68.75,30.38Zm-2.1,0a.72.72,0,1,1-.71.71A.71.71,0,0,1,66.65,30.38Zm-2.08,0a.72.72,0,1,1-.71.71A.71.71,0,0,1,64.57,30.38Zm-3.29-.86c.1,0,.19.11.19.26v3a.23.23,0,0,1-.19.25h-.4a.23.23,0,0,1-.2-.25v-3c0-.15.09-.26.2-.26Zm-1.46,0c.11,0,.2.11.2.26v3a.23.23,0,0,1-.2.25h-.39a.23.23,0,0,1-.2-.25v-3c0-.15.09-.26.2-.26Zm-1.4,0c.11,0,.2.11.2.26v3a.23.23,0,0,1-.2.25H58a.23.23,0,0,1-.19-.25v-3c0-.15.09-.26.19-.26Zm-1.45,0c.11,0,.19.11.19.26v3c0,.14-.08.25-.19.25h-.4a.23.23,0,0,1-.19-.25v-3c0-.15.09-.26.19-.26Zm-1.42,0c.11,0,.2.11.2.26v3a.23.23,0,0,1-.2.25h-.39a.23.23,0,0,1-.2-.25v-3c0-.15.09-.26.2-.26Zm-1.4,0c.11,0,.2.11.2.26v3a.23.23,0,0,1-.2.25h-.4a.23.23,0,0,1-.19-.25v-3c0-.15.09-.26.19-.26Zm16.19-1.21H52.88a.26.26,0,0,0-.25.26v5.69a.25.25,0,0,0,.25.25H70.34a.26.26,0,0,0,.26-.25V28.57A.26.26,0,0,0,70.34,28.31Zm-1.76,6.62H54.64v1.18H68.58Zm-4,3.87a.72.72,0,1,1-.71.71A.71.71,0,0,1,64.57,38.8Zm2.08,0a.72.72,0,1,1-.71.71A.71.71,0,0,1,66.65,38.8Zm2.1,0a.72.72,0,1,1-.72.71A.71.71,0,0,1,68.75,38.8Zm-7.47-.86c.1,0,.19.11.19.26v3a.23.23,0,0,1-.19.25h-.4a.23.23,0,0,1-.2-.25v-3c0-.15.09-.26.2-.26Zm-1.46,0c.11,0,.2.11.2.26v3a.23.23,0,0,1-.2.25h-.39a.23.23,0,0,1-.2-.25v-3c0-.15.09-.26.2-.26Zm-1.4,0c.11,0,.2.11.2.26v3a.23.23,0,0,1-.2.25H58a.23.23,0,0,1-.19-.25v-3c0-.15.09-.26.19-.26Zm-1.45,0c.11,0,.19.11.19.26v3c0,.14-.08.25-.19.25h-.4a.23.23,0,0,1-.19-.25v-3c0-.15.09-.26.19-.26Zm-1.42,0c.11,0,.2.11.2.26v3a.23.23,0,0,1-.2.25h-.39a.23.23,0,0,1-.2-.25v-3c0-.15.09-.26.2-.26Zm-1.4,0c.11,0,.2.11.2.26v3a.23.23,0,0,1-.2.25h-.4a.23.23,0,0,1-.19-.25v-3c0-.15.09-.26.19-.26Zm16.19-1.21H52.88a.26.26,0,0,0-.25.26v5.69a.25.25,0,0,0,.25.25H70.34a.26.26,0,0,0,.26-.25V37A.26.26,0,0,0,70.34,36.73Zm-1.76,6.62H54.64v1.18H68.58ZM62,13a19,19,0,0,1,16,8.77,19.9,19.9,0,0,0,0,20.46A19,19,0,1,1,62,13Z"/><path class="cls-4" d="M90.55,28.23l-.2,3H87.1l.26-3Zm10,4.92-.32,3.14H98l.45-3.14Zm3.37-3.95H95.53v1.26h5.24L100.62,32h-5l-.74,5.46h8.28ZM93.84,27H84.26l-.93,10.66h3.21L87,32.49h6.53Zm13.87,2.22H105L107.62,35l-1.81,3.36h2.74l4.94-9.18h-2.74l-1.62,3.14ZM98,13A19,19,0,1,1,79,32,19,19,0,0,1,98,13Z"/></svg>