<svg id="图层_1" data-name="图层 1" xmlns="http://www.w3.org/2000/svg" xmlns:xlink="http://www.w3.org/1999/xlink" viewBox="0 0 160 64"><defs><style>.cls-1{fill:none;clip-rule:evenodd;}.cls-2{clip-path:url(#clip-path);}.cls-3{fill:#020202;}.cls-3,.cls-4{fill-rule:evenodd;}.cls-4{fill:#060;}</style><clipPath id="clip-path"><path class="cls-1" d="M-366.47-80.42a1,1,0,0,1,1.28-.81,1.94,1.94,0,0,1,1.43,2.43,6,6,0,0,1-.43-.81.76.76,0,0,0-.74-.57c-.25,0-.6.55-.61.88a7,7,0,0,1-.09,1.36c-.08-.56-.48-1.08-.2-1.68a1.7,1.7,0,0,0,.07-.68c0-.07-.11-.22-.16-.22a3.33,3.33,0,0,0-.55.1"/></clipPath></defs><title>icon</title><path class="cls-3" d="M148.9,32.84H146l-.64,4.47h3.08Zm-28.68,0h-2.9l-.64,4.47h3.08Zm-28,0h-2.9l-.64,4.47h3.09Zm61.46-5.62L152.7,39H140.92l1-7.78H149l.21-2.16H141.8v-1.8Zm-28.67,0L124,39H112.24l1-7.78h7.08l.22-2.16h-7.46v-1.8Zm-28,0L96,39H84.25l1-7.78h7.08L92.59,29H85.14v-1.8Zm34.94,0-.09,1.05.75-1.05h6.65L138.6,39h-4.49l.67-10h-3l-.88,10h-4.43l1-11.78Zm-53.45,0-.07.82.7-.82h3.69V29H78.36L77.5,39H72.92l1-11.75ZM71.37,24v1.79H62.11L61,37.18h4.75l.61-6H62.6v-1.8H71L70.19,39H56.31L57.7,24Zm39.49,0v1.66h-4.33l-.17,1.51h4.22V29h-4.37l-.9,10.24H100.6L101.51,29h-3V27.2h3.12l.28-3.17Z"/><path class="cls-4" d="M25.31,30.3A1.7,1.7,0,1,0,27,32,1.7,1.7,0,0,0,25.31,30.3Zm-3.66-.79A14.1,14.1,0,0,0,18.41,32a14.39,14.39,0,0,0,3.24,2.49,4.41,4.41,0,0,1,0-5Zm7.31,0a4.41,4.41,0,0,1,0,5A13.61,13.61,0,0,0,32.2,32,14.16,14.16,0,0,0,29,29.51Zm-3.65-.17A2.66,2.66,0,1,1,22.65,32,2.66,2.66,0,0,1,25.31,29.34Zm0-.81A3.47,3.47,0,1,0,28.78,32,3.47,3.47,0,0,0,25.31,28.53Zm0-1c4.34,0,7.76,4,7.91,4.15a.48.48,0,0,1,0,.62c-.15.17-3.57,4.15-7.91,4.15s-7.77-4-7.91-4.15a.48.48,0,0,1,0-.62C17.54,31.52,21,27.54,25.31,27.54Zm0-10.06a14.53,14.53,0,0,1,7.36,2L32,20.57A13.23,13.23,0,0,0,15.36,40.72l-.95.88a14.52,14.52,0,0,1,10.9-24.12Zm0,4.85A9.67,9.67,0,1,0,35,32,9.67,9.67,0,0,0,25.31,22.33Zm0-5.45A15.12,15.12,0,0,0,14.17,42.22a.29.29,0,0,0,.2.09h0a.32.32,0,0,0,.2-.08L16,41a.3.3,0,0,0,0-.42A12.64,12.64,0,0,1,31.93,21.23a.3.3,0,0,0,.41-.1l1-1.6a.28.28,0,0,0,0-.22.31.31,0,0,0-.13-.19A15.15,15.15,0,0,0,25.31,16.88Zm10.84,5.46a14.53,14.53,0,0,1-18,22.29l.67-1.11A13.23,13.23,0,0,0,35.2,23.21Zm0-.72a.3.3,0,0,0-.22.08L34.59,23a.3.3,0,0,0,0,.42A12.65,12.65,0,0,1,18.84,42.87a.29.29,0,0,0-.22,0,.28.28,0,0,0-.18.14l-1,1.62a.28.28,0,0,0,0,.22.28.28,0,0,0,.14.18,15.12,15.12,0,0,0,18.8-23.28A.29.29,0,0,0,36.18,21.62ZM25.31,13a19,19,0,1,1-19,19A19,19,0,0,1,25.31,13Z"/></svg>