<svg id="图层_1" data-name="图层 1" xmlns="http://www.w3.org/2000/svg" xmlns:xlink="http://www.w3.org/1999/xlink" viewBox="0 0 160 64"><defs><style>.cls-1{fill:none;clip-rule:evenodd;}.cls-2{clip-path:url(#clip-path);}.cls-3,.cls-4{fill-rule:evenodd;}.cls-3{opacity:0.85;}.cls-4{fill:#c71d23;}</style><clipPath id="clip-path"><path class="cls-1" d="M-366.47-172.82a1,1,0,0,1,1.28-.8,1.94,1.94,0,0,1,1.43,2.43,6,6,0,0,1-.43-.81.78.78,0,0,0-.74-.58c-.25,0-.6.56-.61.88a6.86,6.86,0,0,1-.09,1.36c-.08-.56-.48-1.07-.2-1.68a1.63,1.63,0,0,0,.07-.67c0-.08-.11-.22-.16-.22a4.85,4.85,0,0,0-.55.09"/></clipPath></defs><title>icon</title><path class="cls-3" d="M76.36,35.74h3.47c.76,6.27,1.28,12.55,1.46,18.87H78.11c-.11-5-.38-9.94-1-14.9L72.38,54.62H70q-2.36-7.45-4.73-14.91c-.44,5-.63,9.93-.71,14.91h-2.9c.17-6.31.6-12.6,1.39-18.88h.28c1.12,0,2.25,0,3.37,0A.32.32,0,0,1,67,36q2.2,6.72,4.42,13.45v0l0,.09c.07-.21.13-.36.19-.52Q73.84,42.53,76,36A.31.31,0,0,1,76.36,35.74Zm9.38,4.95c.14,0,.22,0,.27.19.87,2.85,1.76,5.71,2.63,8.57a13.77,13.77,0,0,1,.57,2.87c.17-.47.33-.93.49-1.4a50.93,50.93,0,0,0,1.78-7.08c.18-1,.31-2,.46-3,0-.06.1-.16.15-.16H95c-.12.6-.22,1.18-.34,1.75-.44,2.14-.94,4.27-1.59,6.35a29.08,29.08,0,0,1-2.92,6.75,10.34,10.34,0,0,1-2.73,3.05,4.92,4.92,0,0,1-3,1,4.76,4.76,0,0,1-1.77-.44.23.23,0,0,1-.12-.15V57.45c.65,0,1.27,0,1.88,0a2.86,2.86,0,0,0,2.62-2.87,9.54,9.54,0,0,0-.45-2C85.4,48.68,84.16,44.84,82.92,41c0-.09,0-.18-.08-.29l.23,0Z"/><path class="cls-4" d="M140.28,52.31v.4h-.65v1.9h-.53V52.72h-.66v-.41Zm2.63,0c.15,0,.31,0,.48,0v2.32h-.47V53.05h0l-.52,1.41a.23.23,0,0,1-.26.18c-.14,0-.19-.05-.24-.18a13.23,13.23,0,0,0-.58-1.42v1.58h-.47V52.3a5.9,5.9,0,0,1,.6,0c.06,0,.13.08.15.15.16.37.3.74.45,1.12l.12.26c.17-.48.33-.9.48-1.33A.25.25,0,0,1,142.91,52.3Z"/><path class="cls-4" d="M116.53,38a3.52,3.52,0,0,0-2.44,2.2,10.54,10.54,0,0,0-.78,4.08c0,.72,0,1.45,0,2.18a11.71,11.71,0,0,0,.49,3.06,4.41,4.41,0,0,0,1.45,2.32,3.64,3.64,0,0,0,2,.73,3.89,3.89,0,0,0,2.64-.6,4.28,4.28,0,0,0,1.54-2.17,13.63,13.63,0,0,0,.62-4.44c0-.56,0-1.13-.08-1.69a11.3,11.3,0,0,0-.45-2.66,4.51,4.51,0,0,0-1.28-2.24A4.08,4.08,0,0,0,116.53,38ZM131,35.75V52.3h6v2.31h-9V35.75Zm-23.45,1.06.1.07,0,0-.71,1.6a1.71,1.71,0,0,1-.27-.09,8.72,8.72,0,0,0-3.81-.66,2.63,2.63,0,0,0-2.54,1.85,2.38,2.38,0,0,0,.69,2.39,7.32,7.32,0,0,0,2,1.39c1.12.63,2.26,1.24,3.37,1.9a4.43,4.43,0,0,1,2.29,3.12,5.17,5.17,0,0,1-3,5.75,7.45,7.45,0,0,1-3.09.69,9.26,9.26,0,0,1-5.6-1.68.94.94,0,0,1-.12-.09c.27-.54.54-1.07.8-1.6.51.2,1,.42,1.5.6a7.27,7.27,0,0,0,2.92.49,4.84,4.84,0,0,0,1.71-.39,2.56,2.56,0,0,0,.82-4.24,6.39,6.39,0,0,0-1.41-1.05c-1.22-.74-2.49-1.4-3.72-2.13a4.6,4.6,0,0,1-2.4-4.24,5,5,0,0,1,4.28-4.9A8.53,8.53,0,0,1,107.57,36.81Zm13.2-.89a6,6,0,0,1,3.65,3.62,11.48,11.48,0,0,1,.73,3.06,18.49,18.49,0,0,1,.09,3.49,12,12,0,0,1-1.35,5.24,6.75,6.75,0,0,1-1.67,2l3.45,1.71c-.41.72-.82,1.42-1.24,2.14l-2.6-1.52c-.57-.32-1.14-.65-1.7-1a.59.59,0,0,0-.47-.06,9.05,9.05,0,0,1-5.28-.23A5.66,5.66,0,0,1,111,51a10.81,10.81,0,0,1-.78-3.45c-.06-.94-.12-1.89-.09-2.83a12.56,12.56,0,0,1,1.16-5.32,6.64,6.64,0,0,1,5-3.82A8.78,8.78,0,0,1,120.77,35.92Z"/><path class="cls-3" d="M118.21,10.28a1.11,1.11,0,0,1-.35,1.57,6,6,0,0,0-1.31-2.07A1.26,1.26,0,0,1,118.21,10.28ZM112,4a7.38,7.38,0,0,1,3.16,1.1,6,6,0,0,1,1,.75,1.61,1.61,0,0,0,1.08.4,9,9,0,0,1,4.8,1.41,24.24,24.24,0,0,1,5.41,4.42,17.4,17.4,0,0,1,3.13,4.58c.94,2.21,1.94,4.38,3,6.53l.24.45a1.52,1.52,0,0,0,.91.77,17.29,17.29,0,0,1,4.94,2.85c.59.48,1.19,1,1.74,1.5a7.94,7.94,0,0,1,.82,1c.09.12.1.24-.1.3a11.66,11.66,0,0,1-2.26.48,16.21,16.21,0,0,0-1.81.39l-.69.15a2,2,0,0,0,.8.91c.35.24.71.47,1.08.68a10.43,10.43,0,0,1,3,2.63,3.61,3.61,0,0,0,.33.35,2.09,2.09,0,0,1,.77,1.25,3.69,3.69,0,0,1-.34-.25,11.63,11.63,0,0,0-3.09-2,12.21,12.21,0,0,1-3.06-1.89A4.34,4.34,0,0,1,135.57,31a.52.52,0,0,0-.06-.13c-.15-.31-.1-.48.22-.59a11,11,0,0,1,3.47-.79c.5,0,1,0,1.57-.07a2.19,2.19,0,0,0-.35-.38c-.56-.41-1.14-.8-1.71-1.2-.22-.15-.44-.29-.65-.45a11.64,11.64,0,0,0-3.91-1.78l-.12,0a2,2,0,0,1-1.41-1.12c-.48-1-1-1.94-1.43-2.93-.63-1.38-1.22-2.78-1.86-4.16a18,18,0,0,0-2.59-4,19,19,0,0,0-5.86-4.78,15.33,15.33,0,0,0-2.18-.89,5.43,5.43,0,0,0-1.22-.15c-.46,0-.92,0-1.37-.11a.84.84,0,0,1-.46-.25,9.48,9.48,0,0,0-3.13-1.75,2.87,2.87,0,0,0-.77-.17.68.68,0,0,0-.74,1,4.1,4.1,0,0,0,.9,1.48,11.83,11.83,0,0,1,2.46,4.74,9,9,0,0,0,1.28,2.88,3.21,3.21,0,0,0,.54.62,1.29,1.29,0,0,1,.38,1.47c-.19.59-.42,1.16-.59,1.76a9.28,9.28,0,0,0-.31,3.11,8.5,8.5,0,0,0,.74,3.18,4,4,0,0,0,.43.72,1.43,1.43,0,0,0,.47.37c.2.11.24.06.27-.16.12-.84.23-1.69.38-2.53a3.29,3.29,0,0,1,.8-1.6l.56-.7a1.5,1.5,0,0,1,.18.32,25.72,25.72,0,0,0,2.82,5.59,14.81,14.81,0,0,0,2,2.51c.21.21.46.4.69.6l-.06.08a6.82,6.82,0,0,1-.62-.43c-.85-.76-1.72-1.5-2.54-2.29a10,10,0,0,1-1.26-1.5,18.89,18.89,0,0,1-1-1.84.57.57,0,0,0-.17-.22c-.07.39-.15.77-.21,1.15L119,26.67a1.38,1.38,0,0,1-2.41.72,5.34,5.34,0,0,1-1.39-2.24,10.32,10.32,0,0,1-.53-3.9,12.47,12.47,0,0,1,.55-2.91c.13-.42.28-.84.38-1.26a.44.44,0,0,0-.09-.35,12,12,0,0,1-2.33-4.57c-.14-.38-.25-.78-.36-1.17a5.59,5.59,0,0,0-1-1.75c-.46-.62-.94-1.23-1.38-1.87a2.56,2.56,0,0,1-.47-1.45A1.87,1.87,0,0,1,112,4Z"/><path class="cls-4" d="M37.9,42.15l-.33,3.14H35.41l.45-3.14Zm3.36-3.95H32.91v1.26h5.23L38,41H33l-.73,5.46h8.28Zm4.57,0H43l1.45,3.18-2.19,5.09H45l2-4.6,1.09,4.6h2.67L49.6,41.35l1.87-3.16H48.75l-1.66,2.86ZM31.25,35.94H21.63L20.7,46.63H24L24.49,41h6.3V39.73H24.61l.21-2.43h6.44ZM35.61,22a19,19,0,1,1-19,19A19,19,0,0,1,35.61,22Z"/></svg>