<svg id="图层_1" data-name="图层 1" xmlns="http://www.w3.org/2000/svg" xmlns:xlink="http://www.w3.org/1999/xlink" viewBox="0 0 160 64"><defs><style>.cls-1{fill:none;clip-rule:evenodd;}.cls-2{clip-path:url(#clip-path);}.cls-3{fill:#020202;}.cls-3,.cls-4{fill-rule:evenodd;}.cls-4{fill:#096;}</style><clipPath id="clip-path"><path class="cls-1" d="M-563.21-80.42a1,1,0,0,1,1.28-.81,1.94,1.94,0,0,1,1.43,2.43,6,6,0,0,1-.43-.81.76.76,0,0,0-.73-.57c-.26,0-.61.55-.62.88a7,7,0,0,1-.09,1.36c-.08-.56-.48-1.08-.2-1.68a1.7,1.7,0,0,0,.07-.68c0-.07-.11-.22-.16-.22a3.53,3.53,0,0,0-.55.1"/></clipPath></defs><title>icon</title><path class="cls-3" d="M148.9,32.84H146l-.64,4.47h3.08Zm-28.68,0h-2.9l-.64,4.47h3.08Zm-28,0h-2.9l-.64,4.47h3.09Zm61.46-5.62L152.7,39H140.92l1-7.78H149l.21-2.16H141.8v-1.8Zm-28.67,0L124,39H112.24l1-7.78h7.08l.22-2.16h-7.46v-1.8Zm-28,0L96,39H84.25l1-7.78h7.08L92.59,29H85.14v-1.8Zm34.94,0-.09,1.05.75-1.05h6.65L138.6,39h-4.49l.67-10h-3l-.88,10h-4.43l1-11.78Zm-53.45,0-.07.82.7-.82h3.69V29H78.36L77.5,39H72.92l1-11.75ZM71.37,24v1.79H62.11L61,37.18h4.75l.61-6H62.6v-1.8H71L70.19,39H56.31L57.7,24Zm39.49,0v1.66h-4.33l-.17,1.51h4.22V29h-4.37l-.9,10.24H100.6L101.51,29h-3V27.2h3.12l.28-3.17Z"/><path class="cls-4" d="M30.42,22.13l-1.79,5.46-7.16,0,1.83-5.44,5.11,0ZM38,36.43l-1.79,5.45L29,41.9l1.82-5.44,5.12,0Zm-15.64,0-1.79,5.45-7.16,0,1.83-5.44,5.11,0Zm.9-16.93H21.06v7.89l-.12.37A.2.2,0,0,0,21,28a.2.2,0,0,0,.13.09h3.36v2a1,1,0,0,0-.36.32l-.06.1h-6a1,1,0,0,0-.9-.55,1,1,0,0,0-.57,1.89l.11.06v3H16a.83.83,0,0,1-.79-.67l0-.1v-.33H13v7.9l-.13.37a.21.21,0,0,0,0,.2.2.2,0,0,0,.13.09h.05l7.65,0a.21.21,0,0,0,.19-.11l0,0,1.94-5.91a.23.23,0,0,0,0-.21.2.2,0,0,0-.13-.09h-.06l-2.32,0V34.89H17.7v-3a1,1,0,0,0,.33-.3l.06-.1h6a1,1,0,0,0,1.74.11l.06-.11h5.84a1,1,0,0,0,.33.36l.11.07v3h-.51a.84.84,0,0,1-.79-.67l0-.1v-.33H28.62v7.9l-.12.37a.24.24,0,0,0,0,.2.2.2,0,0,0,.13.09h.06l7.64,0a.21.21,0,0,0,.19-.11l0,0,1.94-5.91a.26.26,0,0,0,0-.21.24.24,0,0,0-.14-.09H38.3L36,36V34.89H33.09v-3a1,1,0,1,0-1.35-1.49l-.06.11H25.84a1.06,1.06,0,0,0-.31-.36l-.1-.06v-2H28.8a.21.21,0,0,0,.19-.11l0-.05L31,22a.18.18,0,0,0,0-.2.2.2,0,0,0-.13-.09h-.05l-2.33,0V20.6H24.05a.83.83,0,0,1-.79-.67l0-.11ZM25.31,13a19,19,0,1,1-19,19A19,19,0,0,1,25.31,13Z"/></svg>