<svg id="图层_1" data-name="图层 1" xmlns="http://www.w3.org/2000/svg" xmlns:xlink="http://www.w3.org/1999/xlink" viewBox="0 0 160 64"><defs><style>.cls-1{fill:none;clip-rule:evenodd;}.cls-2{clip-path:url(#clip-path);}.cls-3{fill:#020202;}.cls-3,.cls-4{fill-rule:evenodd;}.cls-4{fill:#3278ff;}</style><clipPath id="clip-path"><path class="cls-1" d="M-171.91-80.42a1,1,0,0,1,1.28-.81,1.93,1.93,0,0,1,1.43,2.43,5.79,5.79,0,0,1-.42-.81.76.76,0,0,0-.74-.57c-.25,0-.61.55-.61.88a7.84,7.84,0,0,1-.09,1.36c-.09-.56-.49-1.08-.21-1.68a1.54,1.54,0,0,0,.07-.68c0-.07-.1-.22-.16-.22a3.76,3.76,0,0,0-.55.1"/></clipPath></defs><title>icon</title><path class="cls-3" d="M128.86,24v3.34h-3.52V24Zm-12.94,6.94h-1.31v7H116c2.36.05,3.52-1.07,3.46-3.38C119.52,32.09,118.33,30.88,115.92,30.94Zm-14.41,0H100.2v7h1.39c2.36.05,3.51-1.07,3.46-3.38C105.1,32.09,103.92,30.88,101.51,30.94ZM90.62,35.13H88q-2.59,0-2.55,1.47c0,1,.85,1.47,2.51,1.47h2.7Zm44.1-6.48,2.66,4,2.61-4h3.91l-4.15,5.7,4.43,5.91h-4.11l-2.69-4.08-2.84,4.08h-4.09l4.45-5.93-4.07-5.68Zm-5.86,0V40.26h-3.52V28.65ZM94,33.36v6.9h-7q-5,0-5-3.56-.21-3.89,5.76-3.76h2.86c-.06-1.33-.9-2-2.54-2.06a2.76,2.76,0,0,0-2.67,1.53H82.06q1.16-4,6-4C92.09,28.29,94.05,30,94,33.36ZM79.89,24v2.29L70.15,38H80.21v2.29H65.82V38l9.64-11.66H66.14V24Zm34.72,0v4.65h2.09q6.51-.11,6.4,5.86.15,5.9-6.42,5.75h-5.61V24ZM100.2,24v4.65h2.09q6.51-.11,6.4,5.86.15,5.9-6.42,5.75H96.66V24Z"/><path class="cls-4" d="M34.82,13a19,19,0,0,1,16.55,9.66H18.28A19,19,0,0,1,34.82,13ZM27.68,27.89l-.19,2.85H24.4l.25-2.85Zm9.49,4.68-.3,3H34.81l.43-3Zm3.21-3.76h-8V30h5l-.14,1.44H32.54l-.7,5.2h7.88Zm-9.57-2.12H21.7l-.88,10.15h3.05l.43-4.9h6.21ZM44,28.8H41.39l2.54,5.53-1.72,3.2h2.61l4.7-8.74H46.91l-1.54,3Zm7.6-5.68a19,19,0,0,1,0,17.76H18a19,19,0,0,1,0-17.76Zm-.25,18.22a19,19,0,0,1-33.09,0Z"/></svg>