<svg id="图层_1" data-name="图层 1" xmlns="http://www.w3.org/2000/svg" xmlns:xlink="http://www.w3.org/1999/xlink" viewBox="0 0 160 64"><defs><style>.cls-1{fill:none;clip-rule:evenodd;}.cls-2{clip-path:url(#clip-path);}.cls-3{fill:#231916;fill-rule:evenodd;}</style><clipPath id="clip-path"><path class="cls-1" d="M-171.91,18.49a1,1,0,0,1,1.28-.8,1.92,1.92,0,0,1,1.43,2.42,5.74,5.74,0,0,1-.42-.8.78.78,0,0,0-.74-.58c-.25,0-.61.56-.61.88a7.84,7.84,0,0,1-.09,1.36c-.09-.56-.49-1.07-.21-1.68a1.54,1.54,0,0,0,.07-.68c0-.07-.1-.21-.16-.21a2.74,2.74,0,0,0-.55.09"/></clipPath></defs><title>icon</title><path class="cls-3" d="M96.59,22A2.56,2.56,0,0,1,99,24.51,2.45,2.45,0,0,1,96.47,27,2.42,2.42,0,0,1,94,24.48,2.6,2.6,0,0,1,96.59,22ZM50.72,30a1.82,1.82,0,0,0-1.83,1.28,18.36,18.36,0,0,0-.47,2.16l-.11.55H52.4a5.74,5.74,0,0,0-.5-3.18A1.3,1.3,0,0,0,50.72,30Zm77-.88c.78.13,1.55.34,2.36.52.07-.18.14-.38.22-.58,1-.1,1-.1,1,.86,0,.53.07,1,.09,1.57s0,1.05,0,1.59a.75.75,0,0,1-1.06-.49,4.13,4.13,0,0,0-2.65-2.43,2.86,2.86,0,0,0-2,.14,1.41,1.41,0,0,0-.15,2.42,10.66,10.66,0,0,0,2.57,1,8.77,8.77,0,0,1,2.83,1.34,3.71,3.71,0,0,1,1,1.64l.09.2v1.69c-.14.34-.26.7-.43,1a4.63,4.63,0,0,1-3.31,2.15,8.24,8.24,0,0,1-5.68-.78,1.09,1.09,0,0,0-.24-.07c-.4.85-.14.77-1.19.72H121V37.19h.79A6.62,6.62,0,0,0,123.74,40a3.75,3.75,0,0,0,3.66.84,1.68,1.68,0,0,0,1.07-1.61,1.85,1.85,0,0,0-1.21-1.53c-1.13-.4-2.28-.74-3.4-1.17a3.7,3.7,0,0,1-2.5-2.78,3.4,3.4,0,0,1,1.89-4A6.9,6.9,0,0,1,127.71,29.12Zm-73.49.59a4.37,4.37,0,0,1,2.55,4.08c0,.31,0,.61,0,.94v.33H48.39c.14,1.47.2,2.85,1.18,4a4.09,4.09,0,0,0,5.52.16,9.31,9.31,0,0,1,1-.87l.25-.21-.12-.12h.06c.93.63.93.63.18,1.5A6.6,6.6,0,0,1,51.58,42a8.32,8.32,0,0,1-4.38-.78,5.55,5.55,0,0,1-3-4.06,6.76,6.76,0,0,1,1.14-5.6,5.94,5.94,0,0,1,2.92-2.08A8,8,0,0,1,54.22,29.71ZM42,24v.86l-.86.18-.43.08a1,1,0,0,0-1,1.2c0,3.21,0,6.42,0,9.63a5.78,5.78,0,0,1-1.48,4,6.1,6.1,0,0,1-3.43,1.84,7.5,7.5,0,0,1-3.93-.19A3.82,3.82,0,0,1,28.19,39a3.05,3.05,0,0,1,.68-3.28,2.47,2.47,0,0,1,3.21,0,2.24,2.24,0,0,1,0,3.14c-.38.41-.79.79-1.29,1.3a3.19,3.19,0,0,0,.91.54,2.71,2.71,0,0,0,3.18-1.7,6,6,0,0,0,.43-2.44c0-1.11,0-2.22,0-3.33V26.62a1.2,1.2,0,0,0-1-1.39,6.05,6.05,0,0,0-.73-.2l-.51-.1-.26,0V24Zm57.13,5.61c0,3.19,0,6.39,0,9.58,0,1.09.23,1.53,1.23,1.75.58.14.72.41.62.94l0,.12H93.39c-.16-.86-.15-.88.64-1a1.33,1.33,0,0,0,1.16-1.45c0-2.49,0-5,0-7.46a1.87,1.87,0,0,0-1.46-1.78L93,30.19a1.72,1.72,0,0,1,0-.56c.07-.16.23-.37.37-.38.95-.07,1.91-.09,2.87-.13.77,0,1.54-.05,2.31-.12C99,29,99.13,29.16,99.13,29.61Zm16-.13a3.48,3.48,0,0,1,2,3.32c.08,2.07,0,4.15,0,6.22,0,1.65.39,1.82,1.68,2.06l.15,0V42h-7.58c0-.17,0-.35,0-.52s.1-.42.41-.43c.78,0,1.19-.18,1.21-1.32,0-2.07,0-4.14,0-6.21,0-1.18-.6-2.23-1.4-2.36a3.05,3.05,0,0,0-2.56.7,1.93,1.93,0,0,0-.75,1.73c.06,1.88.06,3.78,0,5.67,0,1.31.33,1.59,1.46,1.82l.16,0V42h-7.71a3.52,3.52,0,0,0,0-.47c0-.36.12-.48.48-.48a1.31,1.31,0,0,0,1.3-.66,2.4,2.4,0,0,0,.18-1c0-2.23,0-4.47,0-6.7,0-1.14-.27-1.83-1.82-2.16a1.67,1.67,0,0,0-.34,0,1.77,1.77,0,0,1,0-.57c.07-.15.25-.36.39-.37,1-.06,2-.08,3-.12.77,0,1.55-.06,2.32-.12.47,0,.61.16.58.6s0,.86,0,1.31a17.33,17.33,0,0,1,2.34-1.63A5.1,5.1,0,0,1,115.14,29.48Zm-43.06,0a3.45,3.45,0,0,1,2.08,3.34c.07,2.16,0,4.32,0,6.48a2.42,2.42,0,0,0,0,.54c.2.85.51,1.1,1.6,1.25l.19,0V42H68.47c-.19-.82-.16-.86.6-1a1.05,1.05,0,0,0,1-1.15q0-3.27,0-6.54a3.24,3.24,0,0,0-.24-1.09,1.86,1.86,0,0,0-2.34-1.11,3.81,3.81,0,0,0-2,1.32.72.72,0,0,0-.13.44q0,3.42,0,6.86c0,.72.45,1.12,1.43,1.28l.19,0V42H59.3c-.17-.81-.16-.83.61-.93s1.27-.6,1.28-1.64c0-2.29.07-4.58,0-6.86-.05-1.25-.32-1.77-2.16-2.14a2.16,2.16,0,0,0,0-.36c-.06-.43.12-.55.55-.56,1.74,0,3.47-.13,5.2-.22.45,0,.62.13.58.59s0,.86,0,1.37a21.11,21.11,0,0,1,1.81-1.4A5.21,5.21,0,0,1,72.08,29.45Zm10.36-6.83q0,4.06,0,8.13v4.76a2,2,0,0,0,.33-.2c.95-.91,1.89-1.83,2.83-2.75.39-.39.8-.77,1.17-1.19s.31-.91-.36-1.09l-.65-.17L85.4,30v-.79h6.5v.67c-1.07.51-2.16,1-3.17,1.53a16.54,16.54,0,0,0-2.2,1.64.56.56,0,0,0,0,.49c1,1.44,1.93,2.86,2.9,4.29.51.74,1,1.46,1.53,2.22a2.33,2.33,0,0,0,1.78.93l.18,0H93v1h-.91c-1.54,0-3.09,0-4.64,0a.65.65,0,0,1-.63-.37c-1.11-1.77-2.24-3.52-3.36-5.27a1,1,0,0,0-.21-.2c-.76.26-.9.81-.83,1.51,0,.55,0,1.11,0,1.66,0,1,.2,1.4,1.21,1.59.66.13.72.43.62.93l0,.11H76.36c-.1-.84-.1-.84.67-1s1.21-.48,1.25-1.34V25.38a1.81,1.81,0,0,0-1.74-2.05c-.12,0-.23-.06-.35-.09L76,23.18v-.83l1.44-.12c1.46-.08,2.92-.13,4.38-.23C82.3,22,82.44,22.14,82.44,22.62Z"/></svg>