<svg id="图层_1" data-name="图层 1" xmlns="http://www.w3.org/2000/svg" xmlns:xlink="http://www.w3.org/1999/xlink" viewBox="0 0 160 64"><defs><style>.cls-1{fill:none;clip-rule:evenodd;}.cls-2{clip-path:url(#clip-path);}.cls-3{fill:#1254cc;}.cls-3,.cls-4{fill-rule:evenodd;}.cls-4{fill:#020202;}</style><clipPath id="clip-path"><path class="cls-1" d="M-764.3-457.6a1,1,0,0,1,1.28-.8,1.94,1.94,0,0,1,1.43,2.43,6.4,6.4,0,0,1-.42-.81.78.78,0,0,0-.74-.58c-.25,0-.61.56-.61.88a7.77,7.77,0,0,1-.09,1.36c-.09-.56-.49-1.07-.21-1.68a1.65,1.65,0,0,0,.07-.67c0-.08-.1-.22-.16-.22a3.7,3.7,0,0,0-.55.09"/></clipPath></defs><title>icon</title><path class="cls-3" d="M33.23,22a.54.54,0,1,1-.54.53A.54.54,0,0,1,33.23,22Zm3.51.06a.54.54,0,1,1-.53.54A.54.54,0,0,1,36.74,22ZM35,22a.54.54,0,1,1-.54.54A.54.54,0,0,1,35,22ZM52.28,22a.42.42,0,0,1,.4.33v.4a.42.42,0,0,1-.33.41H38.91a.43.43,0,0,1-.41-.33v-.4a.43.43,0,0,1,.33-.41H52.28ZM43.83,29.5a.33.33,0,0,0-.15,0,.36.36,0,0,0-.11.1.5.5,0,0,0,0,.13,1,1,0,0,0,0,.17,1.11,1.11,0,0,0,0,.19.58.58,0,0,0,0,.14.39.39,0,0,0,.1.08.35.35,0,0,0,.16,0,.33.33,0,0,0,.15,0,.24.24,0,0,0,.1-.1.3.3,0,0,0,.06-.14.81.81,0,0,0,0-.16,1,1,0,0,0,0-.18.46.46,0,0,0,0-.14.28.28,0,0,0-.1-.09A.38.38,0,0,0,43.83,29.5Zm-1.21-.19h.13v1h.42v.17s0,0,0,0h-.59s0,0,0,0l0,0V29.35a0,0,0,0,1,0,0h.12Zm4.67,0h.16v1.17l0,0h-.24l0,0a.1.1,0,0,1,0-.05l0,0-.37-.68-.08-.18v.94h0l0,0h-.2V29.4a.09.09,0,0,1,0-.07h.26l0,0,0,0,0,.06.31.58.09.2v-.88a0,0,0,0,1,0,0Zm-1.27,0h.13v1.19h-.23l0,0h0v-1.2H46Zm-.8,0h.15l.11,0,.09,0,0,0,0,0v.16h0l-.1-.05-.11,0a.39.39,0,0,0-.15,0,.47.47,0,0,0-.17,0,.27.27,0,0,0-.12.09.32.32,0,0,0-.08.14.47.47,0,0,0,0,.17.5.5,0,0,0,0,.19.32.32,0,0,0,.08.14.25.25,0,0,0,.12.08.41.41,0,0,0,.16,0h.12l0,0V30h-.24s0,0,0,0v-.15s0,0,0,0h.49v.56a.07.07,0,0,1,0,.05,0,0,0,0,1,0,0l-.08,0-.09,0-.1,0h-.1a.77.77,0,0,1-.27,0,.56.56,0,0,1-.2-.12.63.63,0,0,1-.13-.2.77.77,0,0,1,0-.27.66.66,0,0,1,0-.28.57.57,0,0,1,.33-.33A.76.76,0,0,1,45.22,29.29Zm-1.38,0a.62.62,0,0,1,.25,0,.42.42,0,0,1,.18.11.43.43,0,0,1,.11.2,1,1,0,0,1,0,.56.53.53,0,0,1-.11.21.5.5,0,0,1-.19.13.71.71,0,0,1-.26,0,1,1,0,0,1-.26,0,.57.57,0,0,1-.18-.12.55.55,0,0,1-.11-.2,1.23,1.23,0,0,1,0-.29.77.77,0,0,1,0-.27.48.48,0,0,1,.3-.34A.68.68,0,0,1,43.84,29.29Zm7.6,2.41a.47.47,0,0,1,.46.38v1.57a.46.46,0,0,1-.38.46H42.7a.48.48,0,0,1-.46-.38V32.17a.46.46,0,0,1,.38-.46h8.82Zm-14.84.11a1.25,1.25,0,0,0-.82.58l-.14.2-.07.09a1.91,1.91,0,0,1-.17.24,2.75,2.75,0,0,0,1.08,2.3,1.23,1.23,0,0,0,1.28,0,2.65,2.65,0,0,0,1.08-2.12l-.17,0A1.89,1.89,0,0,1,38,33a2.85,2.85,0,0,1-.72-.52L36.78,32l-.13-.11Zm1.3,4-.49.51.13.19L38,36Zm-1,.52-.54-.53-.14.11.56.61Zm14.55-1.28a.46.46,0,0,1,.46.38V37a.46.46,0,0,1-.38.46H42.7a.48.48,0,0,1-.46-.39V35.56a.46.46,0,0,1,.38-.46h8.82Zm-11-5.7H33.82a.41.41,0,0,0-.41.35V38a.43.43,0,0,0,.35.42h.51V36.25a.31.31,0,0,1,.24-.3h.08l1.12,0c0-.06,0-.1.09-.18l.11-.11.17-.15A3.26,3.26,0,0,1,34.94,33a.53.53,0,0,1-.15-.38v-.08a2,2,0,0,1,2.33-2.25A2.2,2.2,0,0,1,39,31l.07.09,0-.22,0,.37a2.11,2.11,0,0,1,.21.93,1.55,1.55,0,0,1,0,.33l0,.11a1.77,1.77,0,0,1,0,.23,3.34,3.34,0,0,1-1.13,2.64l.16.15.11.1a.36.36,0,0,1,.09.15v0h1.15a.31.31,0,0,1,.3.24v2.26h.46a.43.43,0,0,0,.42-.35V29.81a.41.41,0,0,0-.34-.41Zm0-.46a.89.89,0,0,1,.88.77V38a.89.89,0,0,1-.77.88H33.82a.88.88,0,0,1-.87-.78V29.81a.88.88,0,0,1,.77-.87h6.74Zm13-8.06H31.92a.6.6,0,0,0-.6.51v2.2a.6.6,0,0,0,.41.57.85.85,0,0,0-.31.54V43.54a.84.84,0,0,0,.74.84H53.09a.84.84,0,0,0,.84-.74V24.8a.83.83,0,0,0-.32-.66.57.57,0,0,0,.39-.47v-2.2A.6.6,0,0,0,53.41,20.87ZM42.48,13a19,19,0,1,1-19,19A19,19,0,0,1,42.48,13Z"/><path class="cls-4" d="M76.47,25.1q-5.16.38-5.44,7.39.21,7,5.44,7.31,5.3-.18,5.43-7.31Q81.69,25.35,76.47,25.1Zm22-2.8,3.83,14.42,3.86-14.42H113V42.53h-4.28v-16l-4.41,16h-4L96,26.56v16H91.76V22.3ZM127.76,22q7.33.09,8.76,6.63h-4.3A4.27,4.27,0,0,0,128,25.18q-5.16.3-5.34,7.38.33,6.21,6.29,6.56a9.78,9.78,0,0,0,6.93-3.4v4.2q-2.78,3-7.86,3-9.33-.52-9.86-10.54Q118.7,22.57,127.76,22ZM76.47,22q9.28.55,9.93,10.44-.24,10.17-9.93,10.44-9.64-.33-10-10.44Q66.95,22.42,76.47,22Z"/></svg>