<svg id="图层_1" data-name="图层 1" xmlns="http://www.w3.org/2000/svg" xmlns:xlink="http://www.w3.org/1999/xlink" viewBox="0 0 160 64"><defs><style>.cls-1{fill:none;clip-rule:evenodd;}.cls-2{clip-path:url(#clip-path);}.cls-3{fill:#c00;fill-rule:evenodd;}</style><clipPath id="clip-path"><path class="cls-1" d="M24.83-558.68a1,1,0,0,1,1.28-.81,1.93,1.93,0,0,1,1.43,2.43,5.79,5.79,0,0,1-.42-.81.76.76,0,0,0-.74-.57c-.25,0-.61.55-.61.87a7.89,7.89,0,0,1-.09,1.37c-.09-.56-.49-1.08-.21-1.68a1.7,1.7,0,0,0,.07-.68c0-.08-.1-.22-.16-.22a3.76,3.76,0,0,0-.55.1"/></clipPath></defs><title>icon</title><path class="cls-3" d="M79.38,25.56H72.86v.74h6.52Zm-1.61,2.65V29.6H74.42V28.21Zm-7.47-1.3h-.7a26.43,26.43,0,0,1-.17,3l-.09.73h.82A36.51,36.51,0,0,0,70.3,26.91Zm7.47,3.43v.83c0,.42-.14.64-.5.65H74.42V30.34Zm1.09-2.91H73.34v5.13h4.17a1.12,1.12,0,0,0,1.35-1.27V27.43ZM79.55,34h-7v.7h7ZM88.36,25H87.1v1.65H80.92v.83h4.92a12.78,12.78,0,0,1-4.77,5.59l-.36.23V34a12.07,12.07,0,0,0,6.21-6.2l.13-.32h0v5.91c0,.4-.16.6-.54.61h-1v.78H87c.87,0,1.33-.4,1.38-1.19V27.52h2.3v-.83h-2.3ZM71.9,25H70.82V35H71.9V28a3.76,3.76,0,0,1,.81.18l.24.08v-1a2.34,2.34,0,0,0-.7-.08l-.19,0H71.9Zm21.81-3.7a.11.11,0,0,1,.11.06V38.2a.08.08,0,0,1-.07.08h-27a.13.13,0,0,1-.11,0V21.43a.08.08,0,0,1,.07-.08h27Zm.42-1.64H66.35a1,1,0,0,0-1,1V40.38a1.06,1.06,0,0,0,.92,1.07H94.13a1,1,0,0,0,1-1V20.77A1,1,0,0,0,94.13,19.7Zm-10.7,22H76.77v3.64H73.59l0,0h0v1.86s0,0,0,0h13l0,0h0V45.37l0,0h-3.2ZM80,8A24,24,0,1,1,56,32,24,24,0,0,1,80,8Z"/></svg>