<svg id="图层_1" data-name="图层 1" xmlns="http://www.w3.org/2000/svg" xmlns:xlink="http://www.w3.org/1999/xlink" viewBox="0 0 160 64"><defs><style>.cls-1{fill:none;clip-rule:evenodd;}.cls-2{clip-path:url(#clip-path);}.cls-3{fill:#06f;}.cls-3,.cls-4{fill-rule:evenodd;}.cls-4{fill:#004fc5;}</style><clipPath id="clip-path"><path class="cls-1" d="M24.83-661.95a1,1,0,0,1,1.28-.8,1.93,1.93,0,0,1,1.43,2.43,5.79,5.79,0,0,1-.42-.81.78.78,0,0,0-.74-.58c-.25,0-.61.56-.61.88a7.71,7.71,0,0,1-.09,1.36c-.09-.56-.49-1.07-.21-1.68a1.63,1.63,0,0,0,.07-.67c0-.08-.1-.22-.16-.22a3.7,3.7,0,0,0-.55.09"/></clipPath></defs><title>icon</title><path class="cls-3" d="M98,13.92A18.08,18.08,0,1,0,116.09,32,18.11,18.11,0,0,0,98,13.92ZM96.53,37.5h-12v-.87h1.84V31.26H87.8v5.37h2.44V29.26H91.7v2.55h3.58v1H91.7v3.85h4.83ZM97,30.78a13,13,0,0,1-6.34-3.85,12.91,12.91,0,0,1-6.34,3.85v-.87a11.64,11.64,0,0,0,5.53-4.45h1.62A11.63,11.63,0,0,0,97,29.91Zm12.18-2.93h1.36a31.47,31.47,0,0,1-1.14,5.8h-1.25A30.93,30.93,0,0,0,109.14,27.85Zm-9,0a30.27,30.27,0,0,0,1,5.8H99.92a26,26,0,0,1-1.14-5.8ZM98.4,37.34v-.87h3.8V25.79h1.41V36.47h2V25.79H107V36.47h3.9v.87Z"/><path class="cls-4" d="M57.72,28.46a1,1,0,1,0,1,1A1,1,0,0,0,57.72,28.46Z"/><polygon class="cls-4" points="66.17 28.08 64.96 28.08 63.48 30.68 61.99 28.08 60.77 28.08 62.54 31.19 60.05 31.19 60.05 32.25 62.95 32.25 62.95 33.81 60.05 33.81 60.05 34.87 62.95 34.87 62.95 37.12 64.01 37.12 64.01 34.87 66.89 34.87 66.89 33.81 64.01 33.81 64.01 32.25 66.89 32.25 66.89 31.19 64.42 31.19 66.17 28.08"/><path class="cls-4" d="M78.92,21.77a19,19,0,1,0,0,20.46,19.9,19.9,0,0,1,0-20.46ZM72.45,33.36h0l0,.22a6.83,6.83,0,0,1-3.29,4.48l-.26.14v2.66a.34.34,0,0,1-.28.34H64.77a.35.35,0,0,1-.35-.35V38.92h-3v1.94a.34.34,0,0,1-.28.34H57.34a.35.35,0,0,1-.35-.35V38.2l-.07,0a6.78,6.78,0,0,1-2.29-2l-.18-.26-.05-.08h-3a.36.36,0,0,1-.35-.28V30.16a.36.36,0,0,1,.35-.36h2.25l.12-.33a6.88,6.88,0,0,1,1.83-2.59l.24-.21-1.06-3.28a.36.36,0,0,1,.16-.42l.07,0,.13,0,.2,0a4.51,4.51,0,0,1,3,.48,5,5,0,0,1,1.82,1.84l0,0h5.73a6.72,6.72,0,0,1,6.54,5.53l0,.13,0-.06a1.06,1.06,0,0,0,.1-.44v-.14c0-.25,0-.37-.13-.44l0,0-.09,0a.37.37,0,0,1-.16-.37l.31-1.5a.35.35,0,0,1,.42-.27,2.17,2.17,0,0,1,1,.52,2.73,2.73,0,0,1,.89,2.13A3,3,0,0,1,72.45,33.36Z"/></svg>