<svg id="图层_1" data-name="图层 1" xmlns="http://www.w3.org/2000/svg" xmlns:xlink="http://www.w3.org/1999/xlink" viewBox="0 0 160 64"><defs><style>.cls-1{fill:none;clip-rule:evenodd;}.cls-2{clip-path:url(#clip-path);}.cls-3,.cls-4{fill-rule:evenodd;}.cls-4{fill:#c71d23;}</style><clipPath id="clip-path"><path class="cls-1" d="M-764.3-661.95a1,1,0,0,1,1.28-.8,1.94,1.94,0,0,1,1.43,2.43,5.79,5.79,0,0,1-.42-.81.78.78,0,0,0-.74-.58c-.25,0-.61.56-.61.88a7.71,7.71,0,0,1-.09,1.36c-.09-.56-.49-1.07-.21-1.68a1.63,1.63,0,0,0,.07-.67c0-.08-.1-.22-.16-.22a3.7,3.7,0,0,0-.55.09"/></clipPath></defs><title>icon</title><path class="cls-3" d="M74.57,46.59a12.2,12.2,0,0,0,6.78-1.66,4.94,4.94,0,0,0,2.53-4.28q0-4.24-6.34-4.25h-2.6a4.86,4.86,0,0,1-1.86-.25.87.87,0,0,1-.57-.85,1.37,1.37,0,0,1,.37-1,.32.32,0,0,1,.36-.11,6.4,6.4,0,0,0,1.73.25,7.61,7.61,0,0,0,4.74-1.4,4.89,4.89,0,0,0,1.82-4.15,4.33,4.33,0,0,0-.36-1.81.11.11,0,0,1,0-.12.14.14,0,0,1,.13-.08H82a1.62,1.62,0,0,0,1.19-.48,1.6,1.6,0,0,0,.48-1.18v-.4a1.66,1.66,0,0,0-.48-1.18A1.63,1.63,0,0,0,82,23.16H77.8a1.64,1.64,0,0,1-.42-.06A8.4,8.4,0,0,0,75,22.76a8.76,8.76,0,0,0-3.37.64,5.81,5.81,0,0,0-2.53,2,5.53,5.53,0,0,0-1,3.32,4.94,4.94,0,0,0,.62,2.44A5.51,5.51,0,0,0,70.25,33a.1.1,0,0,1,0,.08.21.21,0,0,1,0,.12A4.4,4.4,0,0,0,69,34.55a3.31,3.31,0,0,0,1,4.46.11.11,0,0,1,0,.1.21.21,0,0,1,0,.12,4.52,4.52,0,0,0-1.72,1.39,3.12,3.12,0,0,0-.58,1.81,3.21,3.21,0,0,0,1,2.38,5.37,5.37,0,0,0,2.47,1.37A13.54,13.54,0,0,0,74.57,46.59ZM75,31.34a1.88,1.88,0,0,1-1.51-.67,2.8,2.8,0,0,1-.58-1.91,2.75,2.75,0,0,1,.58-1.88,2.07,2.07,0,0,1,3,0,2.72,2.72,0,0,1,.58,1.89,2.8,2.8,0,0,1-.58,1.91A1.88,1.88,0,0,1,75,31.34Zm.4,12a6,6,0,0,1-2.56-.44,1.39,1.39,0,0,1-1-1.31,1.84,1.84,0,0,1,.65-1.33.33.33,0,0,1,.25-.09h.09a11.27,11.27,0,0,0,2.15.15h1.55a4.89,4.89,0,0,1,1.83.25.93.93,0,0,1,.58.93,1.54,1.54,0,0,1-1,1.32A5.6,5.6,0,0,1,75.37,43.36ZM89.06,20.78a3,3,0,0,0,2.09-.73,2.43,2.43,0,0,0,.82-1.9,2.47,2.47,0,0,0-.82-1.91,3,3,0,0,0-2.09-.75,3.09,3.09,0,0,0-2.14.75,2.48,2.48,0,0,0-.83,1.91,2.44,2.44,0,0,0,.83,1.9A3.12,3.12,0,0,0,89.06,20.78Zm.88,18.79A1.67,1.67,0,0,0,91.6,37.9V24.74a1.67,1.67,0,0,0-1.66-1.66H88.15a1.61,1.61,0,0,0-1.19.49,1.62,1.62,0,0,0-.48,1.17V37.9A1.63,1.63,0,0,0,87,39.08a1.61,1.61,0,0,0,1.19.49Zm12.3.4a11.54,11.54,0,0,0,2.12-.2,1.47,1.47,0,0,0,1-.74,1.65,1.65,0,0,0,.25-.87c0-.13,0-.28,0-.43l-.12-.45a1.49,1.49,0,0,0-.71-1,2.59,2.59,0,0,0-1.27-.38q-2-.09-2-2.55V27.32a.18.18,0,0,1,.2-.2h2a1.59,1.59,0,0,0,1.17-.49,1.63,1.63,0,0,0,.5-1.18v-.71a1.69,1.69,0,0,0-1.67-1.66h-2a.18.18,0,0,1-.2-.2V20.42a1.58,1.58,0,0,0-.49-1.19,1.65,1.65,0,0,0-1.18-.48H99a1.86,1.86,0,0,0-1.25.46,2,2,0,0,0-.65,1.18l-.31,2.49a.25.25,0,0,1-.25.22l-.65.06A1.82,1.82,0,0,0,94.18,25v.48a1.67,1.67,0,0,0,1.67,1.67h.37c.13,0,.19.07.19.2v6.14a7.29,7.29,0,0,0,1.42,4.8A5.39,5.39,0,0,0,102.24,40Zm13.83,0a10.3,10.3,0,0,0,4.47-1,1.4,1.4,0,0,0,.8-1,1.42,1.42,0,0,0,.08-.45,1.63,1.63,0,0,0-.25-.85l-.09-.17a1.63,1.63,0,0,0-1-.79,2.21,2.21,0,0,0-.62-.09,2.12,2.12,0,0,0-.71.12,6.06,6.06,0,0,1-2,.34c-2.22,0-3.57-1-4-3a.16.16,0,0,1,0-.15.18.18,0,0,1,.15-.07h7.77a2,2,0,0,0,1.31-.47,1.56,1.56,0,0,0,.59-1.17v-.54a8.78,8.78,0,0,0-1.81-5.77,6.39,6.39,0,0,0-5.26-2.21,7.12,7.12,0,0,0-2.9.61,7.74,7.74,0,0,0-4.24,4.44,9.47,9.47,0,0,0-.67,3.61,8.46,8.46,0,0,0,2.36,6.31A8.26,8.26,0,0,0,116.07,40ZM118,29.5h-5.18c-.13,0-.2-.05-.2-.14a2.62,2.62,0,0,1,1.11-2.07,2.81,2.81,0,0,1,1.89-.68,2.41,2.41,0,0,1,1.91.72,3,3,0,0,1,.69,1.94v0C118.22,29.43,118.15,29.5,118,29.5ZM133.33,40a10.3,10.3,0,0,0,4.47-1,1.38,1.38,0,0,0,.79-1,1.2,1.2,0,0,0,.09-.45,1.65,1.65,0,0,0-.26-.85l-.08-.17a1.66,1.66,0,0,0-1-.79,2.28,2.28,0,0,0-.63-.09,2.06,2.06,0,0,0-.7.12,6.06,6.06,0,0,1-2,.34c-2.23,0-3.58-1-4-3a.14.14,0,0,1,0-.15.17.17,0,0,1,.14-.07h7.78a2,2,0,0,0,1.3-.47,1.54,1.54,0,0,0,.6-1.17v-.54A8.83,8.83,0,0,0,138,24.89a6.41,6.41,0,0,0-5.27-2.21,7.16,7.16,0,0,0-2.9.61A7.92,7.92,0,0,0,127.38,25a8.08,8.08,0,0,0-1.76,2.75,9.66,9.66,0,0,0-.66,3.61,8.42,8.42,0,0,0,2.36,6.31A8.24,8.24,0,0,0,133.33,40Zm1.92-10.47h-5.17c-.14,0-.2-.05-.2-.14a2.64,2.64,0,0,1,1.1-2.07,2.84,2.84,0,0,1,1.9-.68,2.42,2.42,0,0,1,1.91.72,3.09,3.09,0,0,1,.69,1.94v0C135.48,29.43,135.4,29.5,135.25,29.5Z"/><path class="cls-4" d="M39.1,13.27A18.73,18.73,0,1,0,58,32,18.84,18.84,0,0,0,39.1,13.27Zm10.34,23a6.28,6.28,0,0,1-6.27,6.28H29.46a.93.93,0,0,1-.93-.93v-13a7,7,0,0,1,7-7h13a.93.93,0,0,1,.93.93v2.33a.93.93,0,0,1-.93.93h-13a2.79,2.79,0,0,0-2.79,2.79v8.82a.93.93,0,0,0,.93.93h8.83a2.78,2.78,0,0,0,2.79-2.78v-.47a.93.93,0,0,0-.93-.93H37.82a.93.93,0,0,1-.93-.93V30.93a.93.93,0,0,1,.93-.93H48.51a.93.93,0,0,1,.93.93Z"/></svg>