<svg id="图层_1" data-name="图层 1" xmlns="http://www.w3.org/2000/svg" xmlns:xlink="http://www.w3.org/1999/xlink" viewBox="0 0 160 64"><defs><style>.cls-1{fill:none;clip-rule:evenodd;}.cls-2{clip-path:url(#clip-path);}.cls-3{fill:#3278ff;fill-rule:evenodd;}</style><clipPath id="clip-path"><path class="cls-1" d="M-563.21-558.68a1,1,0,0,1,1.28-.81,1.94,1.94,0,0,1,1.43,2.43,6,6,0,0,1-.43-.81.76.76,0,0,0-.73-.57c-.26,0-.61.55-.62.87a7,7,0,0,1-.09,1.37c-.08-.56-.48-1.08-.2-1.68a1.7,1.7,0,0,0,.07-.68c0-.08-.11-.22-.16-.22a3.53,3.53,0,0,0-.55.1"/></clipPath></defs><title>icon</title><path class="cls-3" d="M74.83,28.77,74.68,31H72.32l.19-2.18Zm7.25,3.58-.23,2.28H80.27l.33-2.28Zm2.45-2.87H78.46v.92h3.8l-.11,1.1H78.54l-.53,4h6Zm-7.31-1.62h-7l-.68,7.75h2.34l.32-3.74H77Zm10.09,1.61h-2l1.94,4.23-1.31,2.44h2l3.6-6.68h-2l-1.17,2.28Zm-19.45-.82c1.93-6.37,9-10.06,15.63-8.22a12,12,0,0,1,8.64,14.88c-1.93,6.37-8.94,10.06-15.64,8.22A12,12,0,0,1,67.86,28.65Zm14.47-14h-.85l-1.42,0-1.41.06-1.32.06-.72.05-.27,0-.22,0c-.11,0-.18,0-.19.05a1.15,1.15,0,0,0,.06.35l.08.32.38,1.37c0,.06,0,.12,0,.17l.07.29a.69.69,0,0,1,0,.22l0,0-.11.05-.17.08-.62.27-.81.34-.36.14-1.41.55-1,.38-.35.12-.08,0h0a.53.53,0,0,1-.13-.15l-.14-.22-.68-1.14-.2-.32c-.2-.3-.36-.51-.45-.53a.82.82,0,0,0-.25.14l-.23.17-.14.1-.3.25-.34.28-.57.48-.6.53-.59.53-.55.51L66,20.7l-.37.38-.17.18a.47.47,0,0,0-.11.16c0,.1.2.3.52.52l.29.2.32.2.89.53.19.13c.08.05.13.09.13.11v0l0,.13-.25.49-.6,1.15-.69,1.29-.66,1.18-.11.19-.07.11a0,0,0,0,0,0,0h0l-.12,0L63.7,27.2l-.35-.11L63,27l-.28-.07a.84.84,0,0,0-.35,0s-.11.22-.18.55l-.07.37-.07.43L62,29,61.84,30l-.08.8-.07.74,0,.63,0,.33v.24a.46.46,0,0,0,0,.16.48.48,0,0,0,.18,0h.26l.33,0,1.7-.13.26,0h.2l0,.05,0,.12.09.3.2.73.24.92.38,1.56.19.86.06.29v.12a0,0,0,0,1,0,0l-.1.06-.34.14-1.7.64-.31.13-.14.06-.11.07a.53.53,0,0,0,.06.13l.11.19.26.41.35.52.41.6L65.16,42l.69,1,.44.6.16.21.11.13s0,0,0,0l.07,0,.16-.13.35-.32,1.23-1.15.19-.16.11-.1h0l.07,0,.38.26,1,.7L72,44.36l.63.45.31.24a.36.36,0,0,1,.11.1s0,0,0,.06l-.1.19-.29.54L72,47.17l-.18.35a.4.4,0,0,0,0,.13s.08.08.23.16l.21.09.4.16.65.23.34.12.69.22.46.14.45.12.7.18.55.12.53.11.31.05.26,0a.69.69,0,0,0,.37,0,1.5,1.5,0,0,0,.1-.51l0-.36.11-1.38a1.88,1.88,0,0,1,.08-.53.67.67,0,0,1,.27-.06l.29,0,.36,0,.89-.08.75,0,1.24-.06.65,0h.85a.14.14,0,0,1,.09,0,.58.58,0,0,1,.08.21l.08.29.08.36.21,1,.08.36.07.28a.88.88,0,0,0,.09.22s.07,0,.16,0l.23-.07L85,48.8l.37-.13.43-.17.47-.18,1-.4.51-.21.73-.32.65-.29.52-.25a1.59,1.59,0,0,0,.51-.3c0-.08-.14-.34-.38-.65l-.21-.29-.69-.85-.18-.23c-.13-.17-.2-.29-.17-.31l.14-.12,2.71-2.52L92,41l.23-.19a.81.81,0,0,1,.23-.17.2.2,0,0,1,.09,0l.19.13L93,41l1.26.94.26.18a1,1,0,0,0,.3.17s0,0,.07-.06l.08-.11.16-.26.13-.23.38-.7.54-1,.51-1,.34-.69.29-.6.21-.47.07-.17,0-.12a.18.18,0,0,0,0,0c0-.05-.16-.1-.37-.16L97,36.6l-.69-.16-.87-.19-.27-.06c-.21-.06-.33-.1-.32-.13l0-.27L95.1,34l.18-1.53.1-.67,0-.19,0-.13s0-.06,0-.06.1,0,.22-.06h2.71V31.2l0-.23-.09-.48-.34-1.55-.43-1.87-.17-.68-.14-.55-.11-.38,0-.1a.11.11,0,0,0,0-.05.57.57,0,0,0-.17.05l-.24.09-.3.12-1.24.53-.44.18a1,1,0,0,1-.32.1s-.06,0-.13-.12L94,26.08l-.29-.41L93.26,25l-.67-1-.81-1.29-.29-.47L91.41,22s0-.06.11-.13l.18-.16,1.16-.91.28-.23c.26-.22.44-.39.44-.45s-.07-.1-.18-.2l-.21-.17-.28-.22-.51-.38-.59-.44L90.74,18l-1.38-1-.67-.46-.15-.09-.07,0a.44.44,0,0,0-.1.13l-.12.21-.14.28-.67,1.32-.14.27-.11.18-.06.09a.61.61,0,0,1-.31-.07l-.35-.14-.92-.4-.33-.14L84.89,18,84.73,18l-.3-.1-.15,0-.14,0-.32-.07-.52-.1-.82-.13-.25,0-.18,0-.08,0a.41.41,0,0,1,0-.17L82,17l.08-.49.19-1.12,0-.31a1.27,1.27,0,0,0,0-.42ZM80,8A24,24,0,1,1,56,32,24,24,0,0,1,80,8Z"/></svg>