<svg id="图层_1" data-name="图层 1" xmlns="http://www.w3.org/2000/svg" xmlns:xlink="http://www.w3.org/1999/xlink" viewBox="0 0 160 64"><defs><style>.cls-1{fill:none;clip-rule:evenodd;}.cls-2{clip-path:url(#clip-path);}.cls-3{fill:#5da500;fill-rule:evenodd;}</style><clipPath id="clip-path"><path class="cls-1" d="M-171.91-558.68a1,1,0,0,1,1.28-.81,1.93,1.93,0,0,1,1.43,2.43,5.79,5.79,0,0,1-.42-.81.76.76,0,0,0-.74-.57c-.25,0-.61.55-.61.87a7.89,7.89,0,0,1-.09,1.37c-.09-.56-.49-1.08-.21-1.68a1.54,1.54,0,0,0,.07-.68c0-.08-.1-.22-.16-.22a3.76,3.76,0,0,0-.55.1"/></clipPath></defs><title>icon</title><path class="cls-3" d="M79.89,23.63c.44,0,.7.43.7,1.18S80.38,26,79.92,26s-.73-.51-.73-1.2S79.48,23.63,79.89,23.63Zm-6.46,0c.45,0,.71.43.71,1.18S73.93,26,73.47,26s-.73-.51-.73-1.2S73,23.63,73.43,23.63Zm9.7,0c.45,0,.71.43.71,1.18S83.63,26,83.17,26s-.73-.51-.73-1.2S82.73,23.63,83.13,23.63Zm7.12-.58H90a3.91,3.91,0,0,1-.61.29l-.16.06,0,.35.11,0,.25-.1.13-.05.11-.05v2.21h-.72v.38H90.9v-.38h-.65Zm-19.85.22h-.3a3.18,3.18,0,0,1-.61.29l-.16.06,0,.36.11,0,.25-.09.13-.06.11-.05V26h-.72v.38h1.79V26H70.4Zm6.45,0h-.29a3.49,3.49,0,0,1-.61.29l-.17.06,0,.36.11,0,.26-.09.12-.06.11-.05V26h-.72v.38H77.5V26h-.65Zm9.75,0c-.69,0-1.14.62-1.14,1.57a2.09,2.09,0,0,0,.1.69l.2,0a1.07,1.07,0,0,1,.25,0,1.88,1.88,0,0,1-.12-.71c0-.75.29-1.17.69-1.17s.71.43.71,1.18-.18,1.1-.57,1.17a1.27,1.27,0,0,1,.18.37c.56-.16.83-.8.83-1.54S87.42,23.24,86.6,23.24Zm-13.15,0c-.69,0-1.14.62-1.14,1.57s.42,1.58,1.14,1.58,1.13-.72,1.13-1.58S74.27,23.24,73.45,23.24Zm9.7,0c-.69,0-1.14.62-1.14,1.57s.42,1.58,1.15,1.58,1.12-.72,1.12-1.58S84,23.24,83.15,23.24Zm-3.25,0c-.69,0-1.14.62-1.14,1.57s.42,1.58,1.15,1.58S81,25.67,81,24.81,80.72,23.24,79.9,23.24Zm-3.3,4.91c.44,0,.7.44.7,1.18s-.21,1.19-.67,1.19-.73-.5-.73-1.2S76.2,28.15,76.6,28.15Zm3.29,0c.44,0,.7.44.7,1.18s-.21,1.19-.67,1.19-.73-.5-.73-1.2S79.49,28.15,79.89,28.15Zm3.11,0c.44,0,.7.44.7,1.18s-.21,1.19-.67,1.19-.73-.5-.73-1.2S82.6,28.15,83,28.15Zm-9.31-.36h-.3a3.15,3.15,0,0,1-.61.3l-.16.06,0,.35.23-.08.26-.1.11-.05v2.21h-.73v.38h1.8v-.38h-.65Zm-3.29,0h-.3a3.15,3.15,0,0,1-.61.3l-.16.06,0,.35.23-.08.26-.1.11-.05v2.21h-.72v.38h1.79v-.38H70.4Zm19.85,0H90a3.91,3.91,0,0,1-.61.29l-.16.06,0,.36.23-.08.26-.11.11,0V30.5h-.72v.12l.06.17,0,.09H90.9V30.5h-.65Zm-3.3,0v.49a1.47,1.47,0,0,1,.29,1,1.7,1.7,0,0,1-.22.94l-.07.08v.54l0-.06a1.12,1.12,0,0,1,.61-.76,2.82,2.82,0,0,0,.1-.74,1.6,1.6,0,0,0-.61-1.43ZM83,27.77c-.69,0-1.14.61-1.14,1.56s.42,1.59,1.15,1.59,1.12-.73,1.12-1.59S83.83,27.77,83,27.77Zm-3.11,0c-.69,0-1.14.61-1.14,1.56s.42,1.59,1.15,1.59S81,30.19,81,29.33,80.72,27.77,79.9,27.77Zm-3.29,0c-.69,0-1.14.61-1.14,1.56s.43,1.59,1.15,1.59,1.12-.73,1.12-1.59S77.43,27.77,76.61,27.77Zm6.75,4.6c.44,0,.7.43.7,1.17s-.21,1.2-.67,1.2-.73-.51-.73-1.21S83,32.37,83.36,32.37Zm-3.25,0c.44,0,.7.43.7,1.17s-.2,1.2-.67,1.2-.73-.51-.73-1.21S79.71,32.37,80.11,32.37Zm-6.45,0c.44,0,.7.43.7,1.17s-.21,1.2-.67,1.2S73,34.23,73,33.53,73.26,32.37,73.66,32.37Zm-3-.36h-.3a3.91,3.91,0,0,1-.61.29l-.17.06,0,.36.24-.08.25-.11.11-.05v2.21h-.72v.39h1.79v-.39h-.64Zm6.45,0h-.3a3.91,3.91,0,0,1-.61.29l-.17.06.06.36.23-.08.26-.11.11-.05v2.21h-.73v.39h1.79v-.39h-.64Zm6.29,0c-.69,0-1.14.62-1.14,1.56a2.29,2.29,0,0,0,.16.87,2.83,2.83,0,0,1,1.19.7c.62-.12.92-.79.92-1.57S84.19,32,83.37,32Zm-9.7,0c-.69,0-1.14.62-1.14,1.56s.42,1.59,1.15,1.59,1.12-.73,1.12-1.59S74.49,32,73.67,32Zm6.46,0c-.7,0-1.15.62-1.15,1.56s.43,1.59,1.15,1.59a1,1,0,0,0,.74-.33.29.29,0,0,1,.08-.13l0-.06a2.09,2.09,0,0,0,.26-1.07C81.26,32.75,80.94,32,80.13,32Zm14-12.66H65.69a1.05,1.05,0,0,0-1,.94V39.45a1,1,0,0,0,.93,1H83.2c-.07-.22-.14-.45-.2-.7l-.11-.46-.41-.72-.31-.56-.23-.42-.11-.22H66.12a.13.13,0,0,1-.11-.05V21s0-.07.08-.08H93.7a.11.11,0,0,1,.11.06V37.33a.09.09,0,0,1,0,.05h0V40.5h.34a1.05,1.05,0,0,0,1-.94V20.37a1.05,1.05,0,0,0-.94-1ZM91.54,46a.54.54,0,0,1,.53.45v.77a.54.54,0,0,1-.45.52H86.94a.55.55,0,0,1-.53-.45v-.77a.53.53,0,0,1,.44-.52h4.69ZM85.76,26.07a.61.61,0,0,0-.61.51V39.11l-.56-1.58a2.27,2.27,0,0,0-.48-.79l-.29-.3-.09-.1,0-.05L83.53,36a4.31,4.31,0,0,0-.28-.42c-.28-.33-1.21-1-1.83-.57l0,.1,0,.1,0,.15.07.18.09.24.13.28.16.34.26.51.16.32.41.76.61,1.07,0,.06,0,.16c.59,2.55,1.66,4.18,3.1,4.73l.18.06.2.07V45.4h0a1.11,1.11,0,0,0-.57.16,1.15,1.15,0,0,0-.54.82v.82a1.11,1.11,0,0,0,1,1.1h4.72a1.12,1.12,0,0,0,1.11-1v-.81a1.1,1.1,0,0,0-.57-1,1.21,1.21,0,0,0-.43-.14h-.15V44.09l.17-.08a2.59,2.59,0,0,0,1.52-2.18V33.26a.56.56,0,0,0-.56-.56.55.55,0,0,0-.55.47V35.9l-.25,0a1.11,1.11,0,0,1-.73-.14.44.44,0,0,1-.17-.31v-3.3a.56.56,0,0,0-1.11-.09v3.26a.29.29,0,0,1,0,.13v.06l-.07.17h-.45a1.24,1.24,0,0,1-.38,0l-.08,0,0,0-.13-.11V31.09a.56.56,0,0,0-.56-.56.57.57,0,0,0-.55.47v4.65L86.37,36v-9.3A.61.61,0,0,0,85.76,26.07ZM80,8A24,24,0,1,1,56,32,24,24,0,0,1,80,8Z"/></svg>