<svg id="图层_1" data-name="图层 1" xmlns="http://www.w3.org/2000/svg" xmlns:xlink="http://www.w3.org/1999/xlink" viewBox="0 0 160 64"><defs><style>.cls-1{fill:none;clip-rule:evenodd;}.cls-2{clip-path:url(#clip-path);}.cls-3{fill:#c00;fill-rule:evenodd;}</style><clipPath id="clip-path"><path class="cls-1" d="M-764.3-558.68a1,1,0,0,1,1.28-.81,1.94,1.94,0,0,1,1.43,2.43,5.79,5.79,0,0,1-.42-.81.76.76,0,0,0-.74-.57c-.25,0-.61.55-.61.87a7.89,7.89,0,0,1-.09,1.37c-.09-.56-.49-1.08-.21-1.68a1.7,1.7,0,0,0,.07-.68c0-.08-.1-.22-.16-.22a3.76,3.76,0,0,0-.55.1"/></clipPath></defs><title>icon</title><path class="cls-3" d="M73.73,25h8.82a1.09,1.09,0,0,1,.11,2.14l-.11,0H73.86A1.09,1.09,0,0,1,72.8,25.5a1.06,1.06,0,0,1,.81-.5Zm3.4,6.52a1.09,1.09,0,0,1,.11,2.14l-.11,0H73.88a1.09,1.09,0,0,1-.12-2.14l.12,0Zm0,7a1.08,1.08,0,0,1,0,1.17,1.09,1.09,0,0,1-.93.51h-2.3a1.1,1.1,0,0,1-1.06-.5,1.12,1.12,0,0,1,0-1.17,1.08,1.08,0,0,1,.93-.5H76A1.07,1.07,0,0,1,77.09,38.51ZM93,25.53a1.09,1.09,0,0,0-1.48.41l-8,14.14,2.83,1.63,8-14.17a1.1,1.1,0,0,0-.41-1.47Zm-8.27-6h-13a3.26,3.26,0,0,0-3.25,3.26V42.34a3.26,3.26,0,0,0,3.25,3.26H76.4L88,25.26V22.82A3.26,3.26,0,0,0,84.71,19.56ZM82.92,41l-.73,4.57,3.56-3ZM80,8A24,24,0,1,1,56,32,24,24,0,0,1,80,8Z"/></svg>