<svg id="图层_1" data-name="图层 1" xmlns="http://www.w3.org/2000/svg" xmlns:xlink="http://www.w3.org/1999/xlink" viewBox="0 0 160 64"><defs><style>.cls-1{fill:none;clip-rule:evenodd;}.cls-2{clip-path:url(#clip-path);}.cls-3,.cls-4{fill-rule:evenodd;}.cls-4{fill:#393;}</style><clipPath id="clip-path"><path class="cls-1" d="M-366.47-457.6a1,1,0,0,1,1.28-.8,1.94,1.94,0,0,1,1.43,2.43,6.63,6.63,0,0,1-.43-.81.78.78,0,0,0-.74-.58c-.25,0-.6.56-.61.88a6.91,6.91,0,0,1-.09,1.36c-.08-.56-.48-1.07-.2-1.68a1.65,1.65,0,0,0,.07-.67c0-.08-.11-.22-.16-.22a3.32,3.32,0,0,0-.55.09"/></clipPath></defs><title>icon</title><path class="cls-3" d="M120.09,25.27a14.9,14.9,0,0,0-5-1.32v2a24.74,24.74,0,0,1,5,1.75Z"/><path class="cls-3" d="M119.68,30.62a13.74,13.74,0,0,0-5.15-1.47v2.09a27,27,0,0,1,5.15,1.86Z"/><path class="cls-3" d="M95.2,35.44h6.58v-8.7h-7V25.22h8.49V23.43H94.79V22H91.86v4.74H85.75v8.7h6.52v1.72H83.49V39h8.78v3.7H95.2V39H104V37.16H95.2Zm-6.65-7H99v1.77H88.55Zm0,5.29V31.87H99v1.89Z"/><path class="cls-3" d="M69.94,24.81H67V22.05H64.81v2.76h-3V37.5h3v5.06H67V37.5h3Zm-5.13,11H63.63v-4h1.18Zm0-5.68H63.63v-3.6h1.18Zm3.31,5.68H67v-4h1.13Zm0-5.68H67v-3.6h1.13Z"/><path class="cls-3" d="M134.71,30.94c-.68.2-1.26.35-1.73.46l-.25.06V27.11h1.84V25.27h-1.84V22.11H130v3.16h-2.22v1.84H130v4.94c-.7.12-1.5.25-2.41.37v2.24c.81-.12,1.61-.26,2.41-.43v6.4h-1.82v1.86h4.54V33.57c.71-.19,1.37-.4,2-.61Z"/><path class="cls-3" d="M105.86,23v1.84h2.82v2.81h-3v1.86h2.86a30.52,30.52,0,0,1-3.09,6.86v2.7a15.53,15.53,0,0,0,3.23-4.52v8.06h2.61V34.1a14.5,14.5,0,0,0,2.49,3.2V34.53a18.67,18.67,0,0,1-2.47-5h2.63V27.67h-2.65V24.86a12.11,12.11,0,0,0,2.67-.43V22.5a13.39,13.39,0,0,1-3.76.52Z"/><polygon class="cls-3" points="123.68 22.11 120.91 22.11 120.91 35.23 114.26 35.23 114.26 37.11 120.91 37.11 120.91 42.63 123.68 42.63 123.68 37.11 126.22 37.11 126.22 35.23 123.68 35.23 123.68 22.11"/><path class="cls-3" d="M80.47,25v-1.9H70.91V25h5.93a45.74,45.74,0,0,1-6.15,4.45v1.81h1.06c0,3.86-.81,6.8-2.38,8.81v2.63Q73.72,39.56,74,31.21H75.5c0,3.95-.84,6.9-2.43,8.83v2.61q4.4-2.79,4.61-11.44H78.9v9.2H76.54v1.81h4.77V29.38H74.43A38.18,38.18,0,0,0,80.47,25Z"/><path class="cls-3" d="M143.42,38a16.34,16.34,0,0,0,4-6.67V29.49h-4.56V26.38H148V24.54h-5.2V22.07h-2.9v2.47H135.3v1.84h4.63v3.11h-4.5v1.86h9.06a14,14,0,0,1-3.09,5,13.68,13.68,0,0,1-2.79-4.06h-2.79A17.41,17.41,0,0,0,139.43,38a21.09,21.09,0,0,1-5.06,2.52v2.18a23.81,23.81,0,0,0,7-3,20.87,20.87,0,0,0,6.77,3V40.43A20.83,20.83,0,0,1,143.42,38Z"/><path class="cls-4" d="M31.21,32.76H26.54a.69.69,0,0,0,0,1.38h4.67a.69.69,0,0,0,0-1.38Z"/><path class="cls-4" d="M34.38,29.18H26.54a.69.69,0,0,0,0,1.38h7.84a.69.69,0,1,0,0-1.38Z"/><path class="cls-4" d="M30.83,13a19,19,0,1,0,19,19A19,19,0,0,0,30.83,13Zm10,24.21a1.54,1.54,0,0,1-1.54,1.54H26.12a.78.78,0,0,0-.51.19L22.1,42a.78.78,0,0,1-1.28-.59V25.33a1.54,1.54,0,0,1,1.54-1.54h17a1.54,1.54,0,0,1,1.54,1.54Z"/></svg>