<svg id="图层_1" data-name="图层 1" xmlns="http://www.w3.org/2000/svg" xmlns:xlink="http://www.w3.org/1999/xlink" viewBox="0 0 160 64"><defs><style>.cls-1{fill:none;clip-rule:evenodd;}.cls-2{clip-path:url(#clip-path);}.cls-3{fill:#e84441;}.cls-3,.cls-4,.cls-5,.cls-6,.cls-7{fill-rule:evenodd;}.cls-4{fill:#9680b9;}.cls-5{fill:#379139;}.cls-6{fill:#f1931d;}.cls-7{fill:#fff;}</style><clipPath id="clip-path"><path class="cls-1" d="M-563.21-661.95a1,1,0,0,1,1.28-.8,1.94,1.94,0,0,1,1.43,2.43,6,6,0,0,1-.43-.81.78.78,0,0,0-.73-.58c-.26,0-.61.56-.62.88a6.86,6.86,0,0,1-.09,1.36c-.08-.56-.48-1.07-.2-1.68a1.63,1.63,0,0,0,.07-.67c0-.08-.11-.22-.16-.22a3.5,3.5,0,0,0-.55.09"/></clipPath></defs><title>icon</title><path class="cls-3" d="M33.11,19.62a2.81,2.81,0,0,0-.84,3.3L43.08,50.15A3.71,3.71,0,0,0,46,51c1.92-.17,14.13-3.3,14.13-3.3s1.42-.62,1.66-1.65S59.7,14.66,59.7,14.66s0-1.83-1.25-1.65-25.34,6.61-25.34,6.61"/><path class="cls-4" d="M82.89,22.4s-4.19-.86-5,0a7,7,0,0,0-1.66,4.12c-.09,1.67-2.73,15.92-.83,17.75,1.06,1,14,6.16,17,6.6s3.74-.41,3.74-.41l10.39-22.7s.64-2.13-.42-2.06-23.27-3.3-23.27-3.3"/><path class="cls-5" d="M64.87,19.93s-2.32-.26-3.51.73a7.52,7.52,0,0,0-1.63,3c-1,3.63-3.33,12-3.33,12s-.67,2.26.83,3.3,21.61,5,21.61,5a2.36,2.36,0,0,0,2.08,0c.82-.59-.54-18.12-.8-20.43A7.52,7.52,0,0,0,79.59,21c-.37-.75-2.14-1.06-2.39-1.06s-12.33,0-12.33,0"/><path class="cls-6" d="M103.77,17c-.21-.13-2.9-.5-3.33.42s.42,29.71.42,29.71.7,2.08,1.66,2.48,15.37,1.23,15.37,1.23,1.2.45,1.67-.41,8.31-29.3,8.31-29.3.58-2.42-1.25-2.48S104,17.18,103.77,17"/><path class="cls-7" d="M57.77,17.35,34.5,24l1.24,6.19,8.1-2.57,4.49,19,7.4-1.84L51.24,25.6,59,23.54Zm59.83,6.19-.54,4.76-.7-.22s-5-1.11-7.07-.41a9.29,9.29,0,0,0-5.81,6.19c-1.09,3.91-.28,8.7,4.15,9.49a9.72,9.72,0,0,0,7.11-1.16l-.7,2.3h5.83l4-20.54ZM114.93,36.7a4,4,0,0,1-4.1,2.16c-1.44-.26-2-3-.83-4.92s4-2.73,5.19-1.92S116,34.89,114.93,36.7Zm-21-11.51a17.8,17.8,0,0,0-7.48.83,25.24,25.24,0,0,0-3.74,1.23l1.66,19.4,5.4-.41-.83-7.84a9,9,0,0,0,4.16,1.23c2.14,0,4.85-1.28,5.4-3.3a14.13,14.13,0,0,0,.41-6.19C98.5,28.63,96.56,25.32,93.92,25.19ZM91.63,35.92c-1.26.23-3.14-1.61-3.24-3.46s.42-2.75,1.65-3.08c1.77-.48,3.19.94,3.54,2.76S92.9,35.69,91.63,35.92Zm-15.56-12c-2.33-1.42-1.17-.91-4.59-1.16a64.94,64.94,0,0,0-7.48,0l-1.25,3.72s6.92-.46,7.48,0,1.06.59.83,1.24a2.45,2.45,0,0,1-.41.82s-3.1.36-5.82.83-4.92,1.77-5.4,3.71-.06,4.74,2.08,5.37a25.4,25.4,0,0,0,6.23.41l1.11-2.51s-3.24.09-3.19-1.21c0-.69.14-1.51,2.49-2.06S71,32.69,71,32.69l-1.3,6.61,6,.75,2.07-11.56S78.42,25.3,76.07,23.87Z"/></svg>