<svg id="图层_1" data-name="图层 1" xmlns="http://www.w3.org/2000/svg" xmlns:xlink="http://www.w3.org/1999/xlink" viewBox="0 0 160 64"><defs><style>.cls-1{fill:none;clip-rule:evenodd;}.cls-2{clip-path:url(#clip-path);}.cls-3{fill:#e99e00;}.cls-3,.cls-4{fill-rule:evenodd;}.cls-4{fill:#c60;}</style><clipPath id="clip-path"><path class="cls-1" d="M-171.91-661.95a1,1,0,0,1,1.28-.8,1.93,1.93,0,0,1,1.43,2.43,5.79,5.79,0,0,1-.42-.81.78.78,0,0,0-.74-.58c-.25,0-.61.56-.61.88a7.71,7.71,0,0,1-.09,1.36c-.09-.56-.49-1.07-.21-1.68a1.48,1.48,0,0,0,.07-.67c0-.08-.1-.22-.16-.22a3.7,3.7,0,0,0-.55.09"/></clipPath></defs><title>icon</title><path class="cls-3" d="M98,13a19,19,0,1,0,19,19A19,19,0,0,0,98,13ZM95.92,28.49h1.42a32,32,0,0,1-1.19,6.1H94.84A32.64,32.64,0,0,0,95.92,28.49Zm-9.46,0a32.65,32.65,0,0,0,1.08,6.1H86.23A26.79,26.79,0,0,1,85,28.49Zm11.34,10H84.64v-.91h4V26.32h1.48V37.55h2.11V26.32H93.7V37.55h4.1Zm1.57.11v-1h5.7v-4h-4.5v-1h4.5V29H100V28h5.07V26.15h1.65V28h5.13v1h-5.13v3.53h4.56v1h-4.56v4h5.7v1Z"/><path class="cls-4" d="M56.81,28.46a1,1,0,1,1-1,1A1,1,0,0,1,56.81,28.46Zm4.27-.38,1.49,2.6,1.48-2.6h1.21L63.5,31.19H66v1.06H63.1v1.56H66v1.06H63.1v2.25H62V34.87h-2.9V33.81H62V32.25h-2.9V31.19h2.5l-1.78-3.11ZM57.4,23.34a4.48,4.48,0,0,0-3-.48l-.2,0-.13,0L54,23a.35.35,0,0,0-.16.42l1.06,3.28-.25.21a6.85,6.85,0,0,0-1.82,2.59l-.12.33H50.49a.36.36,0,0,0-.36.36v5.42a.36.36,0,0,0,.35.28h3l0,.08.18.26a6.78,6.78,0,0,0,2.29,2l.07,0v2.66a.35.35,0,0,0,.35.35h3.78a.34.34,0,0,0,.29-.34V38.92h3v1.94a.36.36,0,0,0,.36.35h3.78a.34.34,0,0,0,.28-.34V38.2l.27-.14a6.79,6.79,0,0,0,3.28-4.48l0-.22h0a3,3,0,0,0,2.33-3.12A2.73,2.73,0,0,0,73,28.11a2.15,2.15,0,0,0-1-.52.35.35,0,0,0-.42.27l-.3,1.5a.37.37,0,0,0,.16.37l.08,0,0,0c.08.07.12.19.12.44v.14a1.06,1.06,0,0,1-.1.44l0,.06,0-.13A6.72,6.72,0,0,0,65,25.22H59.24l0,0A4.94,4.94,0,0,0,57.4,23.34ZM62,13a19,19,0,0,1,16,8.77,19.84,19.84,0,0,0,0,20.46A19,19,0,1,1,62,13Z"/></svg>