<svg id="图层_1" data-name="图层 1" xmlns="http://www.w3.org/2000/svg" xmlns:xlink="http://www.w3.org/1999/xlink" viewBox="0 0 160 64"><defs><style>.cls-1{fill:none;clip-rule:evenodd;}.cls-2{clip-path:url(#clip-path);}.cls-3{fill:#323541;}.cls-3,.cls-4{fill-rule:evenodd;}.cls-4{fill:#4972f1;}</style><clipPath id="clip-path"><path class="cls-1" d="M-366.47-661.95a1,1,0,0,1,1.28-.8,1.94,1.94,0,0,1,1.43,2.43,6,6,0,0,1-.43-.81.78.78,0,0,0-.74-.58c-.25,0-.6.56-.61.88a6.86,6.86,0,0,1-.09,1.36c-.08-.56-.48-1.07-.2-1.68a1.63,1.63,0,0,0,.07-.67c0-.08-.11-.22-.16-.22a3.32,3.32,0,0,0-.55.09"/></clipPath></defs><title>icon</title><path class="cls-3" d="M70.73,20.51H98.05a1.14,1.14,0,0,0,0-2.28H92.78V17.14a1.14,1.14,0,1,0-2.27,0v1.09H78.28V17.14a1.14,1.14,0,1,0-2.27,0v1.09H70.73a1.14,1.14,0,0,0,0,2.28Z"/><path class="cls-3" d="M73.21,23.84v8.85a1.13,1.13,0,1,0,2.26,0V23.84a1.13,1.13,0,1,0-2.26,0Z"/><path class="cls-3" d="M98.05,45.79H96.91V38.48a2.34,2.34,0,0,0-2.33-2.35H74.2a2.34,2.34,0,0,0-2.33,2.35v7.31H70.73a1.14,1.14,0,0,0,0,2.28H98.05a1.14,1.14,0,0,0,0-2.28Zm-18.45,0H74.13V38.92a.51.51,0,0,1,.5-.51h5Zm7.33,0H81.85V38.41h5.08Zm7.72,0H89.19V38.41h5a.5.5,0,0,1,.5.51Z"/><path class="cls-3" d="M79.6,23.85v8.86a1.13,1.13,0,1,0,2.26,0V23.85a1.13,1.13,0,1,0-2.26,0Z"/><path class="cls-3" d="M91.24,33.83a1.14,1.14,0,0,0,.8-.33L95.51,30a2,2,0,0,0,.57-1.39h0a1.45,1.45,0,0,0-1.45-1.46H88.29l2.43-2.46a1.14,1.14,0,1,0-1.6-1.62l-3.47,3.5a2,2,0,0,0-.58,1.4,1.45,1.45,0,0,0,1.45,1.46h6.35l-2.43,2.46A1.14,1.14,0,0,0,91.24,33.83Z"/><path class="cls-3" d="M117.19,26.14a1.09,1.09,0,0,0,0-2.18h-2.74V17.09a1.08,1.08,0,1,0-2.16,0V24h-2.74a1.09,1.09,0,0,0,0,2.18h2.74v7.6a4.9,4.9,0,0,0-3.75,4.78v4.67a4.86,4.86,0,1,0,9.72,0V38.52a4.89,4.89,0,0,0-3.81-4.79V26.14Zm-1.12,12.38v4.67a2.67,2.67,0,1,1-5.34,0V38.52a2.67,2.67,0,1,1,5.34,0Z"/><path class="cls-3" d="M105.31,17.76a1.13,1.13,0,0,0-1.5-.55,1.15,1.15,0,0,0-.54,1.52l1.37,3a1.12,1.12,0,0,0,1.5.55,1.15,1.15,0,0,0,.54-1.52Z"/><path class="cls-3" d="M105.31,25.3a1.12,1.12,0,0,0-1.5-.55,1.13,1.13,0,0,0-.54,1.51l1.37,3a1.12,1.12,0,0,0,1.5.55,1.13,1.13,0,0,0,.54-1.51Z"/><path class="cls-3" d="M105,33.11a1.13,1.13,0,0,0-1.12,1.14V47a1.13,1.13,0,1,0,2.25,0V34.25A1.13,1.13,0,0,0,105,33.11Z"/><path class="cls-3" d="M130.4,43.69v0h0V21.82a5,5,0,1,0-10,0V47a1.1,1.1,0,1,0,2.19,0V34.77h5.59v9c0,1.13,0,2-1,2a1.14,1.14,0,0,0-1.1,1.11,1.1,1.1,0,0,0,1.1,1.11c2.29,0,3.21-1.66,3.21-4.35Zm-2.18-11.11h-5.59V29.34h5.59Zm0-5.43h-5.59V21.82a2.8,2.8,0,1,1,5.59,0Z"/><path class="cls-4" d="M61.66,44.38c-1.9-2.15-3.58-4.64-3.59-13.78,0-.21,0-.22,0-.43a14.53,14.53,0,0,0-3.47-9.58,8.14,8.14,0,0,0,.49-.75l.06-.1a10.24,10.24,0,0,0,.56-1.1,12.5,12.5,0,0,0,.48-1.2c0-.05,0-.1,0-.15.09-.26.16-.52.22-.77.27-1.18.22-2.2-.46-2.49-.38-.16-.85.3-1.39,1l-.06.08-.07.09c-.35.45-.74,1-1.16,1.48l-.1.11-.06.07a5.21,5.21,0,0,1-1.51,1.26,10.92,10.92,0,0,0-11.48.08,5,5,0,0,1-1.69-1.34l0-.07-.1-.11c-.42-.49-.81-1-1.16-1.48l-.07-.09L37,15c-.53-.68-1-1.14-1.38-1-.68.29-.73,1.31-.46,2.49.06.25.13.51.22.77,0,.05,0,.1,0,.15.14.41.3.81.47,1.2s.38.77.57,1.1l.06.1a6.23,6.23,0,0,0,.64.93,14.57,14.57,0,0,0-3.32,9.4c0,.29,0,.39,0,.68,0,8.95-1.82,11.39-3.71,13.53-1.35,1.53-.2,4.75,2.63,3.32,5.69-2.9,7,2.47,13.12,2.3S53.16,44.8,59,47.7C61.88,49.1,63,45.91,61.66,44.38ZM45.91,36.56a7.1,7.1,0,0,1-5.3-2.37,7.31,7.31,0,0,1-1.86-4.88,7.2,7.2,0,0,1,7.16-7.25A7.13,7.13,0,0,1,52,25.52h0a7.27,7.27,0,0,1-6.11,11Z"/><path class="cls-3" d="M52.58,28.26A3.63,3.63,0,1,1,49,24.59a3.64,3.64,0,0,1,3.62,3.67"/></svg>