<?xml version="1.0" encoding="utf-8"?>
<!-- Generator: Adobe Illustrator 24.0.0, SVG Export Plug-In . SVG Version: 6.00 Build 0)  -->
<svg version="1.1" id="图层_1" xmlns="http://www.w3.org/2000/svg" xmlns:xlink="http://www.w3.org/1999/xlink" x="0px" y="0px"
	 viewBox="0 0 160 64" style="enable-background:new 0 0 160 64;" xml:space="preserve">
<style type="text/css">
	.st0{fill:#003399;}
	.st1{fill-rule:evenodd;clip-rule:evenodd;fill:#1F78EC;}
	.st2{fill:#FFFFFF;}
</style>
<title>icon</title>
<path class="st0" d="M48,38.5v2.2c0.1,1.8,1.6,3.1,3.3,3.2h38.3c1.8-0.1,3.2-1.6,3.2-3.3v-2L48,38.5z"/>
<path class="st0" d="M80.1,49.1h-2.9l-2.3-1.9l0,0l0,0c-0.2-0.2-0.2-0.4-0.2-0.7v-1.7h-8.4v1.8c0,0.2-0.1,0.4-0.2,0.5H66L63.6,49h-3
	c-0.5,0.1-0.9,0.6-0.8,1.2c0.1,0.4,0.5,0.8,0.9,0.8h19.4c0.5-0.2,0.8-0.7,0.6-1.3C80.7,49.4,80.4,49.1,80.1,49.1L80.1,49.1z"/>
<path class="st0" d="M92.8,16.3v-0.2c-0.1-1.8-1.6-3.2-3.3-3.2H51.2c-1.8,0.1-3.2,1.6-3.2,3.3v21.4h44.8V16.3z M59.7,21.1h-4.5
	l-0.3,3.5h-2.2l0.6-7.3h6.6L59.7,21.1z M67.5,18.2h-4.4l-0.5,5.3H67v0.9h-6.7l0.6-7.2h6.6V18.2z"/>
<polygon class="st0" points="57.7,18.2 55.5,18.2 55.3,20.3 57.5,20.3 "/>
<path class="st1" d="M112,32c0,10.5-8.5,19-19,19s-19-8.5-19-19s8.5-19,19-19S112,21.5,112,32"/>
<g>
	<path class="st2" d="M103.7,26.3c1.2-1.1,2.1-2.5,2.4-4.2c0.1-0.7,0-1.4-0.2-2l-0.3-0.6l-0.1,0.7c-0.1,0.6-0.4,1.1-0.9,1.4
		c0-0.6-0.2-1.2-0.5-1.7l-0.2-0.4l-0.1,0.5c-0.5,1.6-2.4,2.2-4,2.4c-0.3,0-0.5,0.1-0.8,0.2c-0.5-0.2-1-0.4-1.5-0.6
		c-0.4-0.1-0.8-0.3-1.2-0.3c0.2-0.4,0.3-0.8,0.4-1.2c0-1.7-1.3-3-3-3s-3,1.3-3,3c0,0.5,0.1,0.9,0.3,1.4c-0.9,0.2-1.8,0.5-2.6,0.9
		c-0.3-0.1-0.6-0.1-0.9-0.2c-1.5-0.2-3.5-0.8-4-2.4c0,0,0,0,0,0l-0.1-0.5L83,20c-0.3,0.5-0.5,1.1-0.5,1.7c-0.5-0.3-0.8-0.9-0.9-1.4
		l-0.2-0.7l-0.3,0.6c-0.2,0.6-0.3,1.3-0.2,2c0.3,1.7,1.2,3.3,2.6,4.4l0.1,0.1h0c-1.5,2.1-2.4,4.6-2.4,7.4c0,6.9,5.6,12.6,12.6,12.6
		s12.6-5.6,12.6-12.6C106.4,31.1,105.4,28.5,103.7,26.3z M92.4,19.3h2.2v2.2h-2.2V19.3z M93.8,45.4c-6.3,0-11.4-5.1-11.4-11.4
		s5.1-11.4,11.4-11.4s11.4,5.1,11.4,11.4S100.1,45.4,93.8,45.4z"/>
</g>
<path class="st2" d="M93.8,23.8c-5.7,0-10.2,4.7-10.2,10.3c0,5.7,4.7,10.2,10.3,10.2c5.6,0,10.2-4.6,10.2-10.3
	C104.1,28.4,99.4,23.8,93.8,23.8C93.8,23.8,93.8,23.8,93.8,23.8z M95.8,34.7l0.6,2.2l-4.2-3l0.4-1.4L95.8,34.7z M92.8,31.9l0.5-1.9
	h1.2l1.1,3.9L92.8,31.9z M96.2,27.2L95,29.5h-2.4l-1.2-2.3H96.2z M93.8,41.6l-2.9-3.5l0.6-1.9l4.2,3.1L93.8,41.6z M96,39l-4.4-3.2
	l0.4-1.4l4.5,3.3l0.2,0.5L96,39z"/>
</svg>
