<svg id="图层_1" data-name="图层 1" xmlns="http://www.w3.org/2000/svg" xmlns:xlink="http://www.w3.org/1999/xlink" viewBox="0 0 160 64"><defs><style>.cls-1{fill:none;clip-rule:evenodd;}.cls-2{clip-path:url(#clip-path);}.cls-3{fill:#1f78ec;}.cls-3,.cls-4{fill-rule:evenodd;}</style><clipPath id="clip-path"><path class="cls-1" d="M-171.91-457.6a1,1,0,0,1,1.28-.8A1.93,1.93,0,0,1-169.2-456a6.4,6.4,0,0,1-.42-.81.78.78,0,0,0-.74-.58c-.25,0-.61.56-.61.88a7.77,7.77,0,0,1-.09,1.36c-.09-.56-.49-1.07-.21-1.68a1.49,1.49,0,0,0,.07-.67c0-.08-.1-.22-.16-.22a3.7,3.7,0,0,0-.55.09"/></clipPath></defs><title>icon</title><path class="cls-3" d="M61.21,11c-1.74,2.27-3.51,4.5-5.19,6.81-.51.72-1.26,1.83-1,2.44,1.17,3.16-.79,4.81-3,5.78-4.13,1.79-8.47,3.1-12.62,4.57,1.1-2.93,2.21-5.1,2.71-7.4.78-3.6,3.2-6.46,6.65-6,3.14.42,5-1,7-2.71A19.94,19.94,0,0,1,61.21,11ZM52.06,27.76c-1.61,3.15-6.78,6.5-11.93,8.43-5.55,2.07-9.24-2.5-14-3.26l1.34-.09,1.34-.1C36.87,32.18,44.75,31.48,52.06,27.76Zm2.45.57C53.23,39.46,39.12,44.62,32,39.08c3.86-1.08,8.2-1.7,12-3.51S51.06,30.76,54.51,28.33Zm0,4.3C53,41.7,49.37,47.76,42.51,53a32.54,32.54,0,0,0,.57-5.35,35.86,35.86,0,0,0-1.16-5.47A18.39,18.39,0,0,0,54.53,32.63Z"/><path class="cls-4" d="M108.8,22.09l-.24,1.78h6l.26-1.78Zm-7.3.16H97.2l-.39,2.86h4.33Zm12.76,3.85h-6.09c-.07.31-.15.66-.25,1.06s-.14.53-.2.75H114Zm-13.41,1.24H96.51l-.41,2.94h4.38Zm1.39-7.3a1.83,1.83,0,0,1,1.44.49,1.87,1.87,0,0,1,.3,1.59l-1.33,10.42H93.3L95,20Zm13.37-.16a1.89,1.89,0,0,1,1.37.43,1.6,1.6,0,0,1,.31,1.47l-1.71,12.58H110l-.65-2.21h4.08l.29-2h-6.75a23.79,23.79,0,0,1-2.25,4.19l-.17.26h-3.08l.68-.94a21.66,21.66,0,0,0,2.44-4.19,21.16,21.16,0,0,0,1.34-4.35c.14-.72.27-1.52.38-2.37s.18-1.63.22-2.31l0-.56Zm13.67,6.65v4.58h4.54v1.78h-4.54v4.58h-1.83V32.89h-4.58V31.11h4.58V26.53ZM100,36.94H96.73l-.8,5.66h3.34Zm5.75,0h-3.28l-.73,5.66H105Zm5.89,0h-3.4l-.73,5.66h3.32Zm.59-2.23a2.64,2.64,0,0,1,1.23.23,1.29,1.29,0,0,1,.68,1,3.69,3.69,0,0,1,0,.94h0l-.79,5.76H116l-.3,2.24H90.42l.29-2.24h2.7l1.13-7.89ZM75.47,19l-.07.65c-.14,1.38-.27,2.5-.38,3.36H90.8l-.28,2.35H74.68c-.1.55-.23,1.18-.37,1.91s-.23,1.1-.33,1.55H85.9a1.83,1.83,0,0,1,1.1.28,1.24,1.24,0,0,1,.45,1,3.59,3.59,0,0,1-.57,1.72,26.3,26.3,0,0,1-5.34,6.25c2,2,4.15,3.93,6.41,5.79l1.29,1h-4l-.16-.14c-1.66-1.43-3.47-3.15-5.38-5.11l-.51.41c-.45.36-1.23.95-2.33,1.79a51.42,51.42,0,0,1-4.51,3l-.15.08H67.08l2.18-1.12c1.14-.59,2.54-1.42,4.15-2.47A54.79,54.79,0,0,0,78,38c-1.52-1.66-2.88-3.2-4-4.6l-.81-1h3.1l.18.2c.44.51,1,1.21,1.84,2.08.59.67,1.11,1.24,1.55,1.72a32.31,32.31,0,0,0,2.75-2.75,15.94,15.94,0,0,0,1.79-2.48h-11a42.8,42.8,0,0,1-2.58,6.74,43.75,43.75,0,0,1-4.16,6.82l-.17.24H63.32L64,44a49.49,49.49,0,0,0,3.76-5.91,41.36,41.36,0,0,0,2.66-6.19,45.94,45.94,0,0,0,1.63-6.54H66.42L66.76,23h5.69c.11-.86.24-2,.39-3.48L72.9,19Z"/></svg>