<svg id="图层_1" data-name="图层 1" xmlns="http://www.w3.org/2000/svg" xmlns:xlink="http://www.w3.org/1999/xlink" viewBox="0 0 160 64"><defs><style>.cls-1{fill:none;clip-rule:evenodd;}.cls-2{clip-path:url(#clip-path);}.cls-3,.cls-4,.cls-5{fill-rule:evenodd;}.cls-3{fill:url(#未命名的渐变_22);}.cls-4{fill:url(#未命名的渐变_18);}</style><clipPath id="clip-path"><path class="cls-1" d="M-366.47-558.68a1,1,0,0,1,1.28-.81,1.94,1.94,0,0,1,1.43,2.43,6,6,0,0,1-.43-.81.76.76,0,0,0-.74-.57c-.25,0-.6.55-.61.87a7,7,0,0,1-.09,1.37c-.08-.56-.48-1.08-.2-1.68a1.7,1.7,0,0,0,.07-.68c0-.08-.11-.22-.16-.22a3.33,3.33,0,0,0-.55.1"/></clipPath><linearGradient id="未命名的渐变_22" x1="12.67" y1="29.13" x2="29.04" y2="64.85" gradientUnits="userSpaceOnUse"><stop offset="0" stop-color="#1163d1"/><stop offset="0.16" stop-color="#1d85ce"/><stop offset="0.44" stop-color="#2fb9c9"/><stop offset="0.68" stop-color="#3cdfc5"/><stop offset="0.88" stop-color="#44f6c3"/><stop offset="1" stop-color="#47ffc2"/></linearGradient><linearGradient id="未命名的渐变_18" x1="27.26" y1="10.2" x2="3.82" y2="49.27" gradientUnits="userSpaceOnUse"><stop offset="0" stop-color="#1579ff"/><stop offset="0.06" stop-color="#1985fa"/><stop offset="0.38" stop-color="#2db9e2"/><stop offset="0.65" stop-color="#3bdfd1"/><stop offset="0.86" stop-color="#44f6c6"/><stop offset="1" stop-color="#47ffc2"/></linearGradient></defs><title>icon</title><path class="cls-3" d="M17.68,20C11.13,20,3.13,33.57,3.15,43a3.38,3.38,0,0,0,0,.45h.53C4.1,36.91,5,32.1,12.46,31.65s14,5.62,16.22,7.5a25.19,25.19,0,0,1,2.23,2.13c1.27,1.31,2,2.44,2,1.72C32.94,33.57,24.23,20,17.68,20Z"/><path class="cls-4" d="M17.68,20C11.07,20,2.37,33.39,2.37,42.89c0,1.63,2.12,1.21,6.16.35s11.5-3.13,10.1-4c-5.1-3.39-5.87-13.2-3.1-16.51,1.45-1.73,4.75-2.11,8.61.75A16.28,16.28,0,0,0,21,21,6.92,6.92,0,0,0,17.68,20Z"/><polygon class="cls-5" points="146.24 27.36 144.48 26.06 141.69 29.74 143.45 31.04 146.24 27.36"/><polygon class="cls-5" points="157.08 27.36 155.33 26.06 152.54 29.74 154.29 31.04 157.08 27.36"/><path class="cls-5" d="M95.91,34.51a5.07,5.07,0,0,0,4.92-4.66A4.3,4.3,0,0,0,96.9,25.2H88L86.83,41.26h3.26l.48-6.75h.86A3,3,0,0,1,94,35.93l2.33,3.87a3,3,0,0,0,2.58,1.45h2.23L98.26,36.6A4.07,4.07,0,0,0,95.91,34.51ZM90.75,32,91,27.91h4.63a2.11,2.11,0,0,1,2.09,2,2.06,2.06,0,0,1-2,2Z"/><path class="cls-5" d="M61.76,34.51a5.07,5.07,0,0,0,4.92-4.66,4.32,4.32,0,0,0-3.94-4.65H53.8L52.68,41.26H56l.46-6.75h.86a3,3,0,0,1,2.52,1.42l2.34,3.87a3,3,0,0,0,2.58,1.45h2.23L64.11,36.6A4.07,4.07,0,0,0,61.76,34.51ZM56.59,32l.29-4.07h4.63a2.12,2.12,0,0,1,2.14,2,2.07,2.07,0,0,1-2,2Z"/><polygon class="cls-5" points="127.64 30.44 125.77 30.44 125.53 37.06 127.4 37.06 127.64 30.44"/><path class="cls-5" d="M77.43,24.89h-.24a8.44,8.44,0,0,0-8.38,8.16v.35c-.42,5.12,3,8.16,7.31,8.16a8.4,8.4,0,0,0,8.41-8.16v-.35C84.85,27.85,81.65,25,77.43,24.89Zm3.77,8.45c-.19,3.13-2.38,5.43-4.91,5.43s-4.48-2.17-4.24-5.43v-.23c.21-3.11,2.51-5.36,5-5.36s4.33,2,4.11,5.36Z"/><polygon class="cls-5" points="120.26 39.63 122.13 39.63 122.45 30.44 120.59 30.44 120.26 39.63"/><path class="cls-5" d="M109.22,25.16l-7.7,16.09h3.53l5.62-11.75,2,5.86h-1a2.22,2.22,0,0,0-2.23,2.09l-.06.76h4.21l1,3h3.54l-5.44-16.09Z"/><path class="cls-5" d="M127.93,27.55v-.42h-2.58l.08-2.28h-.36a1.79,1.79,0,0,0-1.81,1.72v.53h-2.63l-.09,2.31h2.64l-.43,12.05h2.11l.4-12,.67.06A2,2,0,0,0,127.93,27.55Z"/><path class="cls-5" d="M146.92,31.86h-6.43l-.07,2h4.77l-5.31,7.57h1.73a2,2,0,0,0,1.6-.86l4.65-6.72a2,2,0,0,0,.16-.64V33.1A1.18,1.18,0,0,0,146.92,31.86Z"/><path class="cls-5" d="M155.69,33.9a2,2,0,0,0,1.94-1.85v-.16H151.3l.24-7h-.37a2,2,0,0,0-2,1.89L149,31.89l-.07,2-.19,5.52-.07,2h6.75a2,2,0,0,0,2-1.87v-.17h-6.33l.18-5.52Z"/><path class="cls-5" d="M136.54,25.35H128l-.08,2h1.31l-1.41,11.48a.78.78,0,0,1-.78.68h-.65l-.06,1.91H128a1.72,1.72,0,0,0,1.72-1.54l1.57-12.53h3.85l-2.67,3.84-.67,1v1.09h3.16l-5.71,8.18h1.46a2,2,0,0,0,1.57-.86l1.23-1.77,1.14,1.82a1.82,1.82,0,0,0,1.53.86h1.43L134.72,37l2.58-3.74a2.07,2.07,0,0,0,.16-.65v-.16a1.19,1.19,0,0,0-1.12-1.24h-1.52l2.67-3.84a2,2,0,0,0,.16-.63v-.18A1.2,1.2,0,0,0,136.54,25.35Z"/><path class="cls-5" d="M46.44,34.32l-.12,1.39a3,3,0,0,1-3,3.07l-.31,0A2.81,2.81,0,0,1,40.87,38a3,3,0,0,1-.77-2.4l.06-1.29.59-9.16H37.49l-.64,9.15-.1,1.4A5.17,5.17,0,0,0,38.21,40a6.33,6.33,0,0,0,4.54,1.55,7.09,7.09,0,0,0,4.8-1.59,6.06,6.06,0,0,0,2-4.31l.09-1.27.64-9.19H47.05Z"/></svg>