<svg id="图层_1" data-name="图层 1" xmlns="http://www.w3.org/2000/svg" xmlns:xlink="http://www.w3.org/1999/xlink" viewBox="0 0 160 64"><defs><style>.cls-1{fill:none;clip-rule:evenodd;}.cls-2{clip-path:url(#clip-path);}.cls-3{fill:#339;}.cls-4{fill:#66c;}.cls-4,.cls-5{fill-rule:evenodd;}.cls-5{fill:#fff;}</style><clipPath id="clip-path"><path class="cls-1" d="M-563.21-457.6a1,1,0,0,1,1.28-.8A1.94,1.94,0,0,1-560.5-456a6.63,6.63,0,0,1-.43-.81.78.78,0,0,0-.73-.58c-.26,0-.61.56-.62.88a6.91,6.91,0,0,1-.09,1.36c-.08-.56-.48-1.07-.2-1.68a1.65,1.65,0,0,0,.07-.67c0-.08-.11-.22-.16-.22a3.5,3.5,0,0,0-.55.09"/></clipPath></defs><title>icon</title><polygon class="cls-3" points="57.65 18.2 55.47 18.2 55.28 20.26 57.51 20.26 57.65 18.2"/><path class="cls-3" d="M92.82,16.34v-.18A3.34,3.34,0,0,0,89.48,13H51.16A3.34,3.34,0,0,0,48,16.34V37.75H92.82ZM59.69,21.12H55.21l-.31,3.53H52.7l.64-7.32h6.57Zm7.84-2.88H63.11l-.48,5.34H67v.94H60.3l.63-7.21h6.6Z"/><path class="cls-3" d="M48,38.52v2.21a3.34,3.34,0,0,0,3.33,3.15H89.66a3.35,3.35,0,0,0,3.16-3.34v-2Z"/><path class="cls-3" d="M80.06,49.06H77.19l-2.34-1.92,0,0,0,0a1,1,0,0,1-.21-.68V44.78H66.22v1.77a.88.88,0,0,1-.2.55l-.06,0-2.33,1.92h-3A1,1,0,0,0,60.76,51H80.17a1,1,0,0,0-.11-1.93Z"/><path class="cls-4" d="M112,32A19,19,0,1,1,93,13a19,19,0,0,1,19,19"/><path class="cls-5" d="M88.32,22.09H86V31.9H83v10h5.78q3.1.09,3-2.85V31.9H88.32V27.32h4V25.76h-4Zm1.19,11.37v5.69c.06,1-.4,1.43-1.38,1.37H85.29V33.46Z"/><path class="cls-5" d="M102,39.61c0,1.22-.4,1.8-1.19,1.74-1,0-1.87-1.1-2.48-3.3a18.51,18.51,0,0,0,4.68-7.8h-2.2a19.49,19.49,0,0,1-2.94,5.6,67.25,67.25,0,0,1-.55-7.25h6.06V27H97.21V22H94.83c0,1.83.06,3.52.18,5h-2.2V28.6H95a42.66,42.66,0,0,0,1,8.16,3.12,3.12,0,0,0,.09.74.08.08,0,0,1,.09.09,36.87,36.87,0,0,1-3.76,2.66v1.37a4,4,0,0,0,.74-.36,21.07,21.07,0,0,0,3.48-1.84C97.58,41.81,99,43,100.79,43s2.9-1.07,2.84-3.39Z"/><path class="cls-5" d="M100,26.31a14.84,14.84,0,0,0-1-3.58h1.84A11.08,11.08,0,0,1,102,26.31Z"/></svg>