<svg id="图层_1" data-name="图层 1" xmlns="http://www.w3.org/2000/svg" viewBox="0 0 119.77 35.17"><defs><style>.cls-1{fill:#fff;fill-rule:evenodd;}</style></defs><title>icon</title><path class="cls-1" d="M17.13,2.37H14.7V4.8h2.43ZM15.91,0A3.59,3.59,0,0,1,19.5,3.58a3.64,3.64,0,0,1-.6,2l.09,0-.1,0a3.19,3.19,0,0,1-.5.6,2.43,2.43,0,0,1-.29.26h0a10.54,10.54,0,0,0-2.18-.23,11.28,11.28,0,0,0-2.18.22,2.31,2.31,0,0,1-.24-.2,3.85,3.85,0,0,1-.56-.65l-.1,0,.1,0a3.53,3.53,0,0,1-.6-2A3.59,3.59,0,0,1,15.91,0ZM58.18,4.59V6.42a.36.36,0,0,1-.35.36H45.94V4.59Zm53.77,0v.82h7.47a.35.35,0,0,1,.35.35V8.12h-2.63V7.53h-13.3v.59h-2.67V5.46H109V4.64Zm7.54,4v1.67a.21.21,0,0,1-.21.2H101.46V8.65ZM22.67,10.27a1.17,1.17,0,1,1,0,2.33,1.17,1.17,0,0,1,0-2.33Zm-11.3.39a1.17,1.17,0,1,1-1.16,1.17A1.17,1.17,0,0,1,11.37,10.66Zm44-.22H48.75V13h6.62Zm-34-3A6.57,6.57,0,0,0,15.89,9.6l0,0h0a6.51,6.51,0,0,0-5.42-2.11c3.3,1.23,3.66,3.49,3.68,3.61v.06a5.8,5.8,0,0,1,.62,2.57h0l0-.09a1,1,0,0,1,1-.59h.15c.71,0,1.05.29,1.17.71a5.88,5.88,0,0,1,.62-2.58v-.07C17.72,11,18.09,8.71,21.38,7.47ZM116.62,13h-12.3v.77h12.13a.17.17,0,0,0,.17-.16Zm-95.11-.19a.58.58,0,1,1-.58.58A.58.58,0,0,1,21.51,12.84Zm-11.3.38a.58.58,0,1,1-.58.58A.58.58,0,0,1,10.21,13.22Zm108.71-2.06V14.3a1.15,1.15,0,0,1-1.14,1.15H102V11.16ZM55.37,15.23H48.75v2.61h6.31a.31.31,0,0,0,.31-.31ZM89.26,4.93a.38.38,0,0,1,.38.38v12.8a.2.2,0,0,1-.2.2H87.13V7.5h-4V18a.2.2,0,0,1-.2.2H80.51V4.93ZM22.13,9a4.76,4.76,0,1,0,4.76,4.76A4.77,4.77,0,0,0,22.13,9ZM9.7,9a4.76,4.76,0,1,0,4.76,4.76A4.76,4.76,0,0,0,9.7,9ZM117,18.13h-5.16V19H117Zm-7.8,0H104V19h5.2ZM57.74,8.25a.45.45,0,0,1,.44.45V18a2,2,0,0,1-2,2H45.94V8.25Zm51.43,12.44H104v.9h5.2Zm7.8,0h-5.16v.9h4.9a.26.26,0,0,0,.26-.26Zm-21.61-11-2.1,11.52a1.45,1.45,0,0,1-1.43,1.19H90.9a.2.2,0,0,1-.19-.14l-.54-2a.08.08,0,0,1,.08-.11h.25a.48.48,0,0,0,.48-.41l1.84-10Zm-9-1.08v9.17l2,3.46a.5.5,0,0,0,.42.23h1.08a.07.07,0,0,1,.07.09l-.31,1.91a.21.21,0,0,1-.2.17h-.9a2.55,2.55,0,0,1-2.28-1.41l-1-2-1,2a2.56,2.56,0,0,1-2.27,1.39H80.71a.2.2,0,0,1-.2-.2v-1.9a.08.08,0,0,1,.07-.07h1.06a.48.48,0,0,0,.43-.25l1.78-3.41V8.56Zm12.26-3.9v1.5h.91V8.7h-.91l.12,12.76a2.14,2.14,0,0,1-2.14,2.14H94.74a.2.2,0,0,1-.19-.14l-.66-2.07a.12.12,0,0,1,.11-.15h1.43a.44.44,0,0,0,.44-.44V8.7H90.68a.22.22,0,0,1-.21-.21V6.16h5.4V4.66Zm21,11.49v5.77A1.68,1.68,0,0,1,118,23.6H101.32V16.15ZM44.73,4.59V8.25h.64v1.88a.31.31,0,0,1-.32.31h-.32V23.69H42V10.44h-.76v9.25a.71.71,0,0,1-.71.71H39.07V6.57h2.19V8.25H42V4.59Zm26,0V8.23h8.12v1.93a.43.43,0,0,1-.43.43H71.26l6.43,10.6a.63.63,0,0,0,.55.31h.63v1.92a.27.27,0,0,1-.27.27H77.11a2,2,0,0,1-1.64-.85L69.32,12.73,63.18,22.84a2,2,0,0,1-1.65.85H60a.27.27,0,0,1-.27-.27V21.5h.62a.66.66,0,0,0,.55-.31l6.44-10.6H59.77V8.23h8.12V4.59ZM58.18,21.5v1.9a.29.29,0,0,1-.29.29h-12V21.5Zm7.11,7.85H64.16v1.52h1.15a.77.77,0,0,0,.87-.75C66.18,29.63,65.86,29.35,65.29,29.35Zm-10.13,0H54v1.52h1.15a.78.78,0,0,0,.88-.75C56.06,29.63,55.73,29.35,55.16,29.35Zm49.4.37-.63,1.55h1.26Zm-34.41-.18-.73,1.79h1.46ZM12.38,24.47a1.11,1.11,0,0,1,1.11,1.11v1.69h4.85V25.58a1.11,1.11,0,0,1,1.1-1.11h0a1.11,1.11,0,0,1,1.11,1.11v4.85a1.11,1.11,0,0,1-1.11,1.11h0a1.11,1.11,0,0,1-1.1-1.11V28.74H13.49v1.69a1.11,1.11,0,0,1-1.11,1.11h0a1.11,1.11,0,0,1-1.11-1.11V25.58a1.11,1.11,0,0,1,1.11-1.11Zm68.16,4.88h-.89v3h.89a1.43,1.43,0,0,0,1.52-1.51A1.46,1.46,0,0,0,80.54,29.35Zm-6.26-.85,2.37,3.11V28.5h.94v4.75h-.83l-2.44-3.2v3.2h-.94V28.5Zm6.26,0a2.38,2.38,0,1,1,0,4.75H78.7V28.5Zm7,0v.84H84.91v1.1H87.2v.84H84.91v1.14h2.64v.83H84V28.5Zm-35.37,0v.84H49.54v1.1h2.3v.84h-2.3v1.14h2.65v.83H48.6V28.5Zm3.1,0a1.88,1.88,0,0,1,1.37.48,1.43,1.43,0,0,1,.4,1.07,1.45,1.45,0,0,1-1,1.47l-.07,0,1.17,1.71H56L55,31.7H54v1.55h-1V28.5Zm10.13,0a1.9,1.9,0,0,1,1.37.48,1.47,1.47,0,0,1,.4,1.07,1.45,1.45,0,0,1-1,1.47l-.07,0,1.17,1.71H66.14l-1-1.55h-.93v1.55h-.95V28.5Zm-22.75,0v.84H40v1.1h2.29v.84H40v1.14h2.64v.83H39.07V28.5Zm28,0,2,4.78h-1l-.44-1.09H69.08l-.44,1.09h-1l2-4.78Zm30.87,0v.93H99v1h2.24v.93H99v1h2.58v.93H97.91V28.5Zm7.38,0v3.81h2.37v.95h-3.41V28.5Zm6.08,0v1H113.5v3.79h-1V29.47H111v-1Zm1.85,0v1.88h1.93V28.5h1v4.76h-1V31.35H116.8v1.91h-1V28.5Zm-11.75,0,2,4.79H106l-.44-1.07h-2l-.43,1.07h-1.07l2-4.79Zm-60.83,0L45.53,32l1.32-3.54h1L46,33.29h-.86L43.17,28.5Zm49.77,0,1.06,3.23,1-3.22h1.09l-1.62,4.79H94.6l-1.07-3.11-1.08,3.11h-.91L89.92,28.5H91l1,3.22,1.07-3.23Zm-33.78-.07A2.63,2.63,0,0,1,62,29l-.6.72a1.82,1.82,0,0,0-1.26-.47,1.6,1.6,0,0,0,.07,3.19,1.73,1.73,0,0,0,1-.3l0,0v-.78H60.24v-.81h2v2a3.09,3.09,0,0,1-2,.74,2.37,2.37,0,0,1-2.5-2.45A2.45,2.45,0,0,1,60.21,28.42Zm-43.1-14a8.45,8.45,0,0,1-1.2,2.86,8.83,8.83,0,0,1-1.2-2.84,5.83,5.83,0,0,1-5.78,5.18,6,6,0,0,1-1.13-.11v0l0,.07,0,.06A7.79,7.79,0,0,1,9.57,22.3c1,2.74.61,6.12-1.2,10.05l-.09.2.19.12a14.44,14.44,0,0,0,7.39,2h.05a14.44,14.44,0,0,0,7.39-2l.19-.12-.09-.2c-1.81-3.93-2.21-7.31-1.2-10a7.65,7.65,0,0,1,1.68-2.68l.08-.14a6.14,6.14,0,0,1-1.06.1A5.84,5.84,0,0,1,17.11,14.38ZM2.87,3.27a.14.14,0,0,1,.11.1l.12.4c.52,1.6,2.26,2.68,5.06,3.12L8.87,7a15,15,0,0,1,4-1.43l-.05,0a4.17,4.17,0,0,0,.44.73,8.08,8.08,0,0,0-1,.33,0,0,0,0,0,0,0L12.15,7h0s0,0,0,0h0a0,0,0,0,0,0,0h.05a10.64,10.64,0,0,1,1.56-.44l.41-.07a10.58,10.58,0,0,1,1.6-.15H16a10.7,10.7,0,0,1,1.6.15l.41.07A10.18,10.18,0,0,1,19.6,7h.07a0,0,0,0,0,0,0h0l-.07-.29a0,0,0,0,0,0,0,7.69,7.69,0,0,0-1-.33,4.17,4.17,0,0,0,.44-.73l-.06,0A14.89,14.89,0,0,1,23,7l.72-.13c2.79-.44,4.54-1.52,5-3.12l.12-.4a.15.15,0,0,1,.12-.1.15.15,0,0,1,.13.07l.16.26a4.47,4.47,0,0,1,.63,2.23A2.79,2.79,0,0,0,31,4l.09-.43a.15.15,0,0,1,.13-.1.14.14,0,0,1,.14.08l.17.41s1.58,4-3,8.15l0,0v.05a14.95,14.95,0,0,1-12.59,23,15,15,0,0,1-12.58-23v0l0,0C-.84,8.36,0,4.78.22,4.05L.25,4a.32.32,0,0,1,0-.06l.17-.41a.13.13,0,0,1,.14-.08.13.13,0,0,1,.12.1L.79,4A2.8,2.8,0,0,0,2,5.83,4.51,4.51,0,0,1,2.57,3.6l.16-.26A.15.15,0,0,1,2.87,3.27Z"/></svg>