<svg id="图层_1" data-name="图层 1" xmlns="http://www.w3.org/2000/svg" viewBox="0 0 41.76 31.67"><defs><style>.cls-1{fill:#eaeaea;}.cls-1,.cls-2{fill-rule:evenodd;}.cls-2{fill:#efa100;}.cls-3{fill:#fff;}</style></defs><title>icon</title><polygon class="cls-1" points="41.76 0 41.76 31.67 21.76 27.16 1.76 31.67 1.76 0 41.76 0"/><polygon class="cls-2" points="40 0 40 30 20 25.48 0 30 0 0 40 0"/><path class="cls-3" d="M26.92,16.74l1.63-5.32a2.92,2.92,0,0,0,.15-.71h0a3.86,3.86,0,0,0,.12.72l1.51,5.31h1.39L34,9.18h-1.3l-1.48,5.61a3.54,3.54,0,0,0-.12.7h-.06a5.47,5.47,0,0,0-.11-.7L29.35,9.18H28.12l-1.63,5.58a3.3,3.3,0,0,0-.13.71H26.3a3.41,3.41,0,0,0-.1-.69l-1.51-5.6H23.3l2.27,7.56ZM21.2,12.23H17.25A2.72,2.72,0,0,1,18,10.68a1.87,1.87,0,0,1,1.39-.6,1.69,1.69,0,0,1,1.34.56A2.43,2.43,0,0,1,21.2,12.23Zm-1.85,4.69A4.52,4.52,0,0,0,22,16.21V15a3.77,3.77,0,0,1-2.33.81,2.31,2.31,0,0,1-1.76-.66,2.7,2.7,0,0,1-.66-1.87h5.29v-.68A3.92,3.92,0,0,0,21.7,10,2.91,2.91,0,0,0,19.39,9a3.24,3.24,0,0,0-2.51,1.13,4.15,4.15,0,0,0-1,2.86,4.23,4.23,0,0,0,.92,2.89A3.25,3.25,0,0,0,19.35,16.92ZM9.09,16.74V12.43a2.47,2.47,0,0,1,.57-1.67,1.85,1.85,0,0,1,1.45-.65c1.13,0,1.7.78,1.7,2.33v4.3h1.33V12.12a3.55,3.55,0,0,0-.65-2.32A2.29,2.29,0,0,0,11.6,9a2.74,2.74,0,0,0-2.48,1.43h0V9.18H7.75v7.56Z"/></svg>